G04*
G04 #@! TF.GenerationSoftware,Altium Limited,Altium Designer,25.2.1 (25)*
G04*
G04 Layer_Physical_Order=1*
G04 Layer_Color=255*
%FSLAX44Y44*%
%MOMM*%
G71*
G04*
G04 #@! TF.SameCoordinates,A71CF6F4-CF6F-4F02-8CC4-27F24B5748F8*
G04*
G04*
G04 #@! TF.FilePolarity,Positive*
G04*
G01*
G75*
%ADD11C,0.3000*%
%ADD13C,0.2000*%
%ADD62C,1.1000*%
%ADD63C,1.6500*%
%ADD66R,1.0160X3.5040*%
%ADD67R,10.4900X8.3800*%
G04:AMPARAMS|DCode=68|XSize=0.95mm|YSize=0.95mm|CornerRadius=0mm|HoleSize=0mm|Usage=FLASHONLY|Rotation=0.000|XOffset=0mm|YOffset=0mm|HoleType=Round|Shape=RoundedRectangle|*
%AMROUNDEDRECTD68*
21,1,0.9500,0.9500,0,0,0.0*
21,1,0.9500,0.9500,0,0,0.0*
1,1,0.0000,0.4750,-0.4750*
1,1,0.0000,-0.4750,-0.4750*
1,1,0.0000,-0.4750,0.4750*
1,1,0.0000,0.4750,0.4750*
%
%ADD68ROUNDEDRECTD68*%
%ADD69R,1.0000X0.9000*%
%ADD70R,0.9000X1.0000*%
G04:AMPARAMS|DCode=71|XSize=1.1938mm|YSize=0.3048mm|CornerRadius=0mm|HoleSize=0mm|Usage=FLASHONLY|Rotation=135.000|XOffset=0mm|YOffset=0mm|HoleType=Round|Shape=Rectangle|*
%AMROTATEDRECTD71*
4,1,4,0.5298,-0.3143,0.3143,-0.5298,-0.5298,0.3143,-0.3143,0.5298,0.5298,-0.3143,0.0*
%
%ADD71ROTATEDRECTD71*%

%ADD72R,0.2000X0.6000*%
%ADD73R,0.6000X0.2000*%
%ADD74R,1.3400X1.8000*%
%ADD75R,2.5500X2.5500*%
G04:AMPARAMS|DCode=76|XSize=0.95mm|YSize=0.95mm|CornerRadius=0mm|HoleSize=0mm|Usage=FLASHONLY|Rotation=90.000|XOffset=0mm|YOffset=0mm|HoleType=Round|Shape=RoundedRectangle|*
%AMROUNDEDRECTD76*
21,1,0.9500,0.9500,0,0,90.0*
21,1,0.9500,0.9500,0,0,90.0*
1,1,0.0000,0.4750,0.4750*
1,1,0.0000,0.4750,-0.4750*
1,1,0.0000,-0.4750,-0.4750*
1,1,0.0000,-0.4750,0.4750*
%
%ADD76ROUNDEDRECTD76*%
%ADD77R,1.1000X0.6000*%
%ADD78R,1.1000X1.0500*%
%ADD79C,1.0000*%
%ADD80R,2.1000X1.4000*%
%ADD81R,2.1000X1.3500*%
G04:AMPARAMS|DCode=82|XSize=1.1938mm|YSize=0.3048mm|CornerRadius=0mm|HoleSize=0mm|Usage=FLASHONLY|Rotation=225.000|XOffset=0mm|YOffset=0mm|HoleType=Round|Shape=Rectangle|*
%AMROTATEDRECTD82*
4,1,4,0.3143,0.5298,0.5298,0.3143,-0.3143,-0.5298,-0.5298,-0.3143,0.3143,0.5298,0.0*
%
%ADD82ROTATEDRECTD82*%

%ADD83R,1.0000X0.6000*%
%ADD84R,2.3500X1.5500*%
%ADD85R,0.4500X1.4750*%
%ADD86R,1.2000X0.4000*%
%ADD87R,1.5500X2.3500*%
%ADD88R,1.7500X0.9500*%
%ADD89R,1.7500X3.2000*%
%ADD90R,1.4750X0.3000*%
%ADD91R,1.5000X0.5500*%
%ADD92R,5.8000X6.2000*%
%ADD93R,1.6000X3.0000*%
G04:AMPARAMS|DCode=94|XSize=1mm|YSize=0.9mm|CornerRadius=0mm|HoleSize=0mm|Usage=FLASHONLY|Rotation=45.000|XOffset=0mm|YOffset=0mm|HoleType=Round|Shape=Rectangle|*
%AMROTATEDRECTD94*
4,1,4,-0.0354,-0.6718,-0.6718,-0.0354,0.0354,0.6718,0.6718,0.0354,-0.0354,-0.6718,0.0*
%
%ADD94ROTATEDRECTD94*%

G04:AMPARAMS|DCode=95|XSize=1.9mm|YSize=1.2mm|CornerRadius=0mm|HoleSize=0mm|Usage=FLASHONLY|Rotation=225.000|XOffset=0mm|YOffset=0mm|HoleType=Round|Shape=Rectangle|*
%AMROTATEDRECTD95*
4,1,4,0.2475,1.0960,1.0960,0.2475,-0.2475,-1.0960,-1.0960,-0.2475,0.2475,1.0960,0.0*
%
%ADD95ROTATEDRECTD95*%

%ADD96R,1.5000X1.3000*%
G04:AMPARAMS|DCode=97|XSize=0.95mm|YSize=0.95mm|CornerRadius=0mm|HoleSize=0mm|Usage=FLASHONLY|Rotation=135.000|XOffset=0mm|YOffset=0mm|HoleType=Round|Shape=RoundedRectangle|*
%AMROUNDEDRECTD97*
21,1,0.9500,0.9500,0,0,135.0*
21,1,0.9500,0.9500,0,0,135.0*
1,1,0.0000,0.0000,0.6718*
1,1,0.0000,0.6718,0.0000*
1,1,0.0000,0.0000,-0.6718*
1,1,0.0000,-0.6718,0.0000*
%
%ADD97ROUNDEDRECTD97*%
G04:AMPARAMS|DCode=98|XSize=0.95mm|YSize=0.95mm|CornerRadius=0mm|HoleSize=0mm|Usage=FLASHONLY|Rotation=225.000|XOffset=0mm|YOffset=0mm|HoleType=Round|Shape=RoundedRectangle|*
%AMROUNDEDRECTD98*
21,1,0.9500,0.9500,0,0,225.0*
21,1,0.9500,0.9500,0,0,225.0*
1,1,0.0000,-0.6718,0.0000*
1,1,0.0000,0.0000,0.6718*
1,1,0.0000,0.6718,0.0000*
1,1,0.0000,0.0000,-0.6718*
%
%ADD98ROUNDEDRECTD98*%
%ADD99R,1.5000X0.6000*%
%ADD100C,0.2500*%
%ADD101C,0.6000*%
%ADD102C,0.8000*%
%ADD103C,1.3000*%
%ADD104C,1.4500*%
%ADD105C,1.2000*%
%ADD106C,0.2540*%
%ADD107C,0.5000*%
%ADD108C,0.7000*%
%ADD109C,0.4000*%
%ADD110C,6.0000*%
G04:AMPARAMS|DCode=111|XSize=1.6mm|YSize=3.9mm|CornerRadius=0.4mm|HoleSize=0mm|Usage=FLASHONLY|Rotation=90.000|XOffset=0mm|YOffset=0mm|HoleType=Round|Shape=RoundedRectangle|*
%AMROUNDEDRECTD111*
21,1,1.6000,3.1000,0,0,90.0*
21,1,0.8000,3.9000,0,0,90.0*
1,1,0.8000,1.5500,0.4000*
1,1,0.8000,1.5500,-0.4000*
1,1,0.8000,-1.5500,-0.4000*
1,1,0.8000,-1.5500,0.4000*
%
%ADD111ROUNDEDRECTD111*%
%ADD112R,1.7250X1.7250*%
%ADD113C,1.7250*%
%ADD114R,1.7250X1.7250*%
%ADD115C,2.5500*%
%ADD116C,1.2400*%
%ADD117C,2.1000*%
%ADD118C,1.5000*%
%ADD119R,1.5000X1.5000*%
%ADD120R,2.1750X2.1750*%
%ADD121C,2.1750*%
%ADD122C,0.7000*%
G36*
X363029Y666935D02*
Y627952D01*
X358917D01*
Y605952D01*
X363029D01*
Y586934D01*
X363378Y585178D01*
X364373Y583690D01*
X372849Y575213D01*
Y517273D01*
X370638D01*
Y542314D01*
X370289Y544070D01*
X369294Y545559D01*
X331995Y582859D01*
X330506Y583853D01*
X328750Y584202D01*
X318221D01*
X317454Y586054D01*
X315811Y588195D01*
X313670Y589838D01*
X311176Y590871D01*
X308500Y591223D01*
X305825Y590871D01*
X303331Y589838D01*
X301190Y588195D01*
X299772Y586347D01*
X298502Y586687D01*
X298502Y610589D01*
X299772Y611020D01*
X300690Y609824D01*
X302831Y608181D01*
X305325Y607148D01*
X308000Y606796D01*
X310676Y607148D01*
X313170Y608181D01*
X315311Y609824D01*
X316954Y611965D01*
X316983Y612036D01*
X330317D01*
Y605952D01*
X347717D01*
Y627952D01*
X330317D01*
Y622232D01*
X316983D01*
X316954Y622304D01*
X315311Y624445D01*
X313170Y626088D01*
X310676Y627121D01*
X308000Y627473D01*
X305325Y627121D01*
X302831Y626088D01*
X300690Y624445D01*
X299772Y623249D01*
X298502Y623680D01*
X298503Y685588D01*
X299773Y686019D01*
X300690Y684824D01*
X302831Y683181D01*
X305325Y682148D01*
X308000Y681796D01*
X310676Y682148D01*
X313170Y683181D01*
X315311Y684824D01*
X316954Y686965D01*
X317194Y687546D01*
X342418D01*
X363029Y666935D01*
D02*
G37*
G36*
X166000Y671681D02*
X5500Y671681D01*
X5500Y734681D01*
X166000Y734681D01*
X166000Y671681D01*
D02*
G37*
G36*
X166000Y550402D02*
X5500Y550402D01*
X5500Y613402D01*
X166000D01*
X166000Y550402D01*
D02*
G37*
G36*
Y425657D02*
X5500Y425657D01*
X5500Y488657D01*
X166000D01*
X166000Y425657D01*
D02*
G37*
G36*
X1267488Y2549D02*
X299393D01*
X298495Y3447D01*
X298497Y165035D01*
X299767Y165288D01*
X299797Y165215D01*
X301440Y163074D01*
X303581Y161431D01*
X306075Y160398D01*
X308750Y160046D01*
X311426Y160398D01*
X313920Y161431D01*
X316061Y163074D01*
X317704Y165215D01*
X317733Y165286D01*
X328750D01*
Y161376D01*
X346150D01*
Y183376D01*
X328750D01*
Y175482D01*
X317733D01*
X317704Y175554D01*
X316061Y177695D01*
X313920Y179338D01*
X311426Y180371D01*
X308750Y180723D01*
X306075Y180371D01*
X303581Y179338D01*
X301440Y177695D01*
X299797Y175554D01*
X299767Y175481D01*
X298497Y175734D01*
X298498Y240033D01*
X299768Y240286D01*
X299797Y240215D01*
X301440Y238074D01*
X303581Y236431D01*
X306075Y235398D01*
X308750Y235046D01*
X311426Y235398D01*
X313920Y236431D01*
X316061Y238074D01*
X317704Y240215D01*
X317944Y240796D01*
X333415D01*
X361462Y212749D01*
Y183376D01*
X357350D01*
Y161376D01*
X374750D01*
Y167788D01*
X384666D01*
X386422Y168137D01*
X387910Y169132D01*
X400064Y181285D01*
X401058Y182774D01*
X401407Y184530D01*
Y365618D01*
X409873Y374084D01*
X419895D01*
X420339Y374172D01*
X429645D01*
Y383672D01*
X410645D01*
Y383260D01*
X407973D01*
X406217Y382911D01*
X404729Y381917D01*
X393575Y370763D01*
X393480Y370620D01*
X392210Y371006D01*
Y376417D01*
X402827Y387034D01*
X410645D01*
Y386872D01*
X429645D01*
Y396372D01*
X410645D01*
Y396210D01*
X400927D01*
X399171Y395861D01*
X397682Y394866D01*
X384377Y381562D01*
X383383Y380073D01*
X383033Y378317D01*
Y292969D01*
X376020Y285955D01*
X374750Y286481D01*
Y291884D01*
X370638D01*
Y333461D01*
X370289Y335217D01*
X369294Y336705D01*
X346871Y359129D01*
X345383Y360123D01*
X343627Y360472D01*
X317694D01*
X317454Y361054D01*
X315811Y363195D01*
X313670Y364838D01*
X311176Y365871D01*
X308500Y366223D01*
X305825Y365871D01*
X303331Y364838D01*
X301190Y363195D01*
X299769Y361343D01*
X298499Y361676D01*
X298500Y387529D01*
X299769Y387781D01*
X299797Y387715D01*
X301440Y385574D01*
X303581Y383931D01*
X306075Y382898D01*
X308750Y382546D01*
X311426Y382898D01*
X313920Y383931D01*
X316061Y385574D01*
X317704Y387715D01*
X317733Y387786D01*
X328750D01*
Y380945D01*
X346150D01*
Y402945D01*
X328750D01*
Y397982D01*
X317733D01*
X317704Y398054D01*
X316061Y400195D01*
X313920Y401838D01*
X311426Y402870D01*
X308750Y403223D01*
X306075Y402870D01*
X303581Y401838D01*
X301440Y400195D01*
X299797Y398054D01*
X299770Y397987D01*
X298500Y398240D01*
X298500Y462527D01*
X299770Y462779D01*
X299797Y462715D01*
X301440Y460574D01*
X303581Y458931D01*
X306075Y457898D01*
X308750Y457546D01*
X311426Y457898D01*
X313920Y458931D01*
X316061Y460574D01*
X317704Y462715D01*
X317992Y463412D01*
X319764D01*
X361462Y421714D01*
Y402945D01*
X357350D01*
Y380945D01*
X374750D01*
Y387357D01*
X376184D01*
X377940Y387706D01*
X379428Y388700D01*
X390462Y399734D01*
X410645D01*
Y399572D01*
X429645D01*
Y409072D01*
X410645D01*
Y408910D01*
X388561D01*
X386805Y408561D01*
X385317Y407566D01*
X375923Y398173D01*
X374750Y398659D01*
Y402945D01*
X370638D01*
Y423614D01*
X370289Y425370D01*
X369294Y426858D01*
X324908Y471244D01*
X323420Y472239D01*
X321664Y472588D01*
X317896D01*
X317704Y473054D01*
X316061Y475195D01*
X313920Y476838D01*
X311426Y477870D01*
X308750Y478223D01*
X306075Y477870D01*
X303581Y476838D01*
X301440Y475195D01*
X299797Y473054D01*
X299771Y472990D01*
X298500Y473242D01*
X298501Y500086D01*
X299771Y500423D01*
X301190Y498574D01*
X303331Y496931D01*
X305825Y495898D01*
X308500Y495546D01*
X311176Y495898D01*
X313670Y496931D01*
X315811Y498574D01*
X317454Y500715D01*
X317483Y500786D01*
X328750D01*
Y495273D01*
X346150D01*
Y501152D01*
X349980D01*
X350104Y501069D01*
X352250Y500642D01*
X354396Y501069D01*
X356080Y502194D01*
X357350Y501871D01*
Y495273D01*
X361462D01*
Y441477D01*
X361811Y439721D01*
X362806Y438232D01*
X387260Y413778D01*
X388748Y412783D01*
X390504Y412434D01*
X410645D01*
Y412272D01*
X429645D01*
Y421772D01*
X410645D01*
Y421610D01*
X392405D01*
X370638Y443377D01*
Y495273D01*
X372849D01*
Y456991D01*
X373199Y455235D01*
X374193Y453747D01*
X401462Y426478D01*
X402951Y425483D01*
X404706Y425134D01*
X410645D01*
Y424972D01*
X429645D01*
Y434472D01*
X410645D01*
Y434310D01*
X406607D01*
X382026Y458892D01*
Y577114D01*
X381676Y578870D01*
X380682Y580358D01*
X372206Y588834D01*
Y605952D01*
X376317D01*
Y627952D01*
X372206D01*
Y668836D01*
X371856Y670592D01*
X370862Y672080D01*
X347563Y695379D01*
X346074Y696373D01*
X344319Y696722D01*
X317194D01*
X316954Y697303D01*
X315311Y699445D01*
X313170Y701088D01*
X310676Y702121D01*
X308000Y702473D01*
X305325Y702121D01*
X302831Y701088D01*
X300690Y699445D01*
X299773Y698250D01*
X298503Y698681D01*
X298505Y867397D01*
X1267488D01*
Y2549D01*
D02*
G37*
G36*
X163345Y306036D02*
X2845Y306036D01*
X2845Y369036D01*
X125107D01*
X125359Y367766D01*
X124174Y367275D01*
X121450Y365185D01*
X119360Y362461D01*
X118046Y359288D01*
X117795Y357384D01*
X130751D01*
X143706D01*
X143455Y359288D01*
X142141Y362461D01*
X140051Y365185D01*
X137327Y367275D01*
X136141Y367766D01*
X136394Y369036D01*
X163345D01*
X163345Y306036D01*
D02*
G37*
G36*
X361462Y331561D02*
Y291884D01*
X357350D01*
Y269884D01*
X374750D01*
Y276296D01*
X377438D01*
X379193Y276645D01*
X380682Y277640D01*
X390866Y287824D01*
X390961Y287966D01*
X392231Y287581D01*
Y186430D01*
X382766Y176965D01*
X374750D01*
Y183376D01*
X370638D01*
Y214650D01*
X370289Y216406D01*
X369294Y217894D01*
X338560Y248629D01*
X337071Y249623D01*
X335315Y249972D01*
X317944D01*
X317704Y250554D01*
X316061Y252695D01*
X313920Y254338D01*
X311426Y255371D01*
X308750Y255723D01*
X306075Y255371D01*
X303581Y254338D01*
X301440Y252695D01*
X299797Y250554D01*
X299768Y250483D01*
X298498Y250736D01*
X298498Y275096D01*
X299768Y275427D01*
X301190Y273574D01*
X303331Y271931D01*
X305825Y270898D01*
X308500Y270546D01*
X311176Y270898D01*
X313670Y271931D01*
X315811Y273574D01*
X317454Y275715D01*
X317483Y275786D01*
X328750D01*
Y269884D01*
X346150D01*
Y291884D01*
X328750D01*
Y285982D01*
X317483D01*
X317454Y286054D01*
X315811Y288195D01*
X313670Y289838D01*
X311176Y290870D01*
X308500Y291223D01*
X305825Y290870D01*
X303331Y289838D01*
X301190Y288195D01*
X299768Y286342D01*
X298498Y286673D01*
X298499Y350093D01*
X299769Y350426D01*
X301190Y348574D01*
X303331Y346931D01*
X305825Y345898D01*
X308500Y345546D01*
X311176Y345898D01*
X313670Y346931D01*
X315811Y348574D01*
X317454Y350715D01*
X317694Y351296D01*
X341726D01*
X361462Y331561D01*
D02*
G37*
G36*
X166000Y190457D02*
X5500Y190457D01*
X5500Y253457D01*
X119323D01*
X119884Y252318D01*
X119610Y251961D01*
X118296Y248789D01*
X118045Y246884D01*
X131000D01*
X143955D01*
X143705Y248789D01*
X142391Y251961D01*
X142116Y252318D01*
X142678Y253457D01*
X166000D01*
X166000Y190457D01*
D02*
G37*
%LPC*%
G36*
X51250Y721100D02*
Y707384D01*
X64967D01*
X64819Y708882D01*
X63945Y711764D01*
X62525Y714420D01*
X60614Y716748D01*
X58286Y718659D01*
X55630Y720079D01*
X52748Y720953D01*
X51250Y721100D01*
D02*
G37*
G36*
X48250Y721100D02*
X46753Y720953D01*
X43871Y720079D01*
X41215Y718659D01*
X38886Y716748D01*
X36976Y714420D01*
X35556Y711764D01*
X34682Y708882D01*
X34534Y707384D01*
X48250D01*
Y721100D01*
D02*
G37*
G36*
X131750Y705089D02*
Y693634D01*
X143205D01*
X142955Y695538D01*
X141641Y698711D01*
X139551Y701434D01*
X136827Y703525D01*
X133654Y704839D01*
X131750Y705089D01*
D02*
G37*
G36*
X128750Y705089D02*
X126846Y704839D01*
X123674Y703525D01*
X120950Y701434D01*
X118860Y698711D01*
X117546Y695538D01*
X117295Y693634D01*
X128750D01*
Y705089D01*
D02*
G37*
G36*
X64967Y704384D02*
X51250D01*
Y690668D01*
X52748Y690816D01*
X55630Y691690D01*
X58286Y693110D01*
X60614Y695020D01*
X62525Y697348D01*
X63945Y700005D01*
X64819Y702887D01*
X64967Y704384D01*
D02*
G37*
G36*
X48250D02*
X34534D01*
X34682Y702887D01*
X35556Y700005D01*
X36976Y697348D01*
X38886Y695020D01*
X41215Y693110D01*
X43871Y691690D01*
X46753Y690816D01*
X48250Y690668D01*
Y704384D01*
D02*
G37*
G36*
X128750Y690634D02*
X117295D01*
X117546Y688730D01*
X118860Y685558D01*
X120950Y682834D01*
X123674Y680744D01*
X126846Y679430D01*
X128750Y679179D01*
Y690634D01*
D02*
G37*
G36*
X143205D02*
X131750D01*
Y679179D01*
X133654Y679430D01*
X136827Y680744D01*
X139551Y682834D01*
X141641Y685558D01*
X142955Y688730D01*
X143205Y690634D01*
D02*
G37*
G36*
X132251Y593839D02*
Y582384D01*
X143706D01*
X143455Y584288D01*
X142141Y587461D01*
X140051Y590185D01*
X137327Y592275D01*
X134155Y593589D01*
X132251Y593839D01*
D02*
G37*
G36*
X129251Y593839D02*
X127346Y593589D01*
X124174Y592275D01*
X121450Y590185D01*
X119360Y587461D01*
X118046Y584288D01*
X117795Y582384D01*
X129251D01*
Y593839D01*
D02*
G37*
G36*
X51250Y595792D02*
Y582076D01*
X64967D01*
X64819Y583573D01*
X63945Y586456D01*
X62525Y589112D01*
X60614Y591440D01*
X58286Y593351D01*
X55630Y594771D01*
X52748Y595645D01*
X51250Y595792D01*
D02*
G37*
G36*
X48250Y595792D02*
X46753Y595645D01*
X43871Y594771D01*
X41215Y593351D01*
X38886Y591440D01*
X36976Y589112D01*
X35556Y586456D01*
X34682Y583573D01*
X34534Y582076D01*
X48250D01*
Y595792D01*
D02*
G37*
G36*
X143705Y579384D02*
X132251D01*
Y567929D01*
X134155Y568180D01*
X137327Y569494D01*
X140051Y571584D01*
X142141Y574308D01*
X143455Y577480D01*
X143705Y579384D01*
D02*
G37*
G36*
X129251D02*
X117795D01*
X118046Y577480D01*
X119360Y574308D01*
X121450Y571584D01*
X124174Y569494D01*
X127346Y568180D01*
X129251Y567929D01*
Y579384D01*
D02*
G37*
G36*
X64967Y579076D02*
X51250D01*
Y565360D01*
X52748Y565507D01*
X55630Y566382D01*
X58286Y567801D01*
X60614Y569712D01*
X62525Y572040D01*
X63945Y574697D01*
X64819Y577579D01*
X64967Y579076D01*
D02*
G37*
G36*
X48250D02*
X34534D01*
X34682Y577579D01*
X35556Y574697D01*
X36976Y572040D01*
X38886Y569712D01*
X41215Y567801D01*
X43871Y566382D01*
X46753Y565507D01*
X48250Y565360D01*
Y579076D01*
D02*
G37*
G36*
X132500Y480839D02*
Y469384D01*
X143955D01*
X143705Y471288D01*
X142391Y474460D01*
X140301Y477184D01*
X137577Y479275D01*
X134404Y480589D01*
X132500Y480839D01*
D02*
G37*
G36*
X129500Y480839D02*
X127596Y480589D01*
X124424Y479275D01*
X121700Y477184D01*
X119610Y474460D01*
X118296Y471288D01*
X118045Y469384D01*
X129500D01*
Y480839D01*
D02*
G37*
G36*
X51250Y472100D02*
Y458384D01*
X64967D01*
X64819Y459882D01*
X63945Y462764D01*
X62525Y465420D01*
X60614Y467748D01*
X58286Y469659D01*
X55630Y471079D01*
X52748Y471953D01*
X51250Y472100D01*
D02*
G37*
G36*
X48250D02*
X46753Y471953D01*
X43871Y471079D01*
X41215Y469659D01*
X38886Y467748D01*
X36976Y465420D01*
X35556Y462764D01*
X34682Y459882D01*
X34534Y458384D01*
X48250D01*
Y472100D01*
D02*
G37*
G36*
X129500Y466384D02*
X118045D01*
X118296Y464480D01*
X119610Y461308D01*
X121700Y458584D01*
X124424Y456494D01*
X127596Y455180D01*
X129500Y454929D01*
Y466384D01*
D02*
G37*
G36*
X143955D02*
X132500D01*
Y454929D01*
X134404Y455180D01*
X137577Y456494D01*
X140301Y458584D01*
X142391Y461308D01*
X143705Y464480D01*
X143955Y466384D01*
D02*
G37*
G36*
X64967Y455384D02*
X51250D01*
Y441668D01*
X52748Y441815D01*
X55630Y442690D01*
X58286Y444110D01*
X60614Y446020D01*
X62525Y448349D01*
X63945Y451005D01*
X64819Y453887D01*
X64967Y455384D01*
D02*
G37*
G36*
X48250D02*
X34534D01*
X34682Y453887D01*
X35556Y451005D01*
X36976Y448349D01*
X38886Y446020D01*
X41215Y444110D01*
X43871Y442690D01*
X46753Y441815D01*
X48250Y441668D01*
Y455384D01*
D02*
G37*
G36*
X791075Y852333D02*
X785055D01*
Y846313D01*
X791075D01*
Y852333D01*
D02*
G37*
G36*
X782515D02*
X776495D01*
Y846313D01*
X782515D01*
Y852333D01*
D02*
G37*
G36*
X619516Y843643D02*
X613497D01*
Y837623D01*
X619516D01*
Y843643D01*
D02*
G37*
G36*
X610957D02*
X604936D01*
Y837623D01*
X610957D01*
Y843643D01*
D02*
G37*
G36*
X791075Y843773D02*
X783785D01*
X776495D01*
Y837840D01*
X776495Y837753D01*
X777035Y836707D01*
X777035Y836483D01*
Y835176D01*
X774535D01*
Y836793D01*
X761035D01*
Y835176D01*
X758785D01*
Y836793D01*
X745285D01*
Y835176D01*
X743160D01*
Y836862D01*
X721660D01*
Y823362D01*
X743160D01*
Y824980D01*
X745285D01*
Y823293D01*
X758785D01*
Y824980D01*
X761035D01*
Y823293D01*
X774535D01*
Y824980D01*
X777035D01*
Y823293D01*
X790535D01*
Y824945D01*
X829757D01*
X835176Y819527D01*
Y813862D01*
X833524D01*
Y800362D01*
X835176D01*
Y792101D01*
X826024D01*
Y772601D01*
X834676D01*
Y763128D01*
X831774D01*
Y755128D01*
X836760D01*
X837823Y754418D01*
X839774Y754030D01*
X841724Y754418D01*
X842787Y755128D01*
X847774D01*
Y763128D01*
X844872D01*
Y772601D01*
X853524D01*
Y777253D01*
X855957D01*
X856081Y777170D01*
X858227Y776743D01*
X860373Y777170D01*
X862193Y778385D01*
X863408Y780205D01*
X863835Y782351D01*
X863408Y784497D01*
X862193Y786316D01*
X860373Y787532D01*
X858227Y787959D01*
X856081Y787532D01*
X855957Y787449D01*
X853524D01*
Y792101D01*
X845371D01*
Y799464D01*
X846270Y800362D01*
X846937Y800362D01*
X847984Y799822D01*
X848070Y799822D01*
X854004D01*
Y807112D01*
Y814402D01*
X848070D01*
X847984Y814402D01*
X846937Y813862D01*
X846714Y813862D01*
X845371D01*
Y821639D01*
X844984Y823590D01*
X843878Y825244D01*
X835474Y833648D01*
X833820Y834753D01*
X831869Y835141D01*
X791433D01*
X790535Y836039D01*
X790535Y836707D01*
X791075Y837753D01*
X791075Y837840D01*
Y843773D01*
D02*
G37*
G36*
X1235622Y858523D02*
X1232667D01*
X1229769Y857946D01*
X1227039Y856815D01*
X1224582Y855174D01*
X1222493Y853085D01*
X1220852Y850628D01*
X1219721Y847898D01*
X1219144Y845000D01*
Y842045D01*
X1219721Y839147D01*
X1220852Y836417D01*
X1222493Y833961D01*
X1224582Y831871D01*
X1227039Y830230D01*
X1229769Y829099D01*
X1232667Y828523D01*
X1235622D01*
X1238520Y829099D01*
X1241249Y830230D01*
X1243706Y831871D01*
X1245796Y833961D01*
X1247437Y836417D01*
X1248568Y839147D01*
X1249144Y842045D01*
Y845000D01*
X1248568Y847898D01*
X1247437Y850628D01*
X1245796Y853085D01*
X1243706Y855174D01*
X1241249Y856815D01*
X1238520Y857946D01*
X1235622Y858523D01*
D02*
G37*
G36*
X1128000Y857483D02*
Y827000D01*
X1158483D01*
X1158239Y830106D01*
X1157043Y835087D01*
X1155083Y839818D01*
X1152407Y844186D01*
X1149080Y848080D01*
X1145186Y851407D01*
X1140818Y854083D01*
X1136087Y856043D01*
X1131106Y857239D01*
X1128000Y857483D01*
D02*
G37*
G36*
X1124000D02*
X1120894Y857239D01*
X1115913Y856043D01*
X1111181Y854083D01*
X1106814Y851407D01*
X1102920Y848080D01*
X1099593Y844186D01*
X1096917Y839818D01*
X1094957Y835087D01*
X1093761Y830106D01*
X1093517Y827000D01*
X1124000D01*
Y857483D01*
D02*
G37*
G36*
X619516Y835083D02*
X612227D01*
X604936D01*
Y829149D01*
X604936Y829062D01*
X605476Y828016D01*
X605476Y827793D01*
Y824296D01*
X563377D01*
Y831353D01*
X542127D01*
Y810103D01*
X563377D01*
Y817159D01*
X605476D01*
Y814603D01*
X608658D01*
Y781554D01*
X608930Y780189D01*
X609703Y779031D01*
X657607Y731128D01*
Y677827D01*
X656708Y676929D01*
X654940Y676929D01*
X653894Y677469D01*
X653808Y677469D01*
X647874D01*
Y670179D01*
Y662889D01*
X653808D01*
X653894Y662889D01*
X654940Y663429D01*
X655164Y663429D01*
X657607D01*
Y654996D01*
X655328Y654052D01*
X653344Y652530D01*
X651821Y650545D01*
X650864Y648234D01*
X650537Y645754D01*
X650864Y643274D01*
X651821Y640963D01*
X653344Y638979D01*
X655328Y637456D01*
X657639Y636498D01*
X660119Y636172D01*
X662599Y636498D01*
X664910Y637456D01*
X666895Y638979D01*
X668418Y640963D01*
X668629Y641473D01*
X812370D01*
Y638292D01*
X815391D01*
Y631431D01*
X809585D01*
Y626265D01*
X774630D01*
X773354Y626011D01*
X772273Y625288D01*
X756645Y609661D01*
X755922Y608579D01*
X755669Y607303D01*
Y584309D01*
X755627Y584097D01*
Y579107D01*
X696272Y519753D01*
X689067Y526958D01*
X685531Y530494D01*
X678460Y537565D01*
X676373Y539652D01*
X667854Y548172D01*
X662096Y553929D01*
X681927Y573759D01*
X682649Y574841D01*
X682903Y576117D01*
Y598036D01*
X682649Y599312D01*
X681927Y600394D01*
X667697Y614624D01*
X668418Y615563D01*
X669375Y617874D01*
X669701Y620354D01*
X669375Y622834D01*
X668418Y625145D01*
X666895Y627130D01*
X664910Y628652D01*
X662599Y629609D01*
X660119Y629936D01*
X657639Y629609D01*
X655328Y628652D01*
X653344Y627130D01*
X651821Y625145D01*
X650864Y622834D01*
X650537Y620354D01*
X650864Y617874D01*
X651821Y615563D01*
X653344Y613579D01*
X655328Y612056D01*
X657639Y611099D01*
X660119Y610772D01*
X661886Y611005D01*
X676235Y596655D01*
Y577498D01*
X658224Y559486D01*
X656483Y559542D01*
X655542Y560484D01*
X655923Y560866D01*
X653948Y562841D01*
X647932Y556824D01*
X646135Y558620D01*
X652152Y564637D01*
X651872Y564917D01*
X653568Y566614D01*
X656100Y564081D01*
X665646Y573628D01*
X656100Y583173D01*
X646554Y573628D01*
X648853Y571329D01*
X646775Y569250D01*
X646640Y569385D01*
X635371Y558115D01*
X635505Y557981D01*
X633750Y556225D01*
X633027Y555144D01*
X632773Y553868D01*
Y543900D01*
X633027Y542624D01*
X633750Y541542D01*
X719976Y455316D01*
X719696Y455036D01*
X725713Y449019D01*
X723917Y447223D01*
X717900Y453240D01*
X716160Y451500D01*
X722177Y445483D01*
X720381Y443687D01*
X714364Y449704D01*
X712389Y447729D01*
X712770Y447347D01*
X709617Y444193D01*
X706081Y440657D01*
X699010Y433586D01*
X696923Y431499D01*
X688404Y422980D01*
X684868Y419444D01*
X677797Y412373D01*
X675710Y410286D01*
X667190Y401767D01*
X663655Y398231D01*
X660119Y394696D01*
X654348Y388924D01*
X652787Y390485D01*
Y450122D01*
X676892Y474228D01*
X677661Y474075D01*
X679807Y474502D01*
X681626Y475717D01*
X682842Y477537D01*
X683269Y479683D01*
X682842Y481829D01*
X681626Y483648D01*
X679807Y484864D01*
X677661Y485290D01*
X675515Y484864D01*
X673696Y483648D01*
X672480Y481829D01*
X672053Y479683D01*
X672206Y478914D01*
X647130Y453838D01*
X646412Y452763D01*
X646159Y451495D01*
Y389112D01*
X646412Y387844D01*
X646872Y387155D01*
X646341Y385885D01*
X644475D01*
X643304Y385652D01*
X642312Y384989D01*
X627889Y370566D01*
X626875Y369947D01*
X623340Y373482D01*
X618356Y378466D01*
X612779Y384044D01*
X614879Y386144D01*
X616480Y385825D01*
X618626Y386252D01*
X620445Y387468D01*
X621661Y389287D01*
X622088Y391433D01*
X621661Y393579D01*
X620445Y395398D01*
X618626Y396614D01*
X616480Y397041D01*
X614334Y396614D01*
X612515Y395398D01*
X611299Y393579D01*
X610905Y391601D01*
X608445Y389140D01*
X607986Y389600D01*
X601969Y383583D01*
X595952Y377566D01*
X596232Y377286D01*
X593181Y374236D01*
X591585Y375832D01*
X589545Y373792D01*
X588392Y374945D01*
X590521Y377075D01*
X580975Y386621D01*
X578846Y384491D01*
X577313Y386024D01*
X579437Y388148D01*
X569891Y397694D01*
X567392Y395195D01*
X565999Y396587D01*
X568437Y399024D01*
X558891Y408570D01*
X556829Y406508D01*
X545194Y418143D01*
X547609Y420559D01*
X545239Y422929D01*
X548296Y425986D01*
X548430Y425852D01*
X550518Y423765D01*
X551966Y422317D01*
X555502Y418781D01*
D01*
X557589Y416694D01*
X559037Y415245D01*
X561124Y413158D01*
X562573Y411710D01*
X564660Y409622D01*
X566108Y408174D01*
X568195Y406087D01*
X568195Y406087D01*
X571731Y402551D01*
X573179Y401103D01*
X576715Y397568D01*
X576715Y397568D01*
X578802Y395480D01*
X580250Y394032D01*
X582338Y391945D01*
X583786Y390497D01*
X585873Y388409D01*
D01*
X589409Y384874D01*
X590857Y383426D01*
X592562Y381720D01*
X592180Y381338D01*
X594156Y379363D01*
X600173Y385379D01*
X606190Y391396D01*
X604214Y393372D01*
X603832Y392990D01*
X600678Y396144D01*
X598591Y398231D01*
X593607Y403215D01*
X588532Y408290D01*
X589158Y409460D01*
X589500Y409392D01*
X591646Y409819D01*
X593465Y411035D01*
X594681Y412854D01*
X595108Y415000D01*
X594681Y417146D01*
X593465Y418965D01*
X591646Y420181D01*
X589500Y420608D01*
X587354Y420181D01*
X585535Y418965D01*
X584319Y417146D01*
X583892Y415000D01*
X583960Y414658D01*
X582920Y413902D01*
X580914Y415909D01*
X575930Y420892D01*
X568859Y427963D01*
X565323Y431499D01*
X561788Y435034D01*
X554717Y442106D01*
X552629Y444193D01*
X544110Y452712D01*
X540574Y456248D01*
X537039Y459783D01*
X525769Y448513D01*
X530753Y443530D01*
X536376Y437907D01*
X539911Y434371D01*
X543581Y430701D01*
X540524Y427644D01*
X538063Y430105D01*
X535648Y427689D01*
X520780Y442557D01*
Y468628D01*
X520527Y469904D01*
X519804Y470985D01*
X516928Y473862D01*
X519520Y476454D01*
X517281Y478693D01*
X519900Y481311D01*
X522181Y479030D01*
X524095Y480945D01*
X525399Y480453D01*
X525769Y479548D01*
Y479548D01*
X537039Y468278D01*
X540193Y471432D01*
X540574Y471050D01*
X542550Y473026D01*
X536533Y479043D01*
X530517Y485059D01*
X530465Y485008D01*
X529312Y486161D01*
X531727Y488576D01*
X522400Y497903D01*
X522242Y498061D01*
X521884Y499183D01*
X521823Y499244D01*
X517627Y503440D01*
X512472Y498285D01*
X507317Y493130D01*
X511513Y488934D01*
X511575Y488873D01*
X512696Y488515D01*
X514550Y486662D01*
X514550Y485392D01*
X512566Y483408D01*
X510327Y485646D01*
X500428Y475747D01*
X509620Y466554D01*
X512213Y469147D01*
X514112Y467247D01*
Y441176D01*
X514366Y439900D01*
X515089Y438818D01*
X530933Y422974D01*
X528736Y420778D01*
X528578Y420620D01*
X527457Y420262D01*
X527396Y420201D01*
X523200Y416005D01*
X528354Y410850D01*
X533509Y405695D01*
X537705Y409891D01*
X537766Y409952D01*
X538124Y411074D01*
X539844Y412793D01*
X541114D01*
X552114Y401793D01*
X549564Y399244D01*
X549406Y399085D01*
X548284Y398727D01*
X548223Y398666D01*
X544027Y394470D01*
X549182Y389316D01*
X548284Y388418D01*
X549182Y387519D01*
X544027Y382365D01*
X548041Y378352D01*
X548284Y378108D01*
X549218Y377298D01*
X553231Y373284D01*
X558386Y378439D01*
X560182Y376643D01*
X555027Y371488D01*
X559158Y367358D01*
X559284Y367231D01*
X560185Y366342D01*
X564315Y362211D01*
X569470Y367366D01*
X571266Y365570D01*
X566111Y360415D01*
X569897Y356630D01*
X570668Y355680D01*
X571140Y355208D01*
X574925Y351423D01*
X580080Y356578D01*
X581876Y354782D01*
X576722Y349627D01*
X578584Y347765D01*
X578098Y346591D01*
X571102D01*
X519067Y398626D01*
X519067Y398626D01*
X519067Y398626D01*
X485808Y431885D01*
X484816Y432548D01*
X483645Y432781D01*
Y434472D01*
X464645D01*
Y424972D01*
X483645D01*
X483645Y424972D01*
Y424972D01*
X484660Y424382D01*
X487787Y421254D01*
X487301Y420081D01*
X483645D01*
Y421772D01*
X464645D01*
Y412272D01*
X483645D01*
Y413964D01*
X488332D01*
X493842Y408454D01*
X493356Y407280D01*
X483645D01*
Y409072D01*
X464645D01*
Y399572D01*
X483645D01*
Y401163D01*
X494616D01*
X499925Y395854D01*
X499439Y394681D01*
X483645D01*
Y396372D01*
X464645D01*
Y386872D01*
X483645D01*
Y388563D01*
X501113D01*
X506522Y383154D01*
X506036Y381981D01*
X483645D01*
Y383672D01*
X464645D01*
Y374172D01*
X483645D01*
Y375863D01*
X507504D01*
X558298Y325069D01*
X558298Y325069D01*
X559290Y324406D01*
X560461Y324173D01*
X594537D01*
X594537Y324173D01*
X595708Y324406D01*
X596700Y325069D01*
X630438Y358806D01*
X638559D01*
X638559Y358806D01*
X639729Y359039D01*
X640722Y359702D01*
X643168Y362149D01*
X646640Y358677D01*
X653846Y365882D01*
X655269Y364459D01*
X653252Y362441D01*
X654576Y361116D01*
X654102Y359795D01*
X652508Y359478D01*
X650688Y358262D01*
X649473Y356443D01*
X649046Y354297D01*
X649194Y353552D01*
X647963Y352321D01*
X644166Y356118D01*
X627902Y339855D01*
X631699Y336058D01*
X628183Y332541D01*
X627987Y332622D01*
X626160Y332863D01*
X624332Y332622D01*
X622629Y331917D01*
X621167Y330795D01*
X620045Y329333D01*
X619340Y327630D01*
X619099Y325803D01*
X619340Y323975D01*
X620045Y322272D01*
X621167Y320810D01*
X622629Y319688D01*
X622826Y319607D01*
Y305354D01*
X616975Y299504D01*
X612492D01*
Y303169D01*
X599492D01*
Y289366D01*
X599492Y289170D01*
X599020Y288095D01*
X595965D01*
X595493Y289170D01*
X595493D01*
Y303169D01*
X594485D01*
X593886Y304290D01*
X594173Y304719D01*
X594600Y306865D01*
X594173Y309011D01*
X592958Y310830D01*
X591138Y312046D01*
X588993Y312473D01*
X586847Y312046D01*
X585027Y310830D01*
X583812Y309011D01*
X583385Y306865D01*
X583812Y304719D01*
X584099Y304290D01*
X583500Y303169D01*
X582492D01*
Y289170D01*
X582492D01*
X582020Y288095D01*
X575673D01*
Y270096D01*
X600673D01*
Y287900D01*
X600673Y288095D01*
X601146Y289170D01*
X612492D01*
Y292836D01*
X618356D01*
X619632Y293089D01*
X620714Y293812D01*
X628517Y301615D01*
X629240Y302697D01*
X629494Y303973D01*
Y319607D01*
X629690Y319688D01*
X631152Y320810D01*
X632274Y322272D01*
X632979Y323975D01*
X633220Y325803D01*
X632979Y327630D01*
X632898Y327826D01*
X636414Y331342D01*
X639216Y328541D01*
X655479Y344804D01*
X652678Y347606D01*
X653909Y348837D01*
X654654Y348689D01*
X656800Y349116D01*
X658619Y350332D01*
X659835Y352151D01*
X660152Y353745D01*
X661473Y354219D01*
X662578Y353114D01*
X662737Y352956D01*
X663095Y351834D01*
X663156Y351773D01*
X667352Y347577D01*
X672506Y352732D01*
X677661Y357887D01*
X673465Y362083D01*
X673404Y362144D01*
X672283Y362502D01*
X672124Y362660D01*
X662798Y371987D01*
X659985Y369174D01*
X658561Y370597D01*
X663530Y375566D01*
X665280Y375612D01*
X679308Y361584D01*
X679142Y360750D01*
X679569Y358604D01*
X680785Y356785D01*
X682604Y355569D01*
X684750Y355142D01*
X686896Y355569D01*
X688715Y356785D01*
X689931Y358604D01*
X690358Y360750D01*
X689931Y362896D01*
X689166Y364040D01*
X689027Y364249D01*
X690020Y365048D01*
X690083Y365029D01*
X709457Y345655D01*
Y320782D01*
X654907Y266232D01*
X654189Y265157D01*
X653936Y263889D01*
Y258283D01*
X648997Y253343D01*
X648279Y252268D01*
X648026Y251000D01*
Y241691D01*
X644340D01*
Y228691D01*
X658340D01*
Y241691D01*
X654654D01*
Y249627D01*
X659465Y254439D01*
X664276Y249627D01*
Y241691D01*
X660590D01*
Y228691D01*
X674590D01*
Y241691D01*
X670904D01*
Y251000D01*
X670651Y252268D01*
X669933Y253343D01*
X665064Y258213D01*
Y260653D01*
X720087Y315676D01*
X720805Y316751D01*
X721057Y318019D01*
Y346509D01*
X722231Y346995D01*
X779718Y289507D01*
X780800Y288785D01*
X782076Y288531D01*
X810335D01*
Y283365D01*
X816436D01*
Y280651D01*
X815785Y280215D01*
X814569Y278396D01*
X814142Y276250D01*
X814569Y274104D01*
X815785Y272285D01*
X817604Y271069D01*
X819750Y270642D01*
X821896Y271069D01*
X823715Y272285D01*
X824931Y274104D01*
X825358Y276250D01*
X824931Y278396D01*
X823715Y280215D01*
X823064Y280651D01*
Y283365D01*
X829085D01*
Y292825D01*
X829625D01*
Y295595D01*
X819710D01*
Y298135D01*
X829625D01*
Y300905D01*
X829085D01*
Y302825D01*
X829625D01*
Y305595D01*
X819710D01*
Y308135D01*
X829625D01*
Y308296D01*
X833140D01*
X833285Y308081D01*
X833681Y307815D01*
Y266809D01*
X788272Y221399D01*
X783562D01*
X783215Y221918D01*
X781396Y223134D01*
X779250Y223561D01*
X777104Y223134D01*
X775285Y221918D01*
X774938Y221399D01*
X768760D01*
X768193Y222138D01*
X766731Y223260D01*
X765028Y223965D01*
X763201Y224206D01*
X761374Y223965D01*
X759671Y223260D01*
X758208Y222138D01*
X757086Y220676D01*
X756381Y218973D01*
X756140Y217146D01*
X756381Y215318D01*
X757086Y213615D01*
X758208Y212153D01*
X758613Y211843D01*
Y206934D01*
X757715Y206036D01*
X756147Y206036D01*
X755101Y206576D01*
X755014Y206576D01*
X749081D01*
Y199286D01*
Y191996D01*
X755014D01*
X755101Y191996D01*
X756147Y192536D01*
X756371Y192536D01*
X758613D01*
Y190434D01*
X757715Y189536D01*
X756147Y189536D01*
X755101Y190076D01*
X755014Y190076D01*
X749080D01*
Y182786D01*
Y175496D01*
X752266D01*
X753201Y174686D01*
X753201Y174226D01*
Y140686D01*
X773201D01*
Y174686D01*
X767789D01*
Y176036D01*
X769561D01*
Y189536D01*
X767789D01*
Y192536D01*
X769561D01*
Y206036D01*
X767789D01*
Y211843D01*
X768193Y212153D01*
X769315Y213615D01*
X769583Y214262D01*
X775101D01*
X775285Y213988D01*
X777104Y212772D01*
X779250Y212345D01*
X781396Y212772D01*
X783215Y213988D01*
X783399Y214262D01*
X789750D01*
X791116Y214534D01*
X792273Y215307D01*
X839773Y262807D01*
X840547Y263965D01*
X840819Y265331D01*
Y307815D01*
X841215Y308081D01*
X842431Y309900D01*
X842858Y312046D01*
X842431Y314192D01*
X841215Y316011D01*
X839396Y317227D01*
X837250Y317654D01*
X835104Y317227D01*
X833285Y316011D01*
X832899Y315434D01*
X829625D01*
Y315595D01*
X819710D01*
Y318135D01*
X829625D01*
Y320905D01*
X829085D01*
Y322825D01*
X829625D01*
Y325595D01*
X819710D01*
Y328135D01*
X829625D01*
Y330905D01*
X829085D01*
Y337825D01*
X829625D01*
Y340595D01*
X809795D01*
Y337825D01*
X810335D01*
Y335199D01*
X777046D01*
X765284Y346961D01*
X765770Y348134D01*
X766731D01*
X768007Y348388D01*
X769089Y349110D01*
X773509Y353531D01*
X793326D01*
X794528Y353365D01*
Y339865D01*
X808028D01*
Y343296D01*
X809795D01*
Y343135D01*
X829625D01*
Y343296D01*
X832839D01*
X833104Y342900D01*
X834923Y341684D01*
X837069Y341257D01*
X837537Y341350D01*
X839546Y339342D01*
X840704Y338568D01*
X842069Y338296D01*
X871429D01*
X871572Y338090D01*
X871249Y336365D01*
X870527Y335882D01*
X869312Y334063D01*
X868885Y331917D01*
X869312Y329771D01*
X870527Y327952D01*
X872347Y326736D01*
X874493Y326309D01*
X876639Y326736D01*
X878458Y327952D01*
X878688Y328296D01*
X885555D01*
Y328135D01*
X895470D01*
Y325595D01*
X885555D01*
Y322825D01*
X886095D01*
Y315905D01*
X885555D01*
Y313135D01*
X905385D01*
Y313551D01*
X934490D01*
X934976Y312378D01*
X917777Y295179D01*
X905385D01*
Y295595D01*
X885555D01*
Y292825D01*
X886095D01*
Y283365D01*
X904845D01*
Y283551D01*
X920513D01*
X921781Y283804D01*
X922856Y284522D01*
X942886Y304551D01*
X1036948D01*
X1041526Y299972D01*
Y298676D01*
X1040590D01*
Y279926D01*
X1054526D01*
Y271053D01*
X1053497Y270024D01*
X1052779Y268949D01*
X1052676Y268431D01*
X1048840D01*
Y265245D01*
X1046590D01*
Y268431D01*
X1032590D01*
Y255431D01*
X1046590D01*
Y258617D01*
X1048840D01*
Y255431D01*
X1062840D01*
Y268431D01*
X1062082D01*
X1061154Y269681D01*
Y279386D01*
X1063070D01*
Y289301D01*
Y299216D01*
X1059550D01*
Y298676D01*
X1048154D01*
Y301345D01*
X1047902Y302613D01*
X1047183Y303688D01*
X1042993Y307878D01*
X1043479Y309051D01*
X1073781D01*
X1080527Y302306D01*
Y298676D01*
X1069130D01*
Y299216D01*
X1065610D01*
Y289301D01*
Y279386D01*
X1067526D01*
Y268931D01*
X1067116Y268431D01*
X1065090D01*
Y255431D01*
X1079090D01*
Y258617D01*
X1081340D01*
Y255431D01*
X1095340D01*
Y268431D01*
X1081340D01*
Y265245D01*
X1079090D01*
Y268431D01*
X1075255D01*
X1075152Y268949D01*
X1074433Y270024D01*
X1074154Y270303D01*
Y279926D01*
X1088090D01*
Y298676D01*
X1087154D01*
Y303679D01*
X1086901Y304947D01*
X1086183Y306022D01*
X1077956Y314249D01*
X1077775Y315863D01*
X1086183Y324272D01*
X1086901Y325347D01*
X1087154Y326615D01*
Y338686D01*
X1088090D01*
Y357436D01*
X1074154D01*
Y359198D01*
X1083194Y368237D01*
X1083912Y369312D01*
X1084015Y369830D01*
X1087850D01*
Y373017D01*
X1090350D01*
Y369831D01*
X1104350D01*
Y382830D01*
X1090350D01*
Y379644D01*
X1087850D01*
Y382830D01*
X1073850D01*
Y369831D01*
X1073850D01*
X1074308Y368725D01*
X1069179Y363595D01*
X1067909Y364121D01*
Y370181D01*
X1071398D01*
Y383371D01*
X1071398Y383595D01*
X1071938Y384641D01*
X1071938Y384727D01*
Y390661D01*
X1064648D01*
X1057358D01*
Y384727D01*
X1057358Y384641D01*
X1057898Y383595D01*
X1057898Y383371D01*
Y370181D01*
X1060771D01*
Y365040D01*
X1059501Y364514D01*
X1055190Y368825D01*
X1055648Y369931D01*
X1055648D01*
Y382931D01*
X1041648D01*
Y379744D01*
X1039398D01*
Y382931D01*
X1025398D01*
Y369931D01*
X1039398D01*
Y373117D01*
X1041648D01*
Y369931D01*
X1045484D01*
X1045587Y369413D01*
X1046305Y368338D01*
X1054526Y360117D01*
Y357436D01*
X1040590D01*
Y338686D01*
X1041526D01*
Y331078D01*
X1035628Y325179D01*
X1001638D01*
X1001253Y326449D01*
X1002686Y327406D01*
X1003901Y329225D01*
X1004328Y331371D01*
X1003901Y333517D01*
X1002686Y335336D01*
X1002054Y335758D01*
Y370022D01*
X1006405D01*
Y383022D01*
X992405D01*
Y370022D01*
X995386D01*
Y335758D01*
X994755Y335336D01*
X993540Y333517D01*
X993113Y331371D01*
X993540Y329225D01*
X994755Y327406D01*
X996187Y326449D01*
X995802Y325179D01*
X987466D01*
X987081Y326449D01*
X987183Y326517D01*
X988399Y328336D01*
X988826Y330482D01*
X988399Y332628D01*
X987183Y334447D01*
X986552Y334869D01*
Y370229D01*
X990182D01*
Y383229D01*
X976182D01*
Y370229D01*
X979884D01*
Y334869D01*
X979252Y334447D01*
X978037Y332628D01*
X977610Y330482D01*
X978037Y328336D01*
X979252Y326517D01*
X979355Y326449D01*
X978969Y325179D01*
X918851D01*
X918172Y326449D01*
X918959Y327625D01*
X919385Y329771D01*
X918959Y331917D01*
X917743Y333736D01*
X917581Y333845D01*
X917763Y335115D01*
X920441Y335115D01*
X921488Y334575D01*
X921574Y334575D01*
X927508D01*
Y341865D01*
Y349155D01*
X921574D01*
X921488Y349155D01*
X920441Y348615D01*
X920218Y348615D01*
X913026D01*
X912512Y349885D01*
X928417Y365790D01*
X929136Y366865D01*
X929388Y368133D01*
Y376213D01*
X947914Y394740D01*
X948633Y395815D01*
X948885Y397083D01*
Y429382D01*
X949416Y429913D01*
X967584D01*
X973148Y424349D01*
X972662Y423176D01*
X967590D01*
Y404426D01*
X981526D01*
Y402510D01*
X980839Y401823D01*
X980121Y400748D01*
X980018Y400229D01*
X976182D01*
Y397043D01*
X973808D01*
Y400099D01*
X959808D01*
Y387099D01*
X973808D01*
Y390416D01*
X976182D01*
Y387229D01*
X990182D01*
Y400229D01*
X988899D01*
X988154Y401137D01*
Y403886D01*
X990070D01*
Y413801D01*
Y423716D01*
X986550D01*
Y423176D01*
X981654D01*
Y423843D01*
X981402Y425112D01*
X980683Y426187D01*
X973398Y433472D01*
X973884Y434645D01*
X1003398D01*
X1007526Y430516D01*
Y423176D01*
X996130D01*
Y423716D01*
X992610D01*
Y413801D01*
Y403886D01*
X994527D01*
Y400838D01*
X993857Y400022D01*
X992405D01*
Y387022D01*
X1006405D01*
Y390209D01*
X1008655D01*
Y387022D01*
X1022655D01*
Y400022D01*
X1008655D01*
Y396836D01*
X1006405D01*
Y400022D01*
X1002570D01*
X1002467Y400540D01*
X1001749Y401615D01*
X1001154Y402210D01*
Y404426D01*
X1015090D01*
Y423176D01*
X1014154D01*
Y431889D01*
X1013902Y433157D01*
X1013183Y434232D01*
X1007647Y439769D01*
X1007506Y441295D01*
X1007592Y441510D01*
X1013183Y447101D01*
X1013902Y448176D01*
X1014154Y449444D01*
Y463186D01*
X1015090D01*
Y481936D01*
X1003255D01*
X1002769Y483109D01*
X1009966Y490306D01*
X1010685Y491381D01*
X1010788Y491899D01*
X1014623D01*
Y495335D01*
X1017873D01*
Y492149D01*
X1031873D01*
Y505149D01*
X1017873D01*
Y501963D01*
X1014623D01*
Y504899D01*
X1000623D01*
Y491899D01*
X1000623D01*
X1001081Y490793D01*
X996179Y485891D01*
X994909Y486417D01*
Y491880D01*
X997956D01*
Y505070D01*
X997956Y505294D01*
X998496Y506340D01*
X998496Y506427D01*
Y512360D01*
X991206D01*
X983916D01*
Y506427D01*
X983916Y506340D01*
X984456Y505294D01*
X984456Y505070D01*
Y491880D01*
X987772D01*
Y486092D01*
X986501Y485566D01*
X981468Y490600D01*
X981926Y491706D01*
X981926D01*
Y504706D01*
X967926D01*
Y501519D01*
X965640D01*
Y504630D01*
X951640D01*
Y491630D01*
X965640D01*
Y494892D01*
X967926D01*
Y491706D01*
X971761D01*
X971864Y491188D01*
X972583Y490113D01*
X979586Y483109D01*
X979100Y481936D01*
X967590D01*
Y463186D01*
X973461D01*
X973987Y461916D01*
X963506Y451435D01*
X942451D01*
X941183Y451182D01*
X940108Y450464D01*
X931244Y441600D01*
X930071Y442086D01*
Y443444D01*
X922531D01*
X914991D01*
Y439174D01*
X915531D01*
Y430214D01*
X928254D01*
Y403544D01*
X914889Y390179D01*
X905385D01*
Y390595D01*
X885555D01*
Y387825D01*
X886095D01*
Y380905D01*
X885555D01*
Y378135D01*
X905385D01*
Y378551D01*
X917625D01*
X918260Y378030D01*
Y371369D01*
X907070Y360179D01*
X905385D01*
Y360595D01*
X885555D01*
Y357825D01*
X886095D01*
Y350905D01*
X885555D01*
Y348135D01*
X895470D01*
Y345595D01*
X885555D01*
Y345434D01*
X843547D01*
X842584Y346397D01*
X842677Y346865D01*
X842250Y349011D01*
X841034Y350830D01*
X839215Y352046D01*
X837069Y352473D01*
X834923Y352046D01*
X833104Y350830D01*
X832839Y350434D01*
X829625D01*
Y350595D01*
X819710D01*
Y353135D01*
X829625D01*
Y355905D01*
X829085D01*
Y357825D01*
X829625D01*
Y360595D01*
X819710D01*
Y363135D01*
X829625D01*
Y365905D01*
X829085D01*
Y367825D01*
X829625D01*
Y370595D01*
X819710D01*
Y373135D01*
X829625D01*
Y373296D01*
X832839D01*
X833104Y372900D01*
X834923Y371684D01*
X837069Y371257D01*
X839215Y371684D01*
X841034Y372900D01*
X842250Y374719D01*
X842677Y376865D01*
X842250Y379011D01*
X841034Y380830D01*
X839215Y382046D01*
X837069Y382473D01*
X834923Y382046D01*
X833104Y380830D01*
X832839Y380434D01*
X829625D01*
Y380595D01*
X819710D01*
Y383135D01*
X829625D01*
Y385905D01*
X829085D01*
Y387825D01*
X829625D01*
Y390595D01*
X819710D01*
Y393135D01*
X829625D01*
Y395905D01*
X829085D01*
Y398296D01*
X832839D01*
X833104Y397900D01*
X834923Y396684D01*
X837069Y396257D01*
X839215Y396684D01*
X841034Y397900D01*
X842250Y399719D01*
X842677Y401865D01*
X842250Y404011D01*
X841034Y405830D01*
X839215Y407046D01*
X837069Y407473D01*
X834923Y407046D01*
X833104Y405830D01*
X832839Y405434D01*
X823279D01*
Y412365D01*
X826460D01*
Y425865D01*
X813270D01*
X813046Y425865D01*
X812000Y426405D01*
X811914Y426405D01*
X805980D01*
Y419115D01*
Y411825D01*
X811914D01*
X812000Y411825D01*
X813046Y412365D01*
X813270Y412365D01*
X816142D01*
Y405365D01*
X810335D01*
Y400199D01*
X783690D01*
X782414Y399945D01*
X781332Y399222D01*
X769295Y387185D01*
X767335D01*
X767272Y387265D01*
X766873Y388455D01*
X779073Y400656D01*
X779791Y401730D01*
X780044Y402999D01*
Y498715D01*
X795946Y514617D01*
X809585D01*
Y509431D01*
X813998D01*
X814596Y508311D01*
X814319Y507896D01*
X813892Y505750D01*
X814319Y503604D01*
X815535Y501785D01*
X817354Y500569D01*
X819500Y500142D01*
X821646Y500569D01*
X823465Y501785D01*
X824681Y503604D01*
X825108Y505750D01*
X824681Y507896D01*
X824404Y508311D01*
X825002Y509431D01*
X828335D01*
Y518891D01*
X828875D01*
Y521661D01*
X809045D01*
Y521244D01*
X794574D01*
X793306Y520992D01*
X792231Y520274D01*
X774387Y502430D01*
X773669Y501355D01*
X773416Y500087D01*
Y404371D01*
X762856Y393810D01*
X741385D01*
X722076Y413119D01*
X722445Y414334D01*
X722646Y414374D01*
X724465Y415590D01*
X725681Y417409D01*
X726107Y419555D01*
X725959Y420300D01*
X727043Y421383D01*
X730045Y418381D01*
X739591Y427927D01*
X736589Y430929D01*
X738057Y432397D01*
X740947Y429507D01*
X750493Y439053D01*
X748077Y441469D01*
X760566Y453957D01*
X761289Y455039D01*
X761542Y456315D01*
Y473492D01*
X761289Y474768D01*
X760566Y475849D01*
X759115Y477300D01*
X761531Y479715D01*
X751985Y489261D01*
X749369Y486646D01*
X747934Y488082D01*
X750349Y490497D01*
X740803Y500043D01*
X731257Y490497D01*
X734492Y487262D01*
X731628Y484398D01*
X731493Y484532D01*
X723099Y492927D01*
X723043Y494667D01*
X752972Y524597D01*
X809045D01*
Y524201D01*
X828875D01*
Y526971D01*
X828335D01*
Y528891D01*
X828875D01*
Y531661D01*
X818960D01*
Y534201D01*
X828875D01*
Y534362D01*
X832839D01*
X833104Y533965D01*
X834923Y532750D01*
X837069Y532323D01*
X839215Y532750D01*
X841034Y533965D01*
X842250Y535785D01*
X842677Y537931D01*
X842250Y540077D01*
X841034Y541896D01*
X839215Y543112D01*
X837069Y543539D01*
X834923Y543112D01*
X833104Y541896D01*
X832839Y541499D01*
X828875D01*
Y541661D01*
X818960D01*
Y544201D01*
X828875D01*
Y546971D01*
X828335D01*
Y548891D01*
X828875D01*
Y551661D01*
X818960D01*
Y554201D01*
X828875D01*
Y556971D01*
X828335D01*
Y563891D01*
X828875D01*
Y566661D01*
X809045D01*
Y563891D01*
X809585D01*
Y561265D01*
X770087D01*
X769601Y562438D01*
X776466Y569303D01*
X777189Y570385D01*
X777442Y571661D01*
Y577460D01*
X779532Y579550D01*
X781919D01*
X782153Y579597D01*
X792742D01*
X793840Y579181D01*
Y565681D01*
X807340D01*
Y569362D01*
X809045D01*
Y569201D01*
X828875D01*
Y569362D01*
X833222D01*
X833531Y568900D01*
X835350Y567684D01*
X837496Y567257D01*
X837964Y567351D01*
X839907Y565407D01*
X841065Y564634D01*
X842430Y564362D01*
X868806D01*
X869405Y563242D01*
X869294Y563077D01*
X868867Y560931D01*
X869294Y558785D01*
X870510Y556965D01*
X872329Y555750D01*
X874475Y555323D01*
X876621Y555750D01*
X878440Y556965D01*
X879656Y558785D01*
X879771Y559362D01*
X885345D01*
Y556971D01*
X884805D01*
Y554201D01*
X894720D01*
Y551661D01*
X884805D01*
Y548891D01*
X885345D01*
Y541971D01*
X884805D01*
Y539201D01*
X904635D01*
Y539617D01*
X939140D01*
X939626Y538444D01*
X922427Y521244D01*
X904635D01*
Y521661D01*
X884805D01*
Y518891D01*
X885345D01*
Y509431D01*
X904095D01*
Y509617D01*
X925766D01*
X927034Y509869D01*
X928109Y510588D01*
X981369Y563847D01*
X1039778D01*
X1049276Y554349D01*
X1048790Y553176D01*
X1043090D01*
Y534426D01*
X1057026D01*
Y525231D01*
X1055319Y523524D01*
X1054601Y522449D01*
X1054498Y521931D01*
X1050663D01*
Y518744D01*
X1048545D01*
Y522023D01*
X1034545D01*
Y509023D01*
X1048545D01*
Y512117D01*
X1050663D01*
Y508931D01*
X1064662D01*
Y521931D01*
X1064372D01*
X1063523Y523201D01*
X1063654Y523858D01*
Y533886D01*
X1065570D01*
Y543801D01*
Y553716D01*
X1062050D01*
Y553176D01*
X1057154D01*
Y554471D01*
X1056901Y555739D01*
X1056183Y556814D01*
X1045823Y567174D01*
X1046309Y568347D01*
X1078023D01*
X1083027Y563344D01*
Y553176D01*
X1071630D01*
Y553716D01*
X1068110D01*
Y543801D01*
Y533886D01*
X1070006D01*
Y521931D01*
X1066913D01*
Y508931D01*
X1080912D01*
Y512117D01*
X1083121D01*
Y508933D01*
X1097121D01*
Y521933D01*
X1083121D01*
Y518744D01*
X1080912D01*
Y521931D01*
X1077101D01*
X1076993Y522477D01*
X1076674Y522953D01*
Y534426D01*
X1090590D01*
Y553176D01*
X1089654D01*
Y564717D01*
X1089401Y565985D01*
X1088683Y567060D01*
X1082500Y573243D01*
X1082419Y573425D01*
X1082510Y574954D01*
X1082513Y574958D01*
X1088683Y581128D01*
X1089401Y582203D01*
X1089654Y583471D01*
Y593186D01*
X1090590D01*
Y611936D01*
X1076674D01*
Y615675D01*
X1085447Y624448D01*
X1086170Y625530D01*
X1086279Y626076D01*
X1090090D01*
Y629262D01*
X1092125D01*
Y626173D01*
X1106125D01*
Y639173D01*
X1092125D01*
Y635889D01*
X1090090D01*
Y639076D01*
X1076090D01*
Y626076D01*
X1076090D01*
X1076545Y624976D01*
X1071679Y620109D01*
X1070409Y620636D01*
Y626076D01*
X1073590D01*
Y639266D01*
X1073590Y639489D01*
X1074130Y640536D01*
X1074130Y640622D01*
Y646556D01*
X1066840D01*
X1059550D01*
Y640622D01*
X1059550Y640536D01*
X1060090Y639489D01*
X1060090Y639266D01*
Y626076D01*
X1063271D01*
Y621010D01*
X1062001Y620484D01*
X1057358Y625128D01*
X1057816Y626233D01*
X1057816D01*
Y639233D01*
X1043816D01*
Y636047D01*
X1041316D01*
Y639233D01*
X1027316D01*
Y626233D01*
X1041316D01*
Y629420D01*
X1043816D01*
Y626233D01*
X1047651D01*
X1047755Y625715D01*
X1048473Y624640D01*
X1057026Y616087D01*
Y611936D01*
X1043090D01*
Y593186D01*
X1050526D01*
Y591803D01*
X1043298Y584575D01*
X974402D01*
X973134Y584323D01*
X972059Y583605D01*
X939699Y551244D01*
X917628D01*
X917243Y552514D01*
X917743Y552849D01*
X918959Y554668D01*
X919385Y556814D01*
X918959Y558960D01*
X918490Y559661D01*
X919169Y560931D01*
X919754Y560931D01*
X920800Y560391D01*
X920886Y560391D01*
X926821D01*
Y567681D01*
Y574971D01*
X920886D01*
X920800Y574971D01*
X919754Y574431D01*
X919530Y574431D01*
X911609D01*
X911227Y575228D01*
X911168Y575701D01*
X930405Y594938D01*
X931124Y596013D01*
X931376Y597281D01*
Y683764D01*
X945411Y697799D01*
X974344D01*
X977277Y694866D01*
Y685306D01*
X969840D01*
Y666556D01*
X983776D01*
Y659307D01*
X982624Y658154D01*
X981905Y657079D01*
X981802Y656561D01*
X977967D01*
Y653374D01*
X975717D01*
Y656561D01*
X961717D01*
Y643561D01*
X975717D01*
Y646747D01*
X977967D01*
Y643561D01*
X991967D01*
Y656561D01*
X991425D01*
X991385Y656571D01*
X990383Y657831D01*
X990404Y657934D01*
Y666016D01*
X992320D01*
Y675930D01*
Y685846D01*
X988800D01*
Y685306D01*
X983904D01*
Y696239D01*
X983652Y697507D01*
X982933Y698582D01*
X980390Y701125D01*
X980876Y702299D01*
X1006501D01*
X1009777Y699023D01*
Y685306D01*
X998380D01*
Y685846D01*
X994860D01*
Y675930D01*
Y666016D01*
X996777D01*
Y656937D01*
X996468Y656561D01*
X994217D01*
Y643561D01*
X1008217D01*
Y646747D01*
X1010717D01*
Y643561D01*
X1024717D01*
Y656561D01*
X1010717D01*
Y653374D01*
X1008217D01*
Y656561D01*
X1004381D01*
X1004278Y657079D01*
X1003560Y658154D01*
X1003404Y658310D01*
Y666556D01*
X1017340D01*
Y685306D01*
X1016404D01*
Y700395D01*
X1016152Y701664D01*
X1015433Y702738D01*
X1010958Y707214D01*
X1010893Y708945D01*
X1015433Y713486D01*
X1016152Y714561D01*
X1016404Y715829D01*
Y725316D01*
X1017340D01*
Y744066D01*
X1006067D01*
X1005581Y745239D01*
X1012060Y751718D01*
X1012778Y752793D01*
X1012881Y753311D01*
X1016717D01*
Y756497D01*
X1019217D01*
Y753061D01*
X1033217D01*
Y766061D01*
X1019217D01*
Y763124D01*
X1016717D01*
Y766311D01*
X1002717D01*
Y753311D01*
X1002717D01*
X1003175Y752205D01*
X998429Y747459D01*
X997159Y747985D01*
Y753311D01*
X1000340D01*
Y766501D01*
X1000340Y766724D01*
X1000880Y767771D01*
X1000880Y767857D01*
Y773791D01*
X993590D01*
X986300D01*
Y767857D01*
X986300Y767771D01*
X986840Y766724D01*
X986840Y766501D01*
Y753311D01*
X990022D01*
Y748126D01*
X988752Y747600D01*
X983997Y752355D01*
X984455Y753461D01*
X984455D01*
Y766461D01*
X970455D01*
Y763275D01*
X968312D01*
Y766311D01*
X954312D01*
Y753310D01*
X968312D01*
Y756647D01*
X970455D01*
Y753461D01*
X974290D01*
X974393Y752943D01*
X975112Y751868D01*
X981740Y745239D01*
X981254Y744066D01*
X969840D01*
Y725316D01*
X977277D01*
Y721590D01*
X974669Y718983D01*
X938327D01*
X937059Y718730D01*
X935984Y718012D01*
X911188Y693216D01*
X910470Y692141D01*
X910217Y690873D01*
Y621989D01*
X905808Y617580D01*
X904635Y618066D01*
Y621971D01*
X904095D01*
Y631431D01*
X895065D01*
X894720Y631499D01*
X894375Y631431D01*
X885345D01*
Y626499D01*
X877664D01*
X875896Y627681D01*
X873750Y628108D01*
X871604Y627681D01*
X869785Y626465D01*
X868569Y624646D01*
X868142Y622500D01*
X868569Y620354D01*
X869785Y618535D01*
X871604Y617319D01*
X873750Y616892D01*
X875896Y617319D01*
X877715Y618535D01*
X878268Y619362D01*
X884805D01*
Y619201D01*
X894720D01*
Y616661D01*
X884805D01*
Y613891D01*
X885345D01*
Y606971D01*
X884805D01*
Y604201D01*
X904635D01*
Y604617D01*
X907209D01*
X908477Y604869D01*
X909552Y605588D01*
X918044Y614080D01*
X919217Y613594D01*
Y599487D01*
X905975Y586244D01*
X904635D01*
Y586661D01*
X884805D01*
Y583891D01*
X885345D01*
Y576971D01*
X884805D01*
Y574201D01*
X894720D01*
Y571661D01*
X884805D01*
Y571499D01*
X843908D01*
X843010Y572397D01*
X843103Y572865D01*
X842677Y575011D01*
X841461Y576830D01*
X839642Y578046D01*
X837496Y578473D01*
X835350Y578046D01*
X833531Y576830D01*
X833309Y576499D01*
X828875D01*
Y576661D01*
X818960D01*
Y579201D01*
X828875D01*
Y581971D01*
X828335D01*
Y583891D01*
X828875D01*
Y586661D01*
X818960D01*
Y589201D01*
X828875D01*
Y591971D01*
X828335D01*
Y593891D01*
X828875D01*
Y596661D01*
X818960D01*
Y599201D01*
X828875D01*
Y599362D01*
X832966D01*
X833040Y599252D01*
X834859Y598036D01*
X837005Y597609D01*
X839151Y598036D01*
X840970Y599252D01*
X842186Y601071D01*
X842613Y603217D01*
X842186Y605363D01*
X840970Y607182D01*
X839151Y608398D01*
X837005Y608825D01*
X834859Y608398D01*
X833040Y607182D01*
X832583Y606499D01*
X828875D01*
Y606661D01*
X818960D01*
Y609201D01*
X828875D01*
Y611971D01*
X828335D01*
Y613891D01*
X828875D01*
Y616661D01*
X809045D01*
Y616265D01*
X778151D01*
X776876Y616011D01*
X775794Y615288D01*
X763510Y603004D01*
X762337Y603490D01*
Y605922D01*
X776011Y619597D01*
X809045D01*
Y619201D01*
X828875D01*
Y621971D01*
X828335D01*
Y624362D01*
X832530D01*
X832795Y623965D01*
X834614Y622750D01*
X836760Y622323D01*
X838906Y622750D01*
X840725Y623965D01*
X841941Y625785D01*
X842368Y627931D01*
X841941Y630077D01*
X840725Y631896D01*
X838906Y633112D01*
X836760Y633539D01*
X834614Y633112D01*
X832795Y631896D01*
X832530Y631499D01*
X822529D01*
Y637394D01*
X823427Y638292D01*
X825783Y638292D01*
X826830Y637752D01*
X826916Y637752D01*
X832851D01*
Y645042D01*
Y652332D01*
X826916D01*
X826830Y652332D01*
X825783Y651792D01*
X825560Y651792D01*
X812370D01*
Y648610D01*
X712064D01*
X711812Y649880D01*
X712274Y650072D01*
X714100Y651473D01*
X715501Y653299D01*
X716382Y655425D01*
X716484Y656206D01*
X707866D01*
X699249D01*
X699352Y655425D01*
X700232Y653299D01*
X701633Y651473D01*
X703459Y650072D01*
X703922Y649880D01*
X703669Y648610D01*
X669219D01*
X668418Y650545D01*
X666895Y652530D01*
X664910Y654052D01*
X664744Y654121D01*
Y663429D01*
X668354D01*
Y676929D01*
X664744D01*
Y732606D01*
X664472Y733972D01*
X663698Y735129D01*
X615795Y783033D01*
Y814603D01*
X618977D01*
Y827793D01*
X618977Y828016D01*
X619516Y829062D01*
X619516Y829149D01*
Y835083D01*
D02*
G37*
G36*
X528852Y831792D02*
Y822228D01*
X538415D01*
X538229Y823643D01*
X537104Y826359D01*
X535315Y828691D01*
X532982Y830481D01*
X530266Y831606D01*
X528852Y831792D01*
D02*
G37*
G36*
X525852D02*
X524437Y831606D01*
X521721Y830481D01*
X519389Y828691D01*
X517599Y826359D01*
X516474Y823643D01*
X516288Y822228D01*
X525852D01*
Y831792D01*
D02*
G37*
G36*
X501952Y831445D02*
X499178Y831079D01*
X496593Y830009D01*
X494374Y828306D01*
X492671Y826086D01*
X491832Y824062D01*
X485328D01*
X484052Y823808D01*
X482970Y823085D01*
X422498Y762613D01*
X421775Y761531D01*
X421521Y760255D01*
Y718216D01*
X421775Y716940D01*
X422498Y715859D01*
X431746Y706610D01*
X432828Y705887D01*
X434104Y705633D01*
X437113D01*
Y700217D01*
X446278D01*
Y683274D01*
X446532Y681998D01*
X447255Y680917D01*
X457993Y670179D01*
Y663946D01*
X457094Y663048D01*
X454663Y663048D01*
X453616Y663588D01*
X453530Y663588D01*
X447597D01*
Y656298D01*
Y649008D01*
X453530D01*
X453616Y649008D01*
X454663Y649548D01*
X454887Y649548D01*
X457993D01*
Y646811D01*
X455039D01*
Y632811D01*
X457993D01*
Y598336D01*
X454327D01*
Y585336D01*
X468326D01*
Y598336D01*
X464661D01*
Y632811D01*
X468039D01*
Y646811D01*
X464661D01*
Y649548D01*
X468077D01*
Y663048D01*
X464661D01*
Y671560D01*
X464407Y672836D01*
X463684Y673917D01*
X452947Y684655D01*
Y700217D01*
X462113D01*
Y717717D01*
X437113D01*
Y712301D01*
X435485D01*
X428189Y719597D01*
Y758874D01*
X486709Y817394D01*
X491832D01*
X492671Y815370D01*
X494374Y813150D01*
X496593Y811447D01*
X499178Y810376D01*
X501952Y810011D01*
X504725Y810376D01*
X507310Y811447D01*
X509529Y813150D01*
X511232Y815370D01*
X512303Y817954D01*
X512668Y820728D01*
X512303Y823502D01*
X511232Y826086D01*
X509529Y828306D01*
X507310Y830009D01*
X504725Y831079D01*
X501952Y831445D01*
D02*
G37*
G36*
X538415Y819228D02*
X528852D01*
Y809664D01*
X530266Y809850D01*
X532982Y810975D01*
X535315Y812765D01*
X537104Y815097D01*
X538229Y817813D01*
X538415Y819228D01*
D02*
G37*
G36*
X525852D02*
X516288D01*
X516474Y817813D01*
X517599Y815097D01*
X519389Y812765D01*
X521721Y810975D01*
X524437Y809850D01*
X525852Y809664D01*
Y819228D01*
D02*
G37*
G36*
X856544Y814402D02*
Y808382D01*
X862564D01*
Y814402D01*
X856544D01*
D02*
G37*
G36*
X862564Y805842D02*
X856544D01*
Y799822D01*
X862564D01*
Y805842D01*
D02*
G37*
G36*
X1158483Y823000D02*
X1128000D01*
Y792517D01*
X1131106Y792761D01*
X1136087Y793957D01*
X1140818Y795917D01*
X1145186Y798593D01*
X1149080Y801920D01*
X1152407Y805814D01*
X1155083Y810182D01*
X1157043Y814913D01*
X1158239Y819894D01*
X1158483Y823000D01*
D02*
G37*
G36*
X1124000D02*
X1093517D01*
X1093761Y819894D01*
X1094957Y814913D01*
X1096917Y810182D01*
X1099593Y805814D01*
X1102920Y801920D01*
X1106814Y798593D01*
X1111181Y795917D01*
X1115913Y793957D01*
X1120894Y792761D01*
X1124000Y792517D01*
Y823000D01*
D02*
G37*
G36*
X527352Y806045D02*
X524578Y805679D01*
X521993Y804609D01*
X519774Y802906D01*
X518071Y800686D01*
X517000Y798102D01*
X516635Y795328D01*
X517000Y792554D01*
X518071Y789970D01*
X518223Y789771D01*
X515089Y786636D01*
X514366Y785554D01*
X514112Y784278D01*
Y784164D01*
X512864Y784112D01*
X512610Y785388D01*
X511887Y786470D01*
X509997Y788360D01*
X511232Y789970D01*
X512303Y792554D01*
X512668Y795328D01*
X512303Y798102D01*
X511232Y800686D01*
X509529Y802906D01*
X507310Y804609D01*
X504725Y805679D01*
X501952Y806045D01*
X499178Y805679D01*
X496593Y804609D01*
X494374Y802906D01*
X492671Y800686D01*
X491600Y798102D01*
X491235Y795328D01*
X491600Y792554D01*
X492671Y789970D01*
X494374Y787750D01*
X496593Y786047D01*
X499178Y784976D01*
X501952Y784611D01*
X504040Y784886D01*
X506195Y782731D01*
Y720903D01*
X498093Y712801D01*
X493636D01*
Y718217D01*
X468636D01*
Y700717D01*
X476807D01*
Y663114D01*
X473391D01*
Y649614D01*
X476807D01*
Y646811D01*
X473808D01*
Y632811D01*
X476807D01*
Y598336D01*
X473141D01*
Y585336D01*
X487141D01*
Y598336D01*
X483475D01*
Y632811D01*
X486808D01*
Y646811D01*
X483475D01*
Y648716D01*
X484373Y649614D01*
X486805Y649614D01*
X487851Y649074D01*
X487938Y649074D01*
X493871D01*
Y656364D01*
Y663654D01*
X487938D01*
X487851Y663654D01*
X486805Y663114D01*
X486581Y663114D01*
X483475D01*
Y700717D01*
X493636D01*
Y706133D01*
X499474D01*
X500750Y706387D01*
X501832Y707110D01*
X511887Y717165D01*
X512610Y718247D01*
X512864Y719522D01*
X514112Y719471D01*
Y719014D01*
X514366Y717738D01*
X515089Y716656D01*
X525062Y706683D01*
X526144Y705960D01*
X527420Y705706D01*
X533967D01*
Y700290D01*
X543133D01*
Y686769D01*
X532313Y675949D01*
X531590Y674867D01*
X531336Y673591D01*
Y662726D01*
X530438Y661828D01*
X527518Y661828D01*
X526472Y662368D01*
X526386Y662368D01*
X520452D01*
Y655078D01*
Y647788D01*
X526386D01*
X526472Y647788D01*
X527518Y648328D01*
X527742Y648328D01*
X531336D01*
Y645943D01*
X527946D01*
Y631943D01*
X531336D01*
Y597931D01*
X527670D01*
Y584931D01*
X541670D01*
Y597931D01*
X538004D01*
Y631943D01*
X540946D01*
Y645943D01*
X538004D01*
Y648328D01*
X540932D01*
Y661828D01*
X538004D01*
Y672210D01*
X548824Y683030D01*
X549547Y684112D01*
X549801Y685388D01*
Y700290D01*
X558967D01*
Y717790D01*
X533967D01*
Y712374D01*
X528801D01*
X520780Y720395D01*
Y782897D01*
X523363Y785480D01*
X524578Y784976D01*
X527352Y784611D01*
X530125Y784976D01*
X532710Y786047D01*
X534929Y787750D01*
X536632Y789970D01*
X537703Y792554D01*
X538068Y795328D01*
X537703Y798102D01*
X536632Y800686D01*
X534929Y802906D01*
X532710Y804609D01*
X530125Y805679D01*
X527352Y806045D01*
D02*
G37*
G36*
X968852Y783850D02*
X962582D01*
Y778081D01*
X968852D01*
Y783850D01*
D02*
G37*
G36*
X960042D02*
X953772D01*
Y778081D01*
X960042D01*
Y783850D01*
D02*
G37*
G36*
X1033757Y783601D02*
X1027486D01*
Y777831D01*
X1033757D01*
Y783601D01*
D02*
G37*
G36*
X1024946D02*
X1018677D01*
Y777831D01*
X1024946D01*
Y783601D01*
D02*
G37*
G36*
X1000880Y782351D02*
X994860D01*
Y776331D01*
X1000880D01*
Y782351D01*
D02*
G37*
G36*
X992320D02*
X986300D01*
Y776331D01*
X992320D01*
Y782351D01*
D02*
G37*
G36*
X968852Y775540D02*
X962582D01*
Y769771D01*
X968852D01*
Y775540D01*
D02*
G37*
G36*
X960042D02*
X953772D01*
Y769771D01*
X960042D01*
Y775540D01*
D02*
G37*
G36*
X1033757Y775291D02*
X1027486D01*
Y769521D01*
X1033757D01*
Y775291D01*
D02*
G37*
G36*
X1024946D02*
X1018677D01*
Y769521D01*
X1024946D01*
Y775291D01*
D02*
G37*
G36*
X1206530Y773424D02*
Y761591D01*
X1218363D01*
X1218100Y763593D01*
X1216748Y766856D01*
X1214598Y769659D01*
X1211795Y771809D01*
X1208532Y773160D01*
X1206530Y773424D01*
D02*
G37*
G36*
X1203530Y773424D02*
X1201528Y773160D01*
X1198265Y771809D01*
X1195462Y769659D01*
X1193312Y766856D01*
X1191960Y763593D01*
X1191697Y761591D01*
X1203530D01*
Y773424D01*
D02*
G37*
G36*
X898083Y758789D02*
X892062D01*
Y752768D01*
X898083D01*
Y758789D01*
D02*
G37*
G36*
X916359Y758749D02*
Y752729D01*
X922380D01*
Y758749D01*
X916359D01*
D02*
G37*
G36*
X785661Y754246D02*
X779891D01*
Y747976D01*
X785661D01*
Y754246D01*
D02*
G37*
G36*
X481500Y762358D02*
X479354Y761931D01*
X477535Y760715D01*
X476319Y758896D01*
X475892Y756750D01*
X476319Y754604D01*
X477535Y752785D01*
X477931Y752520D01*
Y748217D01*
X468636D01*
Y743036D01*
X462113D01*
Y747717D01*
X437113D01*
Y730217D01*
X462113D01*
Y735899D01*
X468636D01*
Y730717D01*
X493636D01*
Y748217D01*
X485069D01*
Y752520D01*
X485465Y752785D01*
X486681Y754604D01*
X487108Y756750D01*
X486681Y758896D01*
X485465Y760715D01*
X483646Y761931D01*
X481500Y762358D01*
D02*
G37*
G36*
X578500Y760431D02*
X576354Y760004D01*
X574535Y758789D01*
X573319Y756969D01*
X572892Y754823D01*
X573319Y752677D01*
X574535Y750858D01*
X574931Y750593D01*
Y747754D01*
X565345D01*
Y742609D01*
X558967D01*
Y747790D01*
X533967D01*
Y730290D01*
X558967D01*
Y735471D01*
X565345D01*
Y730254D01*
X590345D01*
Y747754D01*
X582069D01*
Y750593D01*
X582465Y750858D01*
X583681Y752677D01*
X584108Y754823D01*
X583681Y756969D01*
X582465Y758789D01*
X580646Y760004D01*
X578500Y760431D01*
D02*
G37*
G36*
X785661Y745436D02*
X779891D01*
Y739166D01*
X785661D01*
Y745436D01*
D02*
G37*
G36*
X680160Y825112D02*
X658660D01*
Y789112D01*
X680160D01*
Y803034D01*
X721660D01*
Y800362D01*
X743160D01*
Y803799D01*
X757066D01*
X766036Y794829D01*
Y790362D01*
X762660D01*
Y776362D01*
X766036D01*
Y720069D01*
X765867Y718869D01*
X764766Y718869D01*
X755474D01*
Y776362D01*
X758660D01*
Y790362D01*
X745660D01*
Y787426D01*
X743160D01*
Y790862D01*
X721660D01*
Y777362D01*
X743160D01*
Y780799D01*
X745660D01*
Y776362D01*
X748846D01*
Y718869D01*
X738367D01*
Y711820D01*
X715369D01*
X715029Y712642D01*
X713715Y714355D01*
X712002Y715669D01*
X710007Y716495D01*
X707867Y716777D01*
X705726Y716495D01*
X703731Y715669D01*
X702018Y714355D01*
X700704Y712642D01*
X699878Y710647D01*
X699596Y708506D01*
X699878Y706366D01*
X700704Y704371D01*
X702018Y702658D01*
X703731Y701344D01*
X705726Y700517D01*
X707867Y700236D01*
X710007Y700517D01*
X712002Y701344D01*
X713715Y702658D01*
X715029Y704371D01*
X715369Y705193D01*
X738367D01*
Y699369D01*
X749293D01*
Y689756D01*
X743106D01*
Y673296D01*
X742566D01*
Y665526D01*
X762646D01*
Y673296D01*
X762106D01*
Y689756D01*
X755920D01*
Y699369D01*
X765867D01*
Y715916D01*
X766596Y716287D01*
X767137Y716366D01*
X776728Y706776D01*
X777803Y706057D01*
X779071Y705805D01*
X781367D01*
Y699369D01*
X808867D01*
Y706799D01*
X854791D01*
Y703362D01*
X867981D01*
X868205Y703362D01*
X869251Y702822D01*
X869337Y702822D01*
X875271D01*
Y710112D01*
Y717402D01*
X869337D01*
X869251Y717402D01*
X868205Y716862D01*
X867981Y716862D01*
X864855D01*
Y721850D01*
X870916D01*
Y730079D01*
X870916Y730581D01*
X871803Y731349D01*
X871979Y731349D01*
X889916D01*
Y731836D01*
X892602D01*
Y729749D01*
X906102D01*
Y731836D01*
X908340D01*
Y729709D01*
X921840D01*
Y731836D01*
X927809D01*
X928062Y731506D01*
X929525Y730384D01*
X931227Y729679D01*
X933055Y729438D01*
X934882Y729679D01*
X936585Y730384D01*
X938047Y731506D01*
X938166Y731661D01*
X943094D01*
X944354Y730819D01*
X946500Y730392D01*
X948646Y730819D01*
X950465Y732035D01*
X951681Y733854D01*
X952108Y736000D01*
X951681Y738146D01*
X950465Y739965D01*
X948646Y741181D01*
X946500Y741608D01*
X944354Y741181D01*
X943840Y740837D01*
X938549D01*
X938047Y741491D01*
X936585Y742613D01*
X934882Y743318D01*
X933055Y743559D01*
X931227Y743318D01*
X929525Y742613D01*
X928062Y741491D01*
X927695Y741012D01*
X922738D01*
X921840Y741910D01*
X921840Y743123D01*
X922380Y744169D01*
X922380Y744256D01*
Y750189D01*
X915089D01*
Y751459D01*
X913820D01*
Y758749D01*
X907896D01*
X906642Y758789D01*
X906546Y758789D01*
X900622D01*
Y751498D01*
X899352D01*
Y750229D01*
X892062D01*
Y744295D01*
X892062Y744209D01*
X892602Y743162D01*
X892602Y742939D01*
Y741012D01*
X889916D01*
Y741349D01*
X876288D01*
X876163Y742619D01*
X877011Y742788D01*
X878086Y743506D01*
X886174Y751595D01*
X886892Y752670D01*
X887145Y753938D01*
Y761796D01*
X887361Y761886D01*
X888823Y763008D01*
X889945Y764470D01*
X890651Y766173D01*
X890891Y768000D01*
X890651Y769827D01*
X889945Y771530D01*
X888823Y772992D01*
X887361Y774115D01*
X885658Y774820D01*
X883831Y775060D01*
X882004Y774820D01*
X880301Y774115D01*
X878839Y772992D01*
X877717Y771530D01*
X877011Y769827D01*
X876771Y768000D01*
X877011Y766173D01*
X877717Y764470D01*
X878839Y763008D01*
X880301Y761886D01*
X880517Y761796D01*
Y755310D01*
X874370Y749163D01*
X870916D01*
Y750850D01*
X851916D01*
Y749302D01*
X847774D01*
Y750128D01*
X831774D01*
Y742128D01*
X835546D01*
Y737464D01*
X832360D01*
Y723464D01*
X845360D01*
Y737464D01*
X842173D01*
Y742128D01*
X847774D01*
Y742675D01*
X851916D01*
Y740850D01*
X869646D01*
X870916Y740850D01*
X870916Y739579D01*
Y733120D01*
X870916Y732618D01*
X870029Y731850D01*
X869853Y731850D01*
X851916D01*
Y721850D01*
X858227D01*
Y716862D01*
X854791D01*
Y713426D01*
X808867D01*
Y718869D01*
X798431D01*
Y739706D01*
X810431D01*
Y742814D01*
X812774D01*
Y742128D01*
X818546D01*
Y737464D01*
X815360D01*
Y723464D01*
X828360D01*
Y737464D01*
X825173D01*
Y742128D01*
X828774D01*
Y748088D01*
X829314D01*
Y751358D01*
X820774D01*
Y753898D01*
X829314D01*
Y757168D01*
X828774D01*
Y763128D01*
X812774D01*
Y762272D01*
X808797D01*
X808475Y762754D01*
X806656Y763969D01*
X804510Y764396D01*
X802364Y763969D01*
X800544Y762754D01*
X799701Y761492D01*
X798431Y761877D01*
Y772601D01*
X810524D01*
Y792101D01*
X783024D01*
Y772601D01*
X791804D01*
Y754246D01*
X788201D01*
Y746706D01*
Y739166D01*
X791804D01*
Y718869D01*
X781367D01*
Y713268D01*
X780097Y712779D01*
X772663Y720212D01*
Y776362D01*
X775660D01*
Y790362D01*
X772663D01*
Y796201D01*
X772411Y797469D01*
X771693Y798544D01*
X760782Y809455D01*
X759707Y810174D01*
X758439Y810426D01*
X743160D01*
Y813862D01*
X721660D01*
Y811191D01*
X680160D01*
Y825112D01*
D02*
G37*
G36*
X552752Y806045D02*
X549978Y805679D01*
X547393Y804609D01*
X545174Y802906D01*
X543471Y800686D01*
X542400Y798102D01*
X542035Y795328D01*
X542400Y792554D01*
X543471Y789970D01*
X545174Y787750D01*
X547393Y786047D01*
X549978Y784976D01*
X552752Y784611D01*
X555525Y784976D01*
X558110Y786047D01*
X560329Y787750D01*
X562033Y789970D01*
X562871Y791994D01*
X568621D01*
X597737Y762878D01*
Y714807D01*
X595267Y712338D01*
X590345D01*
Y717754D01*
X565345D01*
Y700254D01*
X574511D01*
Y686806D01*
X554297Y666592D01*
X553574Y665511D01*
X553320Y664235D01*
Y661439D01*
X550248D01*
Y647939D01*
X553320D01*
Y645954D01*
X550028D01*
Y631954D01*
X553320D01*
Y597884D01*
X549654D01*
Y584884D01*
X563654D01*
Y597884D01*
X559988D01*
Y631954D01*
X563028D01*
Y645954D01*
X560429D01*
X560171Y647224D01*
X560886Y647939D01*
X563662Y647939D01*
X564708Y647399D01*
X564794Y647399D01*
X565608D01*
X566488Y646494D01*
X566488Y646129D01*
Y640223D01*
X573528D01*
X580568D01*
Y646494D01*
X580168D01*
X579288Y647399D01*
X579288Y647764D01*
Y653419D01*
X571998D01*
Y654689D01*
X570728D01*
Y661979D01*
X564794D01*
X564708Y661979D01*
X563662Y661439D01*
X563438Y661439D01*
X559988D01*
Y662854D01*
X580202Y683068D01*
X580925Y684150D01*
X581179Y685425D01*
Y700254D01*
X590345D01*
Y705669D01*
X596648D01*
X597924Y705923D01*
X599006Y706646D01*
X603428Y711068D01*
X604151Y712150D01*
X604405Y713426D01*
Y764259D01*
X604151Y765535D01*
X603428Y766616D01*
X572359Y797685D01*
X571278Y798408D01*
X570002Y798662D01*
X562871D01*
X562033Y800686D01*
X560329Y802906D01*
X558110Y804609D01*
X555525Y805679D01*
X552752Y806045D01*
D02*
G37*
G36*
X877811Y717402D02*
Y711382D01*
X883831D01*
Y717402D01*
X877811D01*
D02*
G37*
G36*
X883831Y708842D02*
X877811D01*
Y702822D01*
X883831D01*
Y708842D01*
D02*
G37*
G36*
X709366Y691724D02*
Y684606D01*
X716484D01*
X716382Y685388D01*
X715501Y687514D01*
X714100Y689340D01*
X712274Y690741D01*
X710148Y691621D01*
X709366Y691724D01*
D02*
G37*
G36*
X706366Y691724D02*
X705585Y691621D01*
X703459Y690741D01*
X701633Y689340D01*
X700232Y687514D01*
X699352Y685388D01*
X699249Y684606D01*
X706366D01*
Y691724D01*
D02*
G37*
G36*
Y681606D02*
X699249D01*
X699352Y680825D01*
X700232Y678699D01*
X701633Y676873D01*
X703459Y675472D01*
X705585Y674591D01*
X706366Y674489D01*
Y681606D01*
D02*
G37*
G36*
X716484D02*
X709366D01*
Y674488D01*
X710148Y674591D01*
X712274Y675472D01*
X714100Y676873D01*
X715501Y678699D01*
X716382Y680825D01*
X716484Y681606D01*
D02*
G37*
G36*
X1145921Y673281D02*
X1145921Y673281D01*
X1062729D01*
X1062729Y673281D01*
X1061558Y673048D01*
X1060566Y672385D01*
X1060566Y672385D01*
X1048653Y660473D01*
X1047990Y659480D01*
X1047757Y658310D01*
X1047757Y658310D01*
Y656233D01*
X1043816D01*
Y643233D01*
X1057816D01*
Y656233D01*
X1054861D01*
X1054335Y657503D01*
X1063996Y667164D01*
X1085825D01*
X1086311Y665990D01*
X1080927Y660607D01*
X1080264Y659614D01*
X1080031Y658444D01*
X1080031Y658444D01*
Y656076D01*
X1076090D01*
Y643075D01*
X1090090D01*
Y656076D01*
X1086556D01*
X1086317Y657346D01*
X1092136Y663164D01*
X1139210D01*
X1163702Y638671D01*
Y610075D01*
X1163702Y610075D01*
X1163935Y608904D01*
X1164598Y607912D01*
X1172831Y599679D01*
X1172052Y597800D01*
X1171687Y595026D01*
X1172052Y592252D01*
X1173123Y589668D01*
X1174826Y587448D01*
X1177045Y585745D01*
X1179630Y584674D01*
X1182404Y584309D01*
X1185177Y584674D01*
X1187762Y585745D01*
X1189982Y587448D01*
X1191685Y589668D01*
X1192755Y592252D01*
X1193120Y595026D01*
X1192755Y597800D01*
X1191685Y600384D01*
X1189982Y602604D01*
X1187762Y604307D01*
X1185177Y605378D01*
X1182404Y605743D01*
X1179630Y605378D01*
X1177045Y604307D01*
X1176937Y604224D01*
X1169820Y611342D01*
Y639938D01*
X1169754Y640268D01*
X1170925Y640894D01*
X1178754Y633064D01*
Y630415D01*
X1177045Y629707D01*
X1174826Y628004D01*
X1173123Y625784D01*
X1172052Y623200D01*
X1171687Y620426D01*
X1172052Y617652D01*
X1173123Y615068D01*
X1174826Y612848D01*
X1177045Y611145D01*
X1179630Y610075D01*
X1182404Y609709D01*
X1185177Y610075D01*
X1187762Y611145D01*
X1189982Y612848D01*
X1191685Y615068D01*
X1192755Y617652D01*
X1193120Y620426D01*
X1192755Y623200D01*
X1191685Y625784D01*
X1189982Y628004D01*
X1187762Y629707D01*
X1185177Y630778D01*
X1184872Y630818D01*
Y634331D01*
X1184872Y634331D01*
X1184639Y635501D01*
X1183976Y636494D01*
X1183976Y636494D01*
X1148084Y672385D01*
X1147092Y673048D01*
X1145921Y673281D01*
D02*
G37*
G36*
X645334Y677469D02*
X639314D01*
Y671449D01*
X645334D01*
Y677469D01*
D02*
G37*
G36*
Y668909D02*
X639314D01*
Y662889D01*
X645334D01*
Y668909D01*
D02*
G37*
G36*
X709366Y666324D02*
Y659206D01*
X716484D01*
X716382Y659988D01*
X715501Y662114D01*
X714100Y663940D01*
X712274Y665341D01*
X710148Y666221D01*
X709366Y666324D01*
D02*
G37*
G36*
X706366Y666324D02*
X705585Y666221D01*
X703459Y665341D01*
X701633Y663940D01*
X700232Y662114D01*
X699352Y659988D01*
X699249Y659206D01*
X706366D01*
Y666324D01*
D02*
G37*
G36*
X496411Y663654D02*
Y657634D01*
X502431D01*
Y663654D01*
X496411D01*
D02*
G37*
G36*
X445056Y663588D02*
X439036D01*
Y657568D01*
X445056D01*
Y663588D01*
D02*
G37*
G36*
X517912Y662368D02*
X511892D01*
Y656348D01*
X517912D01*
Y662368D01*
D02*
G37*
G36*
X573268Y661979D02*
Y655959D01*
X579288D01*
Y661979D01*
X573268D01*
D02*
G37*
G36*
X762646Y662986D02*
X753876D01*
Y655216D01*
X762646D01*
Y662986D01*
D02*
G37*
G36*
X751336D02*
X742566D01*
Y655216D01*
X751336D01*
Y662986D01*
D02*
G37*
G36*
X1041856Y656773D02*
X1035586D01*
Y651003D01*
X1041856D01*
Y656773D01*
D02*
G37*
G36*
X1033046D02*
X1026776D01*
Y651003D01*
X1033046D01*
Y656773D01*
D02*
G37*
G36*
X1106665Y656713D02*
X1100396D01*
Y650943D01*
X1106665D01*
Y656713D01*
D02*
G37*
G36*
X1097856D02*
X1091585D01*
Y650943D01*
X1097856D01*
Y656713D01*
D02*
G37*
G36*
X1074130Y655116D02*
X1068110D01*
Y649096D01*
X1074130D01*
Y655116D01*
D02*
G37*
G36*
X1065570D02*
X1059550D01*
Y649096D01*
X1065570D01*
Y655116D01*
D02*
G37*
G36*
X502431Y655094D02*
X496411D01*
Y649074D01*
X502431D01*
Y655094D01*
D02*
G37*
G36*
X445056Y655028D02*
X439036D01*
Y649008D01*
X445056D01*
Y655028D01*
D02*
G37*
G36*
X517912Y653808D02*
X511892D01*
Y647788D01*
X517912D01*
Y653808D01*
D02*
G37*
G36*
X610819Y655683D02*
Y647254D01*
X619248D01*
X619101Y648375D01*
X618089Y650817D01*
X616480Y652915D01*
X614383Y654524D01*
X611940Y655536D01*
X610819Y655683D01*
D02*
G37*
G36*
X607819D02*
X606698Y655536D01*
X604256Y654524D01*
X602159Y652915D01*
X600549Y650817D01*
X599538Y648375D01*
X599390Y647254D01*
X607819D01*
Y655683D01*
D02*
G37*
G36*
X835391Y652332D02*
Y646312D01*
X841410D01*
Y652332D01*
X835391D01*
D02*
G37*
G36*
X1041856Y648463D02*
X1035586D01*
Y642693D01*
X1041856D01*
Y648463D01*
D02*
G37*
G36*
X1033046D02*
X1026776D01*
Y642693D01*
X1033046D01*
Y648463D01*
D02*
G37*
G36*
X1106665Y648403D02*
X1100396D01*
Y642633D01*
X1106665D01*
Y648403D01*
D02*
G37*
G36*
X1097856D02*
X1091585D01*
Y642633D01*
X1097856D01*
Y648403D01*
D02*
G37*
G36*
X504348Y647351D02*
X498578D01*
Y641081D01*
X504348D01*
Y647351D01*
D02*
G37*
G36*
X451579D02*
X445809D01*
Y641081D01*
X451579D01*
Y647351D01*
D02*
G37*
G36*
X443269D02*
X437499D01*
Y641081D01*
X443269D01*
Y647351D01*
D02*
G37*
G36*
X496038D02*
X490268D01*
Y641081D01*
X496038D01*
Y647351D01*
D02*
G37*
G36*
X524486Y646482D02*
X518716D01*
Y640212D01*
X524486D01*
Y646482D01*
D02*
G37*
G36*
X516176D02*
X510406D01*
Y640212D01*
X516176D01*
Y646482D01*
D02*
G37*
G36*
X841410Y643772D02*
X835391D01*
Y637752D01*
X841410D01*
Y643772D01*
D02*
G37*
G36*
X634719Y655336D02*
X632239Y655010D01*
X629928Y654052D01*
X627944Y652530D01*
X626421Y650545D01*
X625464Y648234D01*
X625137Y645754D01*
X625464Y643274D01*
X626421Y640963D01*
X627944Y638979D01*
X629928Y637456D01*
X632239Y636498D01*
X634719Y636172D01*
X637199Y636498D01*
X639510Y637456D01*
X641495Y638979D01*
X643018Y640963D01*
X643975Y643274D01*
X644301Y645754D01*
X643975Y648234D01*
X643018Y650545D01*
X641495Y652530D01*
X639510Y654052D01*
X637199Y655010D01*
X634719Y655336D01*
D02*
G37*
G36*
X619248Y644254D02*
X610819D01*
Y635825D01*
X611940Y635972D01*
X614383Y636984D01*
X616480Y638593D01*
X618089Y640691D01*
X619101Y643133D01*
X619248Y644254D01*
D02*
G37*
G36*
X607819D02*
X599390D01*
X599538Y643133D01*
X600549Y640691D01*
X602159Y638593D01*
X604256Y636984D01*
X606698Y635972D01*
X607819Y635825D01*
Y644254D01*
D02*
G37*
G36*
X1025257Y640101D02*
X1018987D01*
Y634331D01*
X1025257D01*
Y640101D01*
D02*
G37*
G36*
X1016447D02*
X1010177D01*
Y634331D01*
X1016447D01*
Y640101D01*
D02*
G37*
G36*
X976257D02*
X969987D01*
Y634331D01*
X976257D01*
Y640101D01*
D02*
G37*
G36*
X967447D02*
X961177D01*
Y634331D01*
X967447D01*
Y640101D01*
D02*
G37*
G36*
X504348Y638541D02*
X498578D01*
Y632271D01*
X504348D01*
Y638541D01*
D02*
G37*
G36*
X496038D02*
X490268D01*
Y632271D01*
X496038D01*
Y638541D01*
D02*
G37*
G36*
X451579D02*
X445809D01*
Y632271D01*
X451579D01*
Y638541D01*
D02*
G37*
G36*
X443269D02*
X437499D01*
Y632271D01*
X443269D01*
Y638541D01*
D02*
G37*
G36*
X580568Y637683D02*
X574798D01*
Y631414D01*
X580568D01*
Y637683D01*
D02*
G37*
G36*
X572258D02*
X566488D01*
Y631414D01*
X572258D01*
Y637683D01*
D02*
G37*
G36*
X524486Y637672D02*
X518716D01*
Y631403D01*
X524486D01*
Y637672D01*
D02*
G37*
G36*
X516176D02*
X510406D01*
Y631403D01*
X516176D01*
Y637672D01*
D02*
G37*
G36*
X1025257Y631791D02*
X1018987D01*
Y626021D01*
X1025257D01*
Y631791D01*
D02*
G37*
G36*
X1016447D02*
X1010177D01*
Y626021D01*
X1016447D01*
Y631791D01*
D02*
G37*
G36*
X976257D02*
X969987D01*
Y626021D01*
X976257D01*
Y631791D01*
D02*
G37*
G36*
X967447D02*
X961177D01*
Y626021D01*
X967447D01*
Y631791D01*
D02*
G37*
G36*
X636219Y630283D02*
Y621854D01*
X644648D01*
X644501Y622975D01*
X643489Y625417D01*
X641880Y627515D01*
X639783Y629124D01*
X637340Y630136D01*
X636219Y630283D01*
D02*
G37*
G36*
X633219D02*
X632098Y630136D01*
X629656Y629124D01*
X627559Y627515D01*
X625949Y625417D01*
X624938Y622975D01*
X624790Y621854D01*
X633219D01*
Y630283D01*
D02*
G37*
G36*
X644648Y618854D02*
X636219D01*
Y610425D01*
X637340Y610572D01*
X639783Y611584D01*
X641880Y613193D01*
X643489Y615291D01*
X644501Y617733D01*
X644648Y618854D01*
D02*
G37*
G36*
X633219D02*
X624790D01*
X624938Y617733D01*
X625949Y615291D01*
X627559Y613193D01*
X629656Y611584D01*
X632098Y610572D01*
X633219Y610425D01*
Y618854D01*
D02*
G37*
G36*
X1008217Y639561D02*
X994217D01*
Y626561D01*
X997628D01*
Y620305D01*
X996721Y619700D01*
X995506Y617880D01*
X995079Y615734D01*
X995506Y613588D01*
X996721Y611769D01*
X998540Y610553D01*
X1000686Y610126D01*
X1002832Y610553D01*
X1004652Y611769D01*
X1005867Y613588D01*
X1006294Y615734D01*
X1005867Y617880D01*
X1004652Y619700D01*
X1003745Y620305D01*
Y626561D01*
X1008217D01*
Y639561D01*
D02*
G37*
G36*
X991967Y639561D02*
X977967D01*
Y626561D01*
X981916D01*
Y618472D01*
X981746Y618358D01*
X980531Y616539D01*
X980104Y614393D01*
X980531Y612247D01*
X981746Y610428D01*
X983566Y609212D01*
X985712Y608785D01*
X987858Y609212D01*
X989677Y610428D01*
X990892Y612247D01*
X991319Y614393D01*
X990892Y616539D01*
X989677Y618358D01*
X988584Y619089D01*
Y626561D01*
X991967D01*
Y639561D01*
D02*
G37*
G36*
X873750Y602889D02*
X871604Y602462D01*
X869785Y601247D01*
X868569Y599427D01*
X868142Y597281D01*
X868569Y595135D01*
X869785Y593316D01*
X871604Y592100D01*
X873750Y591674D01*
X875896Y592100D01*
X877715Y593316D01*
X878414Y594362D01*
X885345D01*
Y591971D01*
X884805D01*
Y589201D01*
X904635D01*
Y591971D01*
X904095D01*
Y598891D01*
X904635D01*
Y601661D01*
X884805D01*
Y601499D01*
X877337D01*
X875896Y602462D01*
X873750Y602889D01*
D02*
G37*
G36*
X1207804Y605743D02*
X1205030Y605378D01*
X1202445Y604307D01*
X1200226Y602604D01*
X1198523Y600384D01*
X1197452Y597800D01*
X1197087Y595026D01*
X1197452Y592252D01*
X1198523Y589668D01*
X1200226Y587448D01*
X1202445Y585745D01*
X1205030Y584674D01*
X1207804Y584309D01*
X1210577Y584674D01*
X1213162Y585745D01*
X1215381Y587448D01*
X1217085Y589668D01*
X1218155Y592252D01*
X1218520Y595026D01*
X1218155Y597800D01*
X1217085Y600384D01*
X1215381Y602604D01*
X1213162Y604307D01*
X1210577Y605378D01*
X1207804Y605743D01*
D02*
G37*
G36*
X1052698Y802778D02*
X988010D01*
X986742Y802526D01*
X985667Y801807D01*
X975112Y791252D01*
X974393Y790177D01*
X974141Y788909D01*
Y783461D01*
X970455D01*
Y770461D01*
X984455D01*
Y783461D01*
X980768D01*
Y787536D01*
X989383Y796151D01*
X1009159D01*
X1009645Y794977D01*
X1007374Y792705D01*
X1006655Y791630D01*
X1006403Y790362D01*
Y783311D01*
X1002717D01*
Y770311D01*
X1016717D01*
Y783311D01*
X1013030D01*
Y788990D01*
X1015054Y791014D01*
X1050098D01*
X1204490Y636622D01*
Y630554D01*
X1202445Y629707D01*
X1200226Y628004D01*
X1198523Y625784D01*
X1197452Y623200D01*
X1197087Y620426D01*
X1197452Y617652D01*
X1198523Y615068D01*
X1200226Y612848D01*
X1202445Y611145D01*
X1205030Y610075D01*
X1207804Y609709D01*
X1210577Y610075D01*
X1213162Y611145D01*
X1215381Y612848D01*
X1217085Y615068D01*
X1218155Y617652D01*
X1218520Y620426D01*
X1218155Y623200D01*
X1217085Y625784D01*
X1215381Y628004D01*
X1213162Y629707D01*
X1211117Y630554D01*
Y637994D01*
X1210865Y639263D01*
X1210147Y640338D01*
X1120281Y730204D01*
X1120767Y731377D01*
X1192480D01*
X1192486Y731330D01*
X1193784Y728198D01*
X1195847Y725508D01*
X1198537Y723445D01*
X1198617Y723411D01*
X1198369Y722166D01*
X1192155D01*
Y696416D01*
X1217905D01*
Y702321D01*
X1219175Y702847D01*
X1236023Y685999D01*
Y586108D01*
X1224639Y574724D01*
X1218429D01*
Y580251D01*
X1197179D01*
Y559001D01*
X1218429D01*
Y564528D01*
X1226750D01*
X1228701Y564916D01*
X1230355Y566021D01*
X1244726Y580392D01*
X1245831Y582046D01*
X1246219Y583997D01*
Y688111D01*
X1245831Y690061D01*
X1244726Y691715D01*
X1223891Y712550D01*
X1222237Y713655D01*
X1220286Y714043D01*
X1217905D01*
Y722166D01*
X1211691D01*
X1211443Y723411D01*
X1211523Y723445D01*
X1214212Y725508D01*
X1216276Y728198D01*
X1217574Y731330D01*
X1218016Y734691D01*
X1217574Y738052D01*
X1216276Y741184D01*
X1214212Y743873D01*
X1211523Y745937D01*
X1210252Y746463D01*
Y747734D01*
X1211795Y748373D01*
X1214598Y750523D01*
X1216748Y753325D01*
X1218100Y756589D01*
X1218363Y758591D01*
X1205030D01*
X1191697D01*
X1191960Y756589D01*
X1193312Y753325D01*
X1195462Y750523D01*
X1198265Y748373D01*
X1199808Y747734D01*
Y746463D01*
X1198537Y745937D01*
X1195847Y743873D01*
X1193784Y741184D01*
X1192486Y738052D01*
X1192480Y738004D01*
X1118844D01*
X1055041Y801807D01*
X1053966Y802526D01*
X1053756Y802568D01*
X1052698Y802778D01*
D02*
G37*
G36*
X1183903Y580690D02*
Y571126D01*
X1193468D01*
X1193281Y572541D01*
X1192156Y575257D01*
X1190367Y577589D01*
X1188034Y579379D01*
X1185318Y580504D01*
X1183903Y580690D01*
D02*
G37*
G36*
X1180903Y580690D02*
X1179489Y580504D01*
X1176773Y579379D01*
X1174441Y577589D01*
X1172651Y575257D01*
X1171526Y572541D01*
X1171340Y571126D01*
X1180903D01*
Y580690D01*
D02*
G37*
G36*
X929361Y574971D02*
Y568951D01*
X935380D01*
Y574971D01*
X929361D01*
D02*
G37*
G36*
X935380Y566411D02*
X929361D01*
Y560391D01*
X935380D01*
Y566411D01*
D02*
G37*
G36*
X1180903Y568126D02*
X1171340D01*
X1171526Y566711D01*
X1172651Y563995D01*
X1174441Y561663D01*
X1176773Y559874D01*
X1179489Y558749D01*
X1180903Y558562D01*
Y568126D01*
D02*
G37*
G36*
X1193467D02*
X1183903D01*
Y558562D01*
X1185318Y558749D01*
X1188034Y559874D01*
X1190367Y561663D01*
X1192156Y563995D01*
X1193281Y566711D01*
X1193467Y568126D01*
D02*
G37*
G36*
X874370Y538539D02*
X872224Y538112D01*
X870405Y536896D01*
X869189Y535077D01*
X868762Y532931D01*
X869189Y530785D01*
X870405Y528965D01*
X872224Y527750D01*
X874370Y527323D01*
X876516Y527750D01*
X878335Y528965D01*
X878600Y529362D01*
X885345D01*
Y526971D01*
X884805D01*
Y524201D01*
X904635D01*
Y526971D01*
X904095D01*
Y533891D01*
X904635D01*
Y536661D01*
X884805D01*
Y536499D01*
X878600D01*
X878335Y536896D01*
X876516Y538112D01*
X874370Y538539D01*
D02*
G37*
G36*
X618819Y629854D02*
X599819D01*
Y610854D01*
X605751D01*
Y570687D01*
X606022Y569322D01*
X606796Y568164D01*
X610590Y564370D01*
X603551Y557330D01*
X601463Y555243D01*
X596480Y550259D01*
X589409Y543188D01*
X585873Y539652D01*
X578802Y532581D01*
X576715Y530494D01*
X569509Y523288D01*
X559988Y532810D01*
Y567884D01*
X563654D01*
Y580884D01*
X549654D01*
Y567884D01*
X553320D01*
Y534066D01*
X552147Y533580D01*
X538004Y547723D01*
Y567931D01*
X541670D01*
Y580931D01*
X527670D01*
Y567931D01*
X531336D01*
Y546342D01*
X531590Y545066D01*
X532313Y543984D01*
X561259Y515038D01*
X559032Y512812D01*
X536513Y535331D01*
X535431Y536054D01*
X534155Y536308D01*
X506905D01*
X483475Y559737D01*
Y568336D01*
X487141D01*
Y581336D01*
X473141D01*
Y568336D01*
X476807D01*
Y558356D01*
X477061Y557080D01*
X477784Y555999D01*
X502220Y531562D01*
X501694Y530292D01*
X494446D01*
X464661Y560078D01*
Y568336D01*
X468326D01*
Y581336D01*
X454327D01*
Y568336D01*
X457993D01*
Y558697D01*
X458246Y557421D01*
X458969Y556339D01*
X490707Y524601D01*
X491789Y523878D01*
X493065Y523624D01*
X530747D01*
X530873Y523436D01*
X530195Y522166D01*
X505235D01*
X503959Y521912D01*
X502877Y521189D01*
X488510Y506822D01*
X486272Y509061D01*
X476372Y499161D01*
X485564Y489969D01*
X488157Y492561D01*
X490679Y490039D01*
X488407Y487768D01*
X497599Y478575D01*
X507499Y488475D01*
X498307Y497667D01*
X495394Y494754D01*
X492872Y497276D01*
X495464Y499869D01*
X493225Y502107D01*
X506616Y515498D01*
X532515D01*
X547117Y500896D01*
X543447Y497226D01*
X539911Y493690D01*
X534670Y488449D01*
X534288Y488831D01*
X532313Y486855D01*
X538329Y480839D01*
X544346Y474822D01*
X546322Y476798D01*
X545940Y477179D01*
X552629Y483869D01*
X561788Y493027D01*
X565323Y496563D01*
X572394Y503634D01*
X577378Y508617D01*
X583001Y514240D01*
X586536Y517776D01*
X593607Y524847D01*
X598591Y529831D01*
X607750Y538989D01*
X611285Y542525D01*
X618356Y549596D01*
X623340Y554579D01*
X626875Y558115D01*
X616889Y568101D01*
X616762Y568291D01*
X612888Y572165D01*
Y610854D01*
X618819D01*
Y629854D01*
D02*
G37*
G36*
X1015163Y522439D02*
X1008893D01*
Y516669D01*
X1015163D01*
Y522439D01*
D02*
G37*
G36*
X1006353D02*
X1000083D01*
Y516669D01*
X1006353D01*
Y522439D01*
D02*
G37*
G36*
X966180Y522170D02*
X959910D01*
Y516400D01*
X966180D01*
Y522170D01*
D02*
G37*
G36*
X957370D02*
X951100D01*
Y516400D01*
X957370D01*
Y522170D01*
D02*
G37*
G36*
X998496Y520920D02*
X992476D01*
Y514900D01*
X998496D01*
Y520920D01*
D02*
G37*
G36*
X989936D02*
X983916D01*
Y514900D01*
X989936D01*
Y520920D01*
D02*
G37*
G36*
X474251Y521846D02*
X469817Y517412D01*
X473897Y513332D01*
X478331Y517766D01*
X474251Y521846D01*
D02*
G37*
G36*
X1024111Y533354D02*
X1021965Y532927D01*
X1020146Y531712D01*
X1018931Y529892D01*
X1018504Y527746D01*
X1018931Y525600D01*
X1020146Y523781D01*
X1020798Y523346D01*
Y522149D01*
X1017873D01*
Y509149D01*
X1031873D01*
Y522149D01*
X1027425D01*
Y523346D01*
X1028077Y523781D01*
X1029292Y525600D01*
X1029719Y527746D01*
X1029292Y529892D01*
X1028077Y531712D01*
X1026257Y532927D01*
X1024111Y533354D01*
D02*
G37*
G36*
X974468Y532858D02*
X972322Y532431D01*
X970502Y531215D01*
X969287Y529396D01*
X968860Y527250D01*
X969287Y525104D01*
X970502Y523285D01*
X970965Y522976D01*
X970937Y521706D01*
X967926D01*
Y508706D01*
X981926D01*
Y521706D01*
X977998D01*
X977970Y522976D01*
X978433Y523285D01*
X979648Y525104D01*
X980075Y527250D01*
X979648Y529396D01*
X978433Y531215D01*
X976614Y532431D01*
X974468Y532858D01*
D02*
G37*
G36*
X1015163Y514129D02*
X1008893D01*
Y508359D01*
X1015163D01*
Y514129D01*
D02*
G37*
G36*
X1006353D02*
X1000083D01*
Y508359D01*
X1006353D01*
Y514129D01*
D02*
G37*
G36*
X966180Y513860D02*
X959910D01*
Y508090D01*
X966180D01*
Y513860D01*
D02*
G37*
G36*
X957370D02*
X951100D01*
Y508090D01*
X957370D01*
Y513860D01*
D02*
G37*
G36*
X480127Y515970D02*
X475693Y511536D01*
X479773Y507456D01*
X484207Y511889D01*
X480127Y515970D01*
D02*
G37*
G36*
X468021Y515616D02*
X463588Y511182D01*
X467668Y507103D01*
X472101Y511536D01*
X468021Y515616D01*
D02*
G37*
G36*
X473897Y509740D02*
X469464Y505306D01*
X473544Y501226D01*
X477977Y505660D01*
X473897Y509740D01*
D02*
G37*
G36*
X511575Y509493D02*
X507318Y505236D01*
X511574Y500979D01*
X515831Y505236D01*
X511575Y509493D01*
D02*
G37*
G36*
X1049085Y505563D02*
X1042815D01*
Y499793D01*
X1049085D01*
Y505563D01*
D02*
G37*
G36*
X1040275D02*
X1034005D01*
Y499793D01*
X1040275D01*
Y505563D01*
D02*
G37*
G36*
X1097661Y505473D02*
X1091391D01*
Y499703D01*
X1097661D01*
Y505473D01*
D02*
G37*
G36*
X1088851D02*
X1082581D01*
Y499703D01*
X1088851D01*
Y505473D01*
D02*
G37*
G36*
X505522Y503440D02*
X501265Y499183D01*
X505521Y494926D01*
X509778Y499184D01*
X505522Y503440D01*
D02*
G37*
G36*
X1049085Y497253D02*
X1042815D01*
Y491483D01*
X1049085D01*
Y497253D01*
D02*
G37*
G36*
X1040275D02*
X1034005D01*
Y491483D01*
X1040275D01*
Y497253D01*
D02*
G37*
G36*
X1097661Y497163D02*
X1091391D01*
Y491393D01*
X1097661D01*
Y497163D01*
D02*
G37*
G36*
X1088851D02*
X1082581D01*
Y491393D01*
X1088851D01*
Y497163D01*
D02*
G37*
G36*
X820260Y479263D02*
X814240D01*
Y473242D01*
X820260D01*
Y479263D01*
D02*
G37*
G36*
X911282Y478314D02*
Y472294D01*
X917301D01*
Y478314D01*
X911282D01*
D02*
G37*
G36*
X1080912Y504931D02*
X1066913D01*
Y491931D01*
X1070854D01*
Y471292D01*
X1069584Y470766D01*
X1060721Y479629D01*
Y491931D01*
X1064662D01*
Y504931D01*
X1050663D01*
Y491931D01*
X1054604D01*
Y478362D01*
X1054604Y478362D01*
X1054837Y477191D01*
X1055500Y476199D01*
X1113657Y418042D01*
X1113171Y416868D01*
X1059165D01*
X1059165Y416868D01*
X1057995Y416636D01*
X1057002Y415972D01*
X1057002Y415972D01*
X1046486Y405456D01*
X1045823Y404463D01*
X1045590Y403293D01*
X1045590Y403292D01*
Y399931D01*
X1041648D01*
Y386931D01*
X1055648D01*
Y399931D01*
X1051707D01*
Y402026D01*
X1060432Y410751D01*
X1084369D01*
X1084855Y409577D01*
X1078688Y403410D01*
X1078024Y402418D01*
X1077792Y401247D01*
X1077792Y401247D01*
Y399830D01*
X1073850D01*
Y386830D01*
X1087850D01*
Y399830D01*
X1085555D01*
X1085029Y401100D01*
X1090477Y406548D01*
X1112376D01*
X1141031Y377893D01*
Y344478D01*
X1141031Y344478D01*
X1141264Y343308D01*
X1141927Y342315D01*
X1165285Y318958D01*
X1166277Y318295D01*
X1167448Y318062D01*
X1171564D01*
X1172517Y315763D01*
X1174220Y313543D01*
X1176439Y311840D01*
X1179024Y310769D01*
X1181798Y310404D01*
X1184571Y310769D01*
X1187156Y311840D01*
X1189376Y313543D01*
X1191079Y315763D01*
X1192149Y318347D01*
X1192514Y321121D01*
X1192149Y323895D01*
X1191079Y326479D01*
X1189400Y328667D01*
X1189465Y329137D01*
X1189737Y329937D01*
X1194056D01*
X1197799Y326194D01*
X1196846Y323895D01*
X1196481Y321121D01*
X1196846Y318347D01*
X1197917Y315763D01*
X1199620Y313543D01*
X1201839Y311840D01*
X1204424Y310769D01*
X1207198Y310404D01*
X1209971Y310769D01*
X1212556Y311840D01*
X1214776Y313543D01*
X1216479Y315763D01*
X1217549Y318347D01*
X1217915Y321121D01*
X1217549Y323895D01*
X1216479Y326479D01*
X1214776Y328699D01*
X1212556Y330402D01*
X1209971Y331473D01*
X1207198Y331838D01*
X1204424Y331473D01*
X1202124Y330520D01*
X1197486Y335159D01*
X1196493Y335822D01*
X1195323Y336055D01*
X1195323Y336055D01*
X1188161D01*
X1187968Y336298D01*
X1188173Y338020D01*
X1189376Y338943D01*
X1191079Y341163D01*
X1192149Y343747D01*
X1192514Y346521D01*
X1192149Y349295D01*
X1191079Y351879D01*
X1189376Y354099D01*
X1187694Y355389D01*
X1188125Y356659D01*
X1192734D01*
X1197799Y351594D01*
X1196846Y349295D01*
X1196481Y346521D01*
X1196846Y343747D01*
X1197917Y341163D01*
X1199620Y338943D01*
X1201839Y337240D01*
X1204424Y336169D01*
X1207198Y335804D01*
X1209971Y336169D01*
X1212556Y337240D01*
X1214776Y338943D01*
X1216479Y341163D01*
X1217549Y343747D01*
X1217915Y346521D01*
X1217549Y349295D01*
X1216479Y351879D01*
X1214776Y354099D01*
X1212556Y355802D01*
X1209971Y356872D01*
X1207198Y357238D01*
X1204424Y356872D01*
X1202124Y355920D01*
X1196164Y361881D01*
X1195171Y362544D01*
X1194001Y362777D01*
X1194001Y362777D01*
X1189310D01*
X1188902Y363979D01*
X1189376Y364343D01*
X1191079Y366563D01*
X1192149Y369147D01*
X1192514Y371921D01*
X1192149Y374695D01*
X1191079Y377279D01*
X1189376Y379499D01*
X1187156Y381202D01*
X1184571Y382272D01*
X1181798Y382638D01*
X1179024Y382272D01*
X1176439Y381202D01*
X1174220Y379499D01*
X1172517Y377279D01*
X1171446Y374695D01*
X1171081Y371921D01*
X1171446Y369147D01*
X1172517Y366563D01*
X1174220Y364343D01*
X1174694Y363979D01*
X1174286Y362777D01*
X1168028D01*
X1159541Y371264D01*
Y386994D01*
X1159308Y388165D01*
X1158645Y389157D01*
X1158645Y389157D01*
X1076971Y470831D01*
Y491931D01*
X1080912D01*
Y504931D01*
D02*
G37*
G36*
X484185Y473112D02*
X475415D01*
Y469092D01*
X484185D01*
Y473112D01*
D02*
G37*
G36*
X472875D02*
X464105D01*
Y469092D01*
X472875D01*
Y473112D01*
D02*
G37*
G36*
X820260Y470703D02*
X814240D01*
Y464683D01*
X820260D01*
Y470703D01*
D02*
G37*
G36*
X1256811Y470442D02*
X1250791D01*
Y464421D01*
X1256811D01*
Y470442D01*
D02*
G37*
G36*
X1248251D02*
X1242231D01*
Y464421D01*
X1248251D01*
Y470442D01*
D02*
G37*
G36*
X917301Y469754D02*
X911282D01*
Y463734D01*
X917301D01*
Y469754D01*
D02*
G37*
G36*
X828820Y479263D02*
X828734Y479263D01*
X822800D01*
Y471973D01*
Y464683D01*
X828734D01*
X828820Y464683D01*
X829867Y465223D01*
X830090Y465223D01*
X831942D01*
Y459613D01*
X827341D01*
Y449613D01*
X845801D01*
Y446383D01*
X855841D01*
X865881D01*
Y449825D01*
X888031D01*
Y449214D01*
X890177D01*
Y447791D01*
X889318Y446506D01*
X888891Y444360D01*
X889318Y442214D01*
X889806Y441484D01*
X889127Y440214D01*
X888031D01*
Y430214D01*
X891462D01*
Y425195D01*
X888230D01*
Y421533D01*
X878411D01*
X878146Y421929D01*
X876327Y423145D01*
X874181Y423572D01*
X872035Y423145D01*
X870216Y421929D01*
X869000Y420110D01*
X868573Y417964D01*
X869000Y415818D01*
X870216Y413999D01*
X872035Y412783D01*
X874181Y412356D01*
X876327Y412783D01*
X878146Y413999D01*
X878411Y414395D01*
X888230D01*
Y411695D01*
X891411D01*
Y405365D01*
X886095D01*
Y395905D01*
X885555D01*
Y393135D01*
X905385D01*
Y395905D01*
X904845D01*
Y405365D01*
X898548D01*
Y410797D01*
X899446Y411695D01*
X901643Y411695D01*
X902690Y411155D01*
X902776Y411155D01*
X908710D01*
Y418444D01*
Y425735D01*
X902776D01*
X902690Y425735D01*
X901643Y425195D01*
X901420Y425195D01*
X898600D01*
Y430214D01*
X902031D01*
Y440214D01*
X899871D01*
X899192Y441484D01*
X899680Y442214D01*
X900107Y444360D01*
X899680Y446506D01*
X899353Y446995D01*
Y449214D01*
X902031D01*
Y449626D01*
X914991D01*
Y445984D01*
X922531D01*
X930071D01*
Y450254D01*
X929531D01*
Y459214D01*
X915531D01*
Y458802D01*
X902031D01*
Y459214D01*
X899609D01*
Y463376D01*
X900507Y464274D01*
X901675Y464274D01*
X902721Y463734D01*
X902807Y463734D01*
X908742D01*
Y471024D01*
Y478314D01*
X902807D01*
X902721Y478314D01*
X901675Y477774D01*
X901451Y477774D01*
X888261D01*
Y464274D01*
X890433D01*
Y459214D01*
X888031D01*
Y459002D01*
X846341D01*
Y459613D01*
X841118D01*
Y465223D01*
X843280D01*
Y478722D01*
X830090D01*
X829867Y478723D01*
X828820Y479263D01*
D02*
G37*
G36*
X393769Y511895D02*
X391623Y511468D01*
X389804Y510252D01*
X388588Y508433D01*
X388161Y506287D01*
X388588Y504141D01*
X389804Y502322D01*
X391623Y501106D01*
X391769Y501077D01*
X415047Y477799D01*
Y472572D01*
X410645D01*
Y463072D01*
X418396D01*
X420145Y462724D01*
X421895Y463072D01*
X429645D01*
Y472572D01*
X425243D01*
Y479911D01*
X424855Y481861D01*
X423750Y483515D01*
X398979Y508287D01*
X398950Y508433D01*
X397734Y510252D01*
X395915Y511468D01*
X393769Y511895D01*
D02*
G37*
G36*
X484185Y466553D02*
X475415D01*
Y462532D01*
X484185D01*
Y466553D01*
D02*
G37*
G36*
X472875D02*
X464105D01*
Y462532D01*
X472875D01*
Y466553D01*
D02*
G37*
G36*
X483645Y459872D02*
X464645D01*
Y450372D01*
X483645D01*
Y459872D01*
D02*
G37*
G36*
X429645D02*
X410645D01*
Y450372D01*
X429645D01*
Y459872D01*
D02*
G37*
G36*
X865881Y443843D02*
X857111D01*
Y439573D01*
X865881D01*
Y443843D01*
D02*
G37*
G36*
X854571D02*
X845801D01*
X845801Y440619D01*
X845801Y440613D01*
X845785Y440613D01*
X845785Y440613D01*
X827341D01*
Y438927D01*
X824422D01*
Y441984D01*
X810922D01*
Y438927D01*
X808634D01*
Y442003D01*
X795134D01*
Y438314D01*
X793151D01*
X792715Y438965D01*
X790896Y440181D01*
X788750Y440608D01*
X786604Y440181D01*
X784785Y438965D01*
X783569Y437146D01*
X783142Y435000D01*
X783569Y432854D01*
X784785Y431035D01*
X786604Y429819D01*
X788750Y429392D01*
X790896Y429819D01*
X792715Y431035D01*
X793151Y431686D01*
X795134D01*
Y428503D01*
X808634D01*
Y432299D01*
X810922D01*
Y428484D01*
X824422D01*
Y432299D01*
X827341D01*
Y430613D01*
X846341D01*
X846341Y439566D01*
X846341Y439573D01*
X846356Y439573D01*
Y439573D01*
X854571D01*
Y443843D01*
D02*
G37*
G36*
X483645Y447172D02*
X464645D01*
Y437672D01*
X483645D01*
Y447172D01*
D02*
G37*
G36*
X429645D02*
X410645D01*
Y437672D01*
X429645D01*
Y447172D01*
D02*
G37*
G36*
X1208698Y433785D02*
Y424221D01*
X1218262D01*
X1218075Y425636D01*
X1216950Y428352D01*
X1215161Y430684D01*
X1212828Y432473D01*
X1210112Y433599D01*
X1208698Y433785D01*
D02*
G37*
G36*
X1183298D02*
Y424221D01*
X1192862D01*
X1192675Y425636D01*
X1191550Y428352D01*
X1189761Y430684D01*
X1187428Y432473D01*
X1184712Y433599D01*
X1183298Y433785D01*
D02*
G37*
G36*
X1205698Y433785D02*
X1204283Y433599D01*
X1201567Y432473D01*
X1199235Y430684D01*
X1197445Y428352D01*
X1196320Y425636D01*
X1196134Y424221D01*
X1205698D01*
Y433785D01*
D02*
G37*
G36*
X1180298D02*
X1178883Y433599D01*
X1176167Y432473D01*
X1173835Y430684D01*
X1172045Y428352D01*
X1170920Y425636D01*
X1170734Y424221D01*
X1180298D01*
Y433785D01*
D02*
G37*
G36*
X803440Y426405D02*
X797420D01*
Y420385D01*
X803440D01*
Y426405D01*
D02*
G37*
G36*
X911250Y425735D02*
Y419714D01*
X917270D01*
Y425735D01*
X911250D01*
D02*
G37*
G36*
X1132000Y602108D02*
X1129854Y601681D01*
X1128035Y600465D01*
X1126819Y598646D01*
X1126392Y596500D01*
X1126819Y594354D01*
X1127412Y593467D01*
Y479861D01*
X1127761Y478105D01*
X1128756Y476616D01*
X1160495Y444877D01*
X1161984Y443882D01*
X1163740Y443533D01*
X1172198D01*
X1172517Y442763D01*
X1174220Y440543D01*
X1176439Y438840D01*
X1179024Y437769D01*
X1181798Y437404D01*
X1184571Y437769D01*
X1187156Y438840D01*
X1189376Y440543D01*
X1191079Y442763D01*
X1191404Y443548D01*
X1197591D01*
X1197917Y442763D01*
X1199620Y440543D01*
X1201839Y438840D01*
X1204424Y437769D01*
X1207198Y437404D01*
X1209971Y437769D01*
X1212556Y438840D01*
X1214776Y440543D01*
X1216479Y442763D01*
X1216804Y443548D01*
X1242771D01*
Y441402D01*
X1244933D01*
Y439402D01*
X1242771D01*
Y426212D01*
X1242771Y425988D01*
X1242231Y424942D01*
X1242231Y424855D01*
Y418922D01*
X1249521D01*
X1256811D01*
Y424855D01*
X1256811Y424942D01*
X1256271Y425988D01*
X1256271Y426212D01*
Y439402D01*
X1254109D01*
Y441402D01*
X1256271D01*
Y454592D01*
X1256271Y454815D01*
X1256811Y455862D01*
X1256811Y455948D01*
Y461881D01*
X1249521D01*
X1242231D01*
Y455948D01*
X1242231Y455862D01*
X1242771Y454815D01*
X1242771Y454592D01*
Y452724D01*
X1216791D01*
X1216479Y453479D01*
X1214776Y455699D01*
X1212556Y457402D01*
X1209971Y458473D01*
X1207198Y458838D01*
X1204424Y458473D01*
X1201839Y457402D01*
X1199620Y455699D01*
X1197917Y453479D01*
X1197604Y452724D01*
X1191391D01*
X1191079Y453479D01*
X1189376Y455699D01*
X1187156Y457402D01*
X1184571Y458473D01*
X1181798Y458838D01*
X1179024Y458473D01*
X1176439Y457402D01*
X1174220Y455699D01*
X1172517Y453479D01*
X1172198Y452709D01*
X1165640D01*
X1136588Y481761D01*
Y593467D01*
X1137181Y594354D01*
X1137608Y596500D01*
X1137181Y598646D01*
X1135965Y600465D01*
X1134146Y601681D01*
X1132000Y602108D01*
D02*
G37*
G36*
X803440Y417845D02*
X797420D01*
Y411825D01*
X803440D01*
Y417845D01*
D02*
G37*
G36*
X1205698Y421221D02*
X1196134D01*
X1196320Y419806D01*
X1197445Y417090D01*
X1199235Y414758D01*
X1201567Y412968D01*
X1204283Y411843D01*
X1205698Y411657D01*
Y421221D01*
D02*
G37*
G36*
X1180298D02*
X1170734D01*
X1170920Y419806D01*
X1172045Y417090D01*
X1173835Y414758D01*
X1176167Y412968D01*
X1178883Y411843D01*
X1180298Y411657D01*
Y421221D01*
D02*
G37*
G36*
X1218262D02*
X1208698D01*
Y411657D01*
X1210112Y411843D01*
X1212828Y412968D01*
X1215161Y414758D01*
X1216950Y417090D01*
X1218075Y419806D01*
X1218262Y421221D01*
D02*
G37*
G36*
X1192862D02*
X1183298D01*
Y411657D01*
X1184712Y411843D01*
X1187428Y412968D01*
X1189761Y414758D01*
X1191550Y417090D01*
X1192675Y419806D01*
X1192862Y421221D01*
D02*
G37*
G36*
X917270Y417174D02*
X911250D01*
Y411155D01*
X917270D01*
Y417174D01*
D02*
G37*
G36*
X1256811Y416382D02*
X1250791D01*
Y410362D01*
X1256811D01*
Y416382D01*
D02*
G37*
G36*
X1248251D02*
X1242231D01*
Y410362D01*
X1248251D01*
Y416382D01*
D02*
G37*
G36*
X521404Y414209D02*
X517147Y409952D01*
X521404Y405695D01*
X525660Y409952D01*
X521404Y414209D01*
D02*
G37*
G36*
X527457Y408156D02*
X523200Y403899D01*
X527457Y399642D01*
X531713Y403899D01*
X527457Y408156D01*
D02*
G37*
G36*
X1208698Y408385D02*
Y398821D01*
X1218262D01*
X1218075Y400236D01*
X1216950Y402952D01*
X1215161Y405284D01*
X1212828Y407074D01*
X1210112Y408199D01*
X1208698Y408385D01*
D02*
G37*
G36*
X1205698Y408385D02*
X1204283Y408199D01*
X1201567Y407074D01*
X1199235Y405284D01*
X1197445Y402952D01*
X1196320Y400236D01*
X1196134Y398821D01*
X1205698D01*
Y408385D01*
D02*
G37*
G36*
X1039938Y400471D02*
X1033669D01*
Y394700D01*
X1039938D01*
Y400471D01*
D02*
G37*
G36*
X1031129D02*
X1024858D01*
Y394700D01*
X1031129D01*
Y400471D01*
D02*
G37*
G36*
X1104890Y400370D02*
X1098620D01*
Y394601D01*
X1104890D01*
Y400370D01*
D02*
G37*
G36*
X1096080D02*
X1089810D01*
Y394601D01*
X1096080D01*
Y400370D01*
D02*
G37*
G36*
X1071938Y399221D02*
X1065918D01*
Y393201D01*
X1071938D01*
Y399221D01*
D02*
G37*
G36*
X1063378D02*
X1057358D01*
Y393201D01*
X1063378D01*
Y399221D01*
D02*
G37*
G36*
X1181798Y408038D02*
X1179024Y407673D01*
X1176439Y406602D01*
X1174220Y404899D01*
X1172517Y402679D01*
X1171446Y400095D01*
X1171081Y397321D01*
X1171446Y394547D01*
X1172517Y391963D01*
X1174220Y389743D01*
X1176439Y388040D01*
X1179024Y386969D01*
X1181798Y386604D01*
X1184571Y386969D01*
X1187156Y388040D01*
X1189376Y389743D01*
X1191079Y391963D01*
X1192149Y394547D01*
X1192514Y397321D01*
X1192149Y400095D01*
X1191079Y402679D01*
X1189376Y404899D01*
X1187156Y406602D01*
X1184571Y407673D01*
X1181798Y408038D01*
D02*
G37*
G36*
X1039938Y392160D02*
X1033669D01*
Y386391D01*
X1039938D01*
Y392160D01*
D02*
G37*
G36*
X1031129D02*
X1024858D01*
Y386391D01*
X1031129D01*
Y392160D01*
D02*
G37*
G36*
X1104890Y392061D02*
X1098620D01*
Y386290D01*
X1104890D01*
Y392061D01*
D02*
G37*
G36*
X1096080D02*
X1089810D01*
Y386290D01*
X1096080D01*
Y392061D01*
D02*
G37*
G36*
X1205698Y395821D02*
X1196134D01*
X1196320Y394406D01*
X1197445Y391690D01*
X1199235Y389358D01*
X1201567Y387568D01*
X1204283Y386443D01*
X1205698Y386257D01*
Y395821D01*
D02*
G37*
G36*
X1218262D02*
X1208698D01*
Y386257D01*
X1210112Y386443D01*
X1212828Y387568D01*
X1215161Y389358D01*
X1216950Y391690D01*
X1218075Y394406D01*
X1218262Y395821D01*
D02*
G37*
G36*
X542231Y392674D02*
X537975Y388418D01*
X542231Y384161D01*
X546488Y388418D01*
X542231Y392674D01*
D02*
G37*
G36*
X974348Y383639D02*
X968078D01*
Y377869D01*
X974348D01*
Y383639D01*
D02*
G37*
G36*
X965538D02*
X959268D01*
Y377869D01*
X965538D01*
Y383639D01*
D02*
G37*
G36*
X1023195Y383562D02*
X1016926D01*
Y377792D01*
X1023195D01*
Y383562D01*
D02*
G37*
G36*
X1014386D02*
X1008115D01*
Y377792D01*
X1014386D01*
Y383562D01*
D02*
G37*
G36*
X905385Y375595D02*
X885555D01*
Y372825D01*
X886095D01*
Y370434D01*
X878682D01*
X878458Y370769D01*
X876639Y371984D01*
X874493Y372411D01*
X872347Y371984D01*
X870527Y370769D01*
X869312Y368950D01*
X868885Y366804D01*
X869312Y364658D01*
X870527Y362838D01*
X872347Y361623D01*
X874493Y361196D01*
X876639Y361623D01*
X878458Y362838D01*
X878764Y363296D01*
X885555D01*
Y363135D01*
X905385D01*
Y365905D01*
X904845D01*
Y372825D01*
X905385D01*
Y375595D01*
D02*
G37*
G36*
X974348Y375329D02*
X968078D01*
Y369559D01*
X974348D01*
Y375329D01*
D02*
G37*
G36*
X965538D02*
X959268D01*
Y369559D01*
X965538D01*
Y375329D01*
D02*
G37*
G36*
X1023195Y375252D02*
X1016926D01*
Y369482D01*
X1023195D01*
Y375252D01*
D02*
G37*
G36*
X1014386D02*
X1008115D01*
Y369482D01*
X1014386D01*
Y375252D01*
D02*
G37*
G36*
X1207198Y382638D02*
X1204424Y382272D01*
X1201839Y381202D01*
X1199620Y379499D01*
X1197917Y377279D01*
X1196846Y374695D01*
X1196481Y371921D01*
X1196846Y369147D01*
X1197917Y366563D01*
X1199620Y364343D01*
X1201839Y362640D01*
X1204424Y361569D01*
X1207198Y361204D01*
X1209971Y361569D01*
X1212556Y362640D01*
X1214776Y364343D01*
X1216479Y366563D01*
X1217549Y369147D01*
X1217915Y371921D01*
X1217549Y374695D01*
X1216479Y377279D01*
X1214776Y379499D01*
X1212556Y381202D01*
X1209971Y382272D01*
X1207198Y382638D01*
D02*
G37*
G36*
X679457Y356091D02*
X675201Y351834D01*
X679457Y347577D01*
X683714Y351834D01*
X679457Y356091D01*
D02*
G37*
G36*
X930048Y349155D02*
Y343135D01*
X936068D01*
Y349155D01*
X930048D01*
D02*
G37*
G36*
X673404Y350038D02*
X669148Y345781D01*
X673404Y341525D01*
X677661Y345781D01*
X673404Y350038D01*
D02*
G37*
G36*
X936068Y340595D02*
X930048D01*
Y334575D01*
X936068D01*
Y340595D01*
D02*
G37*
G36*
X666793Y333490D02*
X650530Y317227D01*
X654480Y313277D01*
X652468Y311265D01*
X652000Y311358D01*
X649854Y310931D01*
X648035Y309715D01*
X646819Y307896D01*
X646392Y305750D01*
X646819Y303604D01*
X648035Y301785D01*
X649854Y300569D01*
X652000Y300142D01*
X654146Y300569D01*
X655965Y301785D01*
X657181Y303604D01*
X657608Y305750D01*
X657515Y306218D01*
X659527Y308230D01*
X661843Y305914D01*
X678107Y322177D01*
X666793Y333490D01*
D02*
G37*
G36*
X905385Y310595D02*
X885555D01*
Y307825D01*
X886095D01*
Y305434D01*
X878723D01*
X878458Y305830D01*
X876639Y307046D01*
X874493Y307473D01*
X872347Y307046D01*
X870527Y305830D01*
X869312Y304011D01*
X868885Y301865D01*
X869312Y299719D01*
X870527Y297900D01*
X872347Y296684D01*
X874493Y296257D01*
X876639Y296684D01*
X878458Y297900D01*
X878723Y298296D01*
X885555D01*
Y298135D01*
X905385D01*
Y300905D01*
X904845D01*
Y307825D01*
X905385D01*
Y310595D01*
D02*
G37*
G36*
X1207198Y306438D02*
X1204424Y306073D01*
X1201839Y305002D01*
X1199620Y303299D01*
X1197917Y301079D01*
X1196846Y298495D01*
X1196481Y295721D01*
X1196846Y292947D01*
X1197917Y290363D01*
X1199620Y288143D01*
X1201839Y286440D01*
X1204424Y285369D01*
X1207198Y285004D01*
X1209971Y285369D01*
X1212556Y286440D01*
X1214776Y288143D01*
X1216479Y290363D01*
X1217549Y292947D01*
X1217915Y295721D01*
X1217549Y298495D01*
X1216479Y301079D01*
X1214776Y303299D01*
X1212556Y305002D01*
X1209971Y306073D01*
X1207198Y306438D01*
D02*
G37*
G36*
X1181798D02*
X1179024Y306073D01*
X1176439Y305002D01*
X1174220Y303299D01*
X1172517Y301079D01*
X1171446Y298495D01*
X1171081Y295721D01*
X1171446Y292947D01*
X1172517Y290363D01*
X1174220Y288143D01*
X1176439Y286440D01*
X1179024Y285369D01*
X1181798Y285004D01*
X1184571Y285369D01*
X1187156Y286440D01*
X1189376Y288143D01*
X1191079Y290363D01*
X1192149Y292947D01*
X1192514Y295721D01*
X1192149Y298495D01*
X1191079Y301079D01*
X1189376Y303299D01*
X1187156Y305002D01*
X1184571Y306073D01*
X1181798Y306438D01*
D02*
G37*
G36*
X509673Y288095D02*
X484673D01*
Y282639D01*
X482783D01*
Y286075D01*
X469283D01*
Y272885D01*
X469283Y272662D01*
X468743Y271615D01*
X468743Y271529D01*
Y265596D01*
X476032D01*
X483323D01*
Y271529D01*
X483323Y271615D01*
X482783Y272662D01*
X482783Y272885D01*
Y276012D01*
X484673D01*
Y270096D01*
X509673D01*
Y288095D01*
D02*
G37*
G36*
X483323Y263056D02*
X477302D01*
Y257035D01*
X483323D01*
Y263056D01*
D02*
G37*
G36*
X474762D02*
X468743D01*
Y257035D01*
X474762D01*
Y263056D01*
D02*
G37*
G36*
X1095880Y251971D02*
X1089610D01*
Y246201D01*
X1095880D01*
Y251971D01*
D02*
G37*
G36*
X1087070D02*
X1080800D01*
Y246201D01*
X1087070D01*
Y251971D01*
D02*
G37*
G36*
X1047130Y251971D02*
X1040860D01*
Y246201D01*
X1047130D01*
Y251971D01*
D02*
G37*
G36*
X1038320D02*
X1032050D01*
Y246201D01*
X1038320D01*
Y251971D01*
D02*
G37*
G36*
X1095880Y243661D02*
X1089610D01*
Y237891D01*
X1095880D01*
Y243661D01*
D02*
G37*
G36*
X1087070D02*
X1080800D01*
Y237891D01*
X1087070D01*
Y243661D01*
D02*
G37*
G36*
X1047130Y243661D02*
X1040860D01*
Y237891D01*
X1047130D01*
Y243661D01*
D02*
G37*
G36*
X1038320D02*
X1032050D01*
Y237891D01*
X1038320D01*
Y243661D01*
D02*
G37*
G36*
X510213Y244035D02*
X498442D01*
Y235766D01*
X510213D01*
Y244035D01*
D02*
G37*
G36*
X495902D02*
X484133D01*
Y235766D01*
X495902D01*
Y244035D01*
D02*
G37*
G36*
X601213D02*
X589442D01*
Y235765D01*
X601213D01*
Y244035D01*
D02*
G37*
G36*
X586902D02*
X575133D01*
Y235765D01*
X586902D01*
Y244035D01*
D02*
G37*
G36*
X1181798Y281038D02*
X1179024Y280672D01*
X1176439Y279602D01*
X1174220Y277899D01*
X1172517Y275679D01*
X1171446Y273095D01*
X1171081Y270321D01*
X1171446Y267547D01*
X1172517Y264963D01*
X1174220Y262743D01*
X1176439Y261040D01*
X1178464Y260201D01*
Y250679D01*
X1157625Y229840D01*
X1078721D01*
X1075424Y233137D01*
Y238431D01*
X1079090D01*
Y251431D01*
X1065090D01*
Y238431D01*
X1068756D01*
Y231756D01*
X1069010Y230480D01*
X1069733Y229399D01*
X1074983Y224149D01*
X1076064Y223426D01*
X1077340Y223172D01*
X1159006D01*
X1160282Y223426D01*
X1161364Y224149D01*
X1184155Y246940D01*
X1184878Y248022D01*
X1185132Y249298D01*
Y260201D01*
X1187156Y261040D01*
X1189376Y262743D01*
X1191079Y264963D01*
X1192149Y267547D01*
X1192514Y270321D01*
X1192149Y273095D01*
X1191079Y275679D01*
X1189376Y277899D01*
X1187156Y279602D01*
X1184571Y280672D01*
X1181798Y281038D01*
D02*
G37*
G36*
X601213Y233225D02*
X589442D01*
Y224956D01*
X601213D01*
Y233225D01*
D02*
G37*
G36*
X586902D02*
X575133D01*
Y224956D01*
X586902D01*
Y233225D01*
D02*
G37*
G36*
X510213Y233226D02*
X498442D01*
Y224956D01*
X510213D01*
Y233226D01*
D02*
G37*
G36*
X495902D02*
X484133D01*
Y224956D01*
X495902D01*
Y233226D01*
D02*
G37*
G36*
X1217823Y280946D02*
X1196573D01*
Y259696D01*
X1203864D01*
Y245579D01*
X1179450Y221165D01*
X1069539D01*
X1059174Y231530D01*
Y238431D01*
X1062840D01*
Y251431D01*
X1048840D01*
Y238431D01*
X1052506D01*
Y230149D01*
X1052760Y228873D01*
X1053483Y227791D01*
X1065801Y215473D01*
X1066882Y214750D01*
X1068158Y214496D01*
X1180831D01*
X1182106Y214750D01*
X1183188Y215473D01*
X1209555Y241840D01*
X1210278Y242922D01*
X1210532Y244198D01*
Y259696D01*
X1217823D01*
Y280946D01*
D02*
G37*
G36*
X869500Y229741D02*
X867673Y229501D01*
X865970Y228795D01*
X864508Y227673D01*
X863386Y226211D01*
X862680Y224508D01*
X862440Y222681D01*
X862680Y220853D01*
X863386Y219151D01*
X863839Y218559D01*
Y212764D01*
X863130Y212054D01*
X862569Y211897D01*
X861584Y212406D01*
X861497Y212406D01*
X855564D01*
Y205116D01*
Y197826D01*
X861497D01*
X861584Y197826D01*
X862569Y198334D01*
X862798Y198270D01*
X863732Y197740D01*
X863823Y196498D01*
X863251Y195926D01*
X862569Y195699D01*
X861684Y196156D01*
X861598Y196156D01*
X855664D01*
Y188866D01*
Y181576D01*
X861597D01*
X861684Y181576D01*
X862569Y182033D01*
X863013Y181885D01*
X863839Y181213D01*
Y178016D01*
X862314D01*
Y163293D01*
X818921D01*
Y174686D01*
X814919D01*
Y176154D01*
X815773D01*
Y189654D01*
X814919D01*
Y192536D01*
X816061D01*
Y206036D01*
X802871D01*
X802647Y206036D01*
X801601Y206576D01*
X801515Y206576D01*
X795581D01*
Y199286D01*
Y191996D01*
X801515D01*
X801601Y191996D01*
X802433Y192425D01*
X803011Y192217D01*
X803539Y191754D01*
X803568Y190417D01*
X802805Y189654D01*
X802359D01*
X801313Y190194D01*
X801227Y190194D01*
X795294D01*
Y182903D01*
Y175614D01*
X798095D01*
X798921Y174686D01*
X798921Y174344D01*
Y140686D01*
X818921D01*
Y152078D01*
X862314D01*
Y138976D01*
X876474D01*
Y178016D01*
X875055D01*
Y182116D01*
X876144D01*
Y195616D01*
X875055D01*
Y198366D01*
X876044D01*
Y211866D01*
X875055D01*
Y217953D01*
X891667D01*
X892554Y217360D01*
X894700Y216933D01*
X896846Y217360D01*
X898665Y218576D01*
X899881Y220395D01*
X900307Y222541D01*
X899881Y224687D01*
X898665Y226506D01*
X896846Y227722D01*
X894700Y228149D01*
X892554Y227722D01*
X891667Y227129D01*
X874910D01*
X874493Y227673D01*
X873030Y228795D01*
X871328Y229501D01*
X869500Y229741D01*
D02*
G37*
G36*
X674590Y224691D02*
X660590D01*
Y211691D01*
X660590D01*
X660915Y210907D01*
X660152Y209826D01*
X659123Y209668D01*
X658715Y209734D01*
X658191Y210476D01*
X658340Y211691D01*
X658340D01*
Y224691D01*
X644340D01*
Y211691D01*
X648480D01*
X648514Y211520D01*
X649177Y210528D01*
X654281Y205424D01*
Y198191D01*
X639340D01*
Y189191D01*
X630340D01*
Y184731D01*
X629800D01*
Y182461D01*
X640880D01*
Y184731D01*
X640340D01*
Y188191D01*
X669340D01*
Y183191D01*
Y178191D01*
Y173191D01*
Y168191D01*
Y163191D01*
Y159191D01*
X640340D01*
Y163191D01*
Y168191D01*
Y173191D01*
Y177651D01*
X640880D01*
Y179921D01*
X629800D01*
Y179249D01*
X595295D01*
X595195Y179269D01*
X595194Y179269D01*
X578380D01*
X578380Y179269D01*
X577210Y179037D01*
X576217Y178374D01*
X576217Y178373D01*
X572784Y174941D01*
X557840D01*
Y172999D01*
X552506D01*
X552486Y173149D01*
X551730Y174974D01*
X550528Y176540D01*
X548961Y177742D01*
X547137Y178498D01*
X545179Y178756D01*
X543221Y178498D01*
X541397Y177742D01*
X539830Y176540D01*
X538628Y174974D01*
X537872Y173149D01*
X537615Y171191D01*
X537872Y169233D01*
X538628Y167409D01*
X539310Y166520D01*
X538684Y165250D01*
X524200D01*
X523900Y165973D01*
X522698Y167540D01*
X521132Y168742D01*
X519307Y169498D01*
X517349Y169756D01*
X515391Y169498D01*
X513567Y168742D01*
X512000Y167540D01*
X510798Y165973D01*
X510042Y164149D01*
X509785Y162191D01*
X510042Y160233D01*
X510798Y158409D01*
X512000Y156842D01*
X513567Y155640D01*
X515391Y154884D01*
X517349Y154627D01*
X519307Y154884D01*
X521132Y155640D01*
X522698Y156842D01*
X523900Y158409D01*
X524200Y159132D01*
X538300D01*
X538926Y157862D01*
X538628Y157473D01*
X537872Y155649D01*
X537615Y153691D01*
X537872Y151733D01*
X538628Y149909D01*
X539830Y148342D01*
X541397Y147140D01*
X543221Y146384D01*
X545179Y146126D01*
X547137Y146384D01*
X548961Y147140D01*
X549561Y147600D01*
X550430Y147427D01*
X557840D01*
Y145741D01*
X572840D01*
Y155741D01*
X557840D01*
Y154054D01*
X552696D01*
X552486Y155649D01*
X551730Y157473D01*
X551432Y157862D01*
X552058Y159132D01*
X573494D01*
X573494Y159132D01*
X574664Y159365D01*
X575657Y160028D01*
X579886Y164258D01*
X580840Y164941D01*
Y164941D01*
X580840Y164941D01*
X595840D01*
Y167027D01*
X596281Y167115D01*
X597273Y167778D01*
X597627Y168132D01*
X630340D01*
Y158191D01*
X630340D01*
X630817Y156953D01*
X630271Y156254D01*
X626340D01*
Y159691D01*
X613150D01*
X612926Y159691D01*
X611880Y160231D01*
X611794Y160231D01*
X605860D01*
Y152941D01*
X603320D01*
Y160231D01*
X597422Y160231D01*
X596380Y160781D01*
X596258Y160781D01*
X589610D01*
Y152991D01*
Y145201D01*
X596337Y145201D01*
X596602Y144996D01*
X597300Y144355D01*
Y138440D01*
X604590D01*
Y137170D01*
X605860D01*
Y129880D01*
X611793D01*
X611880Y129880D01*
X612926Y130420D01*
X613150Y130420D01*
X616026D01*
Y128013D01*
X612840D01*
Y114014D01*
X616026D01*
Y110152D01*
X615810Y110063D01*
X614348Y108941D01*
X613226Y107478D01*
X612520Y105775D01*
X612280Y103948D01*
X612520Y102121D01*
X613226Y100418D01*
X614348Y98956D01*
X615810Y97834D01*
X617513Y97128D01*
X619340Y96888D01*
X621167Y97128D01*
X622870Y97834D01*
X624333Y98956D01*
X625455Y100418D01*
X626160Y102121D01*
X626400Y103948D01*
X626160Y105775D01*
X625455Y107478D01*
X624333Y108941D01*
X622870Y110063D01*
X622654Y110152D01*
Y114014D01*
X625840D01*
Y128013D01*
X622654D01*
Y130420D01*
X626340D01*
Y143920D01*
X622654D01*
Y146191D01*
X626340D01*
Y149627D01*
X631970D01*
X633238Y149879D01*
X634313Y150597D01*
X637683Y153968D01*
X637756Y154077D01*
X639026Y153692D01*
Y143669D01*
X639279Y142401D01*
X639997Y141326D01*
X646776Y134546D01*
Y133089D01*
X645878Y132191D01*
X643676Y132191D01*
X642630Y132731D01*
X642544Y132731D01*
X636610D01*
Y125441D01*
Y118151D01*
X642544D01*
X642630Y118151D01*
X643676Y118691D01*
X643900Y118691D01*
X646776D01*
Y116191D01*
X643340D01*
Y114563D01*
X642220Y113964D01*
X641896Y114181D01*
X639750Y114608D01*
X637604Y114181D01*
X635785Y112965D01*
X634569Y111146D01*
X634142Y109000D01*
X634569Y106854D01*
X635785Y105035D01*
X637604Y103819D01*
X639750Y103392D01*
X641896Y103819D01*
X642220Y104036D01*
X643340Y103437D01*
X643340Y102777D01*
X642800Y101731D01*
X642800Y101644D01*
Y95710D01*
X650090D01*
X657380D01*
Y101644D01*
X657380Y101731D01*
X656840Y102777D01*
X656840Y103001D01*
Y105877D01*
X659340D01*
Y102691D01*
X673340D01*
Y115691D01*
X659340D01*
Y112504D01*
X656840D01*
Y116191D01*
X653404D01*
Y118691D01*
X657090D01*
Y132191D01*
X653404D01*
Y135919D01*
X653959Y136595D01*
X659672D01*
X662404Y133864D01*
X661918Y132691D01*
X659340D01*
Y119691D01*
X673340D01*
Y122820D01*
X676090D01*
Y119441D01*
X690090D01*
Y122820D01*
X694739D01*
X694934Y122348D01*
X696057Y120886D01*
X697519Y119764D01*
X699222Y119059D01*
X701049Y118818D01*
X702876Y119059D01*
X704579Y119764D01*
X706041Y120886D01*
X707163Y122348D01*
X707869Y124051D01*
X708109Y125878D01*
X707869Y127706D01*
X707163Y129409D01*
X706041Y130871D01*
X704579Y131993D01*
X702876Y132698D01*
X701049Y132939D01*
X699222Y132698D01*
X697519Y131993D01*
X696057Y130871D01*
X694934Y129409D01*
X694739Y128937D01*
X690090D01*
Y132441D01*
X676090D01*
Y128937D01*
X673340D01*
Y132691D01*
X669711D01*
Y133941D01*
X669478Y135112D01*
X668815Y136104D01*
X668815Y136104D01*
X668072Y136847D01*
X668490Y138225D01*
X669736Y138473D01*
X671555Y139689D01*
X672771Y141508D01*
X673198Y143654D01*
X672771Y145800D01*
X671555Y147619D01*
X670838Y148098D01*
X670340Y149191D01*
X670340Y149191D01*
X670340Y149191D01*
Y158191D01*
X674045D01*
X674340Y158132D01*
X691748D01*
X692848Y156698D01*
X694310Y155576D01*
X696013Y154871D01*
X697840Y154630D01*
X699668Y154871D01*
X701370Y155576D01*
X702833Y156698D01*
X703955Y158160D01*
X704660Y159863D01*
X704901Y161691D01*
X704660Y163518D01*
X703955Y165221D01*
X702833Y166683D01*
X701370Y167805D01*
X699668Y168510D01*
X697840Y168751D01*
X696013Y168510D01*
X694310Y167805D01*
X692848Y166683D01*
X691726Y165221D01*
X691323Y164249D01*
X686384D01*
X685898Y165423D01*
X695541Y175066D01*
X696013Y174871D01*
X697840Y174630D01*
X699668Y174871D01*
X701370Y175576D01*
X702833Y176698D01*
X703955Y178160D01*
X704660Y179863D01*
X704901Y181691D01*
X704660Y183518D01*
X703955Y185221D01*
X702833Y186683D01*
X701370Y187805D01*
X699668Y188510D01*
X697840Y188751D01*
X696013Y188510D01*
X694310Y187805D01*
X692848Y186683D01*
X691726Y185221D01*
X691020Y183518D01*
X690780Y181691D01*
X691020Y179863D01*
X691216Y179392D01*
X681073Y169249D01*
X679340D01*
Y178191D01*
Y189191D01*
X670340D01*
Y198191D01*
X665674D01*
Y205790D01*
X669948Y210063D01*
X670670Y211145D01*
X670779Y211691D01*
X674590D01*
Y224691D01*
D02*
G37*
G36*
X546179Y219128D02*
X532179D01*
Y210031D01*
X552775D01*
Y212531D01*
X552551Y214238D01*
X551892Y215829D01*
X550844Y217195D01*
X549477Y218244D01*
X547886Y218903D01*
X546179Y219128D01*
D02*
G37*
G36*
X529179D02*
X515179D01*
X513472Y218903D01*
X511881Y218244D01*
X510515Y217195D01*
X509466Y215829D01*
X508807Y214238D01*
X508583Y212531D01*
Y210031D01*
X529179D01*
Y219128D01*
D02*
G37*
G36*
X853024Y212406D02*
X847004D01*
Y206386D01*
X853024D01*
Y212406D01*
D02*
G37*
G36*
X1057611Y211656D02*
Y205635D01*
X1063630D01*
Y211656D01*
X1057611D01*
D02*
G37*
G36*
X1006040Y211454D02*
Y205434D01*
X1012060D01*
Y211454D01*
X1006040D01*
D02*
G37*
G36*
X904272D02*
X898251D01*
Y205434D01*
X904272D01*
Y211454D01*
D02*
G37*
G36*
X793041Y206576D02*
X787021D01*
Y200556D01*
X793041D01*
Y206576D01*
D02*
G37*
G36*
X746541D02*
X740521D01*
Y200556D01*
X746541D01*
Y206576D01*
D02*
G37*
G36*
X552775Y207031D02*
X532179D01*
Y197935D01*
X546179D01*
X547886Y198160D01*
X549477Y198818D01*
X550844Y199867D01*
X551892Y201233D01*
X552551Y202824D01*
X552775Y204531D01*
Y207031D01*
D02*
G37*
G36*
X529179D02*
X508583D01*
Y204531D01*
X508807Y202824D01*
X509466Y201233D01*
X510515Y199867D01*
X511881Y198818D01*
X513472Y198160D01*
X515179Y197935D01*
X529179D01*
Y207031D01*
D02*
G37*
G36*
X853024Y203846D02*
X847004D01*
Y197826D01*
X853024D01*
Y203846D01*
D02*
G37*
G36*
X1063630Y203095D02*
X1057611D01*
Y197076D01*
X1063630D01*
Y203095D01*
D02*
G37*
G36*
X1049050Y211656D02*
X1048004Y211116D01*
X1047780Y211116D01*
X1034590D01*
Y197616D01*
X1035048D01*
Y195116D01*
X1034590D01*
Y181616D01*
X1035048D01*
Y177516D01*
X1033910D01*
Y160533D01*
X1033837Y159976D01*
X1033910Y159419D01*
Y138476D01*
X1036242D01*
Y126405D01*
X1036069Y126146D01*
X1035642Y124000D01*
X1036069Y121854D01*
X1037285Y120035D01*
X1039104Y118819D01*
X1041250Y118392D01*
X1043396Y118819D01*
X1045215Y120035D01*
X1046431Y121854D01*
X1046858Y124000D01*
X1046438Y126110D01*
Y138476D01*
X1048070D01*
Y151402D01*
X1124590D01*
Y146226D01*
X1144090D01*
Y173726D01*
X1124590D01*
Y168549D01*
X1048070D01*
Y177516D01*
X1047283D01*
Y180651D01*
X1048553Y181332D01*
X1049050Y181076D01*
X1049136Y181076D01*
X1055070D01*
Y188366D01*
Y195656D01*
X1049137D01*
X1049050Y195656D01*
X1048553Y195399D01*
X1048094Y195645D01*
Y197086D01*
X1048553Y197332D01*
X1049050Y197076D01*
X1049136Y197076D01*
X1055071D01*
Y204365D01*
Y211656D01*
X1049137D01*
X1049050Y211656D01*
D02*
G37*
G36*
X793041Y198016D02*
X787021D01*
Y191996D01*
X793041D01*
Y198016D01*
D02*
G37*
G36*
X746541D02*
X740521D01*
Y191996D01*
X746541D01*
Y198016D01*
D02*
G37*
G36*
X853124Y196156D02*
X847104D01*
Y190136D01*
X853124D01*
Y196156D01*
D02*
G37*
G36*
X546680Y196353D02*
Y189941D01*
X553091D01*
X553012Y190540D01*
X552202Y192496D01*
X550913Y194175D01*
X549234Y195464D01*
X547278Y196274D01*
X546680Y196353D01*
D02*
G37*
G36*
X543680Y196353D02*
X543080Y196274D01*
X541124Y195464D01*
X539445Y194175D01*
X538156Y192496D01*
X537346Y190540D01*
X537267Y189941D01*
X543680D01*
Y196353D01*
D02*
G37*
G36*
X1057610Y195656D02*
Y189636D01*
X1063630D01*
Y195656D01*
X1057610D01*
D02*
G37*
G36*
X792754Y190194D02*
X786733D01*
Y184174D01*
X792754D01*
Y190194D01*
D02*
G37*
G36*
X746540Y190076D02*
X740521D01*
Y184056D01*
X746540D01*
Y190076D01*
D02*
G37*
G36*
X853124Y187596D02*
X847104D01*
Y181576D01*
X853124D01*
Y187596D01*
D02*
G37*
G36*
X1012060Y187323D02*
X1006040D01*
Y181303D01*
X1012060D01*
Y187323D01*
D02*
G37*
G36*
X903929Y187323D02*
X897909D01*
Y181303D01*
X903929D01*
Y187323D01*
D02*
G37*
G36*
X1063630Y187096D02*
X1057610D01*
Y181076D01*
X1063630D01*
Y187096D01*
D02*
G37*
G36*
X553091Y186941D02*
X546680D01*
Y180529D01*
X547278Y180608D01*
X549234Y181418D01*
X550913Y182707D01*
X552202Y184387D01*
X553012Y186342D01*
X553091Y186941D01*
D02*
G37*
G36*
X543680D02*
X537267D01*
X537346Y186342D01*
X538156Y184387D01*
X539445Y182707D01*
X541124Y181418D01*
X543080Y180608D01*
X543680Y180529D01*
Y186941D01*
D02*
G37*
G36*
X792754Y181633D02*
X786733D01*
Y175614D01*
X792754D01*
Y181633D01*
D02*
G37*
G36*
X746540Y181516D02*
X740521D01*
Y175496D01*
X746540D01*
Y181516D01*
D02*
G37*
G36*
X517349Y187506D02*
X515391Y187248D01*
X513567Y186492D01*
X512000Y185290D01*
X510798Y183724D01*
X510042Y181899D01*
X509785Y179941D01*
X510042Y177983D01*
X510798Y176159D01*
X512000Y174592D01*
X513567Y173390D01*
X515391Y172634D01*
X517349Y172376D01*
X519307Y172634D01*
X521132Y173390D01*
X522698Y174592D01*
X523900Y176159D01*
X524656Y177983D01*
X524914Y179941D01*
X524656Y181899D01*
X523900Y183724D01*
X522698Y185290D01*
X521132Y186492D01*
X519307Y187248D01*
X517349Y187506D01*
D02*
G37*
G36*
X1208661Y183221D02*
X1194871D01*
Y169431D01*
X1208661D01*
Y183221D01*
D02*
G37*
G36*
X1191871D02*
X1178081D01*
Y169431D01*
X1191871D01*
Y183221D01*
D02*
G37*
G36*
X990182Y229741D02*
X988355Y229500D01*
X986652Y228795D01*
X985190Y227673D01*
X984068Y226211D01*
X983363Y224508D01*
X983122Y222681D01*
X983363Y220853D01*
X984068Y219150D01*
X984579Y218485D01*
Y210914D01*
X983020D01*
Y197414D01*
X984579D01*
Y195343D01*
X983020D01*
Y181843D01*
X984579D01*
Y177516D01*
X983110D01*
Y163603D01*
X927274D01*
Y178016D01*
X925975D01*
Y181843D01*
X926949D01*
Y195343D01*
X925975D01*
Y197414D01*
X927291D01*
Y210914D01*
X914101D01*
X913878Y210914D01*
X912831Y211454D01*
X912745Y211454D01*
X906812D01*
Y204164D01*
X905542D01*
Y202894D01*
X898251D01*
X898251Y197011D01*
X897909Y195883D01*
X897909Y195746D01*
Y189863D01*
X905199D01*
Y188593D01*
X906469D01*
Y181303D01*
X912403D01*
X912489Y181303D01*
X913536Y181843D01*
X914760Y181193D01*
Y178016D01*
X913114D01*
Y138976D01*
X927274D01*
Y152388D01*
X983110D01*
Y138476D01*
X997270D01*
Y177516D01*
X995794D01*
Y180782D01*
X997064Y181518D01*
X997480Y181303D01*
X997566Y181303D01*
X1003500D01*
Y188593D01*
X1004770D01*
Y189863D01*
X1012060D01*
Y195604D01*
X1012060Y195883D01*
Y196874D01*
X1012060Y197153D01*
Y202894D01*
X1004770D01*
Y204164D01*
X1003500D01*
Y211454D01*
X997567D01*
X997480Y211454D01*
X997064Y211239D01*
X995826Y211956D01*
X995794Y212012D01*
Y218495D01*
X996297Y219150D01*
X997002Y220853D01*
X997243Y222681D01*
X997002Y224508D01*
X996297Y226211D01*
X995175Y227673D01*
X993713Y228795D01*
X992010Y229500D01*
X990182Y229741D01*
D02*
G37*
G36*
X587070Y160781D02*
X580300D01*
Y154261D01*
X587070D01*
Y160781D01*
D02*
G37*
G36*
X1208661Y166431D02*
X1194871D01*
Y152641D01*
X1208661D01*
Y166431D01*
D02*
G37*
G36*
X1191871D02*
X1178081D01*
Y152641D01*
X1191871D01*
Y166431D01*
D02*
G37*
G36*
X587070Y151721D02*
X580300D01*
Y145201D01*
X587070D01*
Y151721D01*
D02*
G37*
G36*
X545929Y144538D02*
X531929D01*
Y135441D01*
X552526D01*
Y137941D01*
X552301Y139648D01*
X551642Y141239D01*
X550594Y142605D01*
X549227Y143654D01*
X547636Y144313D01*
X545929Y144538D01*
D02*
G37*
G36*
X528929D02*
X514929D01*
X513222Y144313D01*
X511631Y143654D01*
X510265Y142605D01*
X509216Y141239D01*
X508558Y139648D01*
X508333Y137941D01*
Y135441D01*
X528929D01*
Y144538D01*
D02*
G37*
G36*
X603320Y135900D02*
X597300D01*
Y129880D01*
X603320D01*
Y135900D01*
D02*
G37*
G36*
X634070Y132731D02*
X628050D01*
Y126711D01*
X634070D01*
Y132731D01*
D02*
G37*
G36*
X1193371Y131952D02*
X1190480Y131667D01*
X1187699Y130824D01*
X1185137Y129454D01*
X1182891Y127611D01*
X1181883Y126383D01*
X1144090D01*
Y130726D01*
X1124590D01*
Y103226D01*
X1144090D01*
Y107724D01*
X1182010D01*
X1182891Y106651D01*
X1185137Y104807D01*
X1187699Y103438D01*
X1190480Y102594D01*
X1193371Y102310D01*
X1196263Y102594D01*
X1199043Y103438D01*
X1201605Y104807D01*
X1203851Y106651D01*
X1205695Y108897D01*
X1207064Y111459D01*
X1207908Y114239D01*
X1208192Y117131D01*
X1207908Y120022D01*
X1207064Y122803D01*
X1205695Y125365D01*
X1203851Y127611D01*
X1201605Y129454D01*
X1199043Y130824D01*
X1196263Y131667D01*
X1193371Y131952D01*
D02*
G37*
G36*
X608840Y128013D02*
X595840D01*
Y124569D01*
X594570Y124184D01*
X594215Y124715D01*
X592396Y125931D01*
X590250Y126358D01*
X588104Y125931D01*
X586285Y124715D01*
X585069Y122896D01*
X584642Y120750D01*
X585069Y118604D01*
X586285Y116785D01*
X588104Y115569D01*
X590250Y115142D01*
X592396Y115569D01*
X594215Y116785D01*
X594570Y117316D01*
X595840Y116931D01*
Y114014D01*
X608840D01*
Y128013D01*
D02*
G37*
G36*
X552526Y132441D02*
X531929D01*
Y123345D01*
X545929D01*
X547636Y123569D01*
X549227Y124228D01*
X550594Y125277D01*
X551642Y126643D01*
X552301Y128234D01*
X552526Y129941D01*
Y132441D01*
D02*
G37*
G36*
X528929D02*
X508333D01*
Y129941D01*
X508558Y128234D01*
X509216Y126643D01*
X510265Y125277D01*
X511631Y124228D01*
X513222Y123569D01*
X514929Y123345D01*
X528929D01*
Y132441D01*
D02*
G37*
G36*
X634070Y124171D02*
X628050D01*
Y118151D01*
X634070D01*
Y124171D01*
D02*
G37*
G36*
X690630Y115981D02*
X684360D01*
Y110211D01*
X690630D01*
Y115981D01*
D02*
G37*
G36*
X681820D02*
X675550D01*
Y110211D01*
X681820D01*
Y115981D01*
D02*
G37*
G36*
X690630Y107671D02*
X684360D01*
Y101901D01*
X690630D01*
Y107671D01*
D02*
G37*
G36*
X681820D02*
X675550D01*
Y101901D01*
X681820D01*
Y107671D01*
D02*
G37*
G36*
X817601Y119426D02*
X787331D01*
Y87156D01*
X817601D01*
Y119426D01*
D02*
G37*
G36*
X784791D02*
X754521D01*
Y87156D01*
X784791D01*
Y119426D01*
D02*
G37*
G36*
X657380Y93170D02*
X651360D01*
Y87151D01*
X657380D01*
Y93170D01*
D02*
G37*
G36*
X648820D02*
X642800D01*
Y87151D01*
X648820D01*
Y93170D01*
D02*
G37*
G36*
X949784Y100806D02*
X896064D01*
Y57636D01*
X949784D01*
Y100806D01*
D02*
G37*
G36*
X893524D02*
X839804D01*
Y57636D01*
X893524D01*
Y100806D01*
D02*
G37*
G36*
X1070580Y100306D02*
X1016860D01*
Y57136D01*
X1070580D01*
Y100306D01*
D02*
G37*
G36*
X1014320D02*
X960600D01*
Y57136D01*
X1014320D01*
Y100306D01*
D02*
G37*
G36*
X817601Y84616D02*
X787331D01*
Y52346D01*
X817601D01*
Y84616D01*
D02*
G37*
G36*
X784791D02*
X754521D01*
Y52346D01*
X784791D01*
Y84616D01*
D02*
G37*
G36*
X1125265Y80983D02*
Y50500D01*
X1155748D01*
X1155504Y53606D01*
X1154308Y58587D01*
X1152348Y63319D01*
X1149672Y67686D01*
X1146345Y71580D01*
X1142450Y74907D01*
X1138083Y77583D01*
X1133351Y79543D01*
X1128371Y80739D01*
X1125265Y80983D01*
D02*
G37*
G36*
X1121265D02*
X1118159Y80739D01*
X1113178Y79543D01*
X1108446Y77583D01*
X1104079Y74907D01*
X1100184Y71580D01*
X1096858Y67686D01*
X1094182Y63319D01*
X1092222Y58587D01*
X1091026Y53606D01*
X1090782Y50500D01*
X1121265D01*
Y80983D01*
D02*
G37*
G36*
X1155748Y46500D02*
X1125265D01*
Y16017D01*
X1128371Y16261D01*
X1133351Y17457D01*
X1138083Y19417D01*
X1142450Y22093D01*
X1146345Y25420D01*
X1149672Y29314D01*
X1152348Y33681D01*
X1154308Y38414D01*
X1155504Y43394D01*
X1155748Y46500D01*
D02*
G37*
G36*
X1121265D02*
X1090782D01*
X1091026Y43394D01*
X1092222Y38414D01*
X1094182Y33681D01*
X1096858Y29314D01*
X1100184Y25420D01*
X1104079Y22093D01*
X1108446Y19417D01*
X1113178Y17457D01*
X1118159Y16261D01*
X1121265Y16017D01*
Y46500D01*
D02*
G37*
G36*
X949784Y55096D02*
X896064D01*
Y11926D01*
X949784D01*
Y55096D01*
D02*
G37*
G36*
X893524D02*
X839804D01*
Y11926D01*
X893524D01*
Y55096D01*
D02*
G37*
G36*
X1070580Y54596D02*
X1016860D01*
Y11426D01*
X1070580D01*
Y54596D01*
D02*
G37*
G36*
X1014320D02*
X960600D01*
Y11426D01*
X1014320D01*
Y54596D01*
D02*
G37*
%LPD*%
G36*
X793840Y609181D02*
Y596265D01*
X780673D01*
X779397Y596011D01*
X778316Y595288D01*
X768050Y585023D01*
X766877Y585509D01*
Y596941D01*
X779532Y609597D01*
X792742D01*
X793840Y609181D01*
D02*
G37*
G36*
Y544181D02*
Y531265D01*
X754229D01*
X753743Y532438D01*
X765901Y544597D01*
X792742D01*
X793840Y544181D01*
D02*
G37*
G36*
X744654Y481931D02*
X742439Y479715D01*
X751985Y470169D01*
X753604Y471789D01*
X754874Y471263D01*
Y457696D01*
X743362Y446184D01*
X741360Y448186D01*
X740980Y448885D01*
X741088Y449811D01*
X741967Y451126D01*
X742394Y453272D01*
X741967Y455418D01*
X740751Y457237D01*
X738932Y458453D01*
X736786Y458880D01*
X736017Y458727D01*
X725836Y468908D01*
X736477Y479548D01*
X736343Y479683D01*
X739207Y482547D01*
X740803Y480951D01*
X743218Y483367D01*
X744654Y481931D01*
D02*
G37*
G36*
X794523Y370199D02*
X774604D01*
X773328Y369945D01*
X772246Y369222D01*
X762826Y359802D01*
X754209D01*
X740932Y373079D01*
X741418Y374252D01*
X770832D01*
X772107Y374506D01*
X773189Y375229D01*
X781491Y383531D01*
X794523D01*
Y370199D01*
D02*
G37*
G36*
X776887Y319507D02*
X777968Y318785D01*
X779244Y318531D01*
X794778D01*
Y305199D01*
X780528D01*
X748766Y336961D01*
X749252Y338134D01*
X758260D01*
X776887Y319507D01*
D02*
G37*
%LPC*%
G36*
X143705Y354384D02*
X132251D01*
Y342929D01*
X134155Y343180D01*
X137327Y344494D01*
X140051Y346584D01*
X142141Y349308D01*
X143455Y352480D01*
X143705Y354384D01*
D02*
G37*
G36*
X129251D02*
X117795D01*
X118046Y352480D01*
X119360Y349308D01*
X121450Y346584D01*
X124174Y344494D01*
X127346Y343180D01*
X129251Y342929D01*
Y354384D01*
D02*
G37*
G36*
X51000Y348151D02*
Y334435D01*
X64717D01*
X64569Y335932D01*
X63695Y338814D01*
X62275Y341470D01*
X60364Y343798D01*
X58036Y345709D01*
X55380Y347129D01*
X52498Y348003D01*
X51000Y348151D01*
D02*
G37*
G36*
X48000Y348150D02*
X46503Y348003D01*
X43621Y347129D01*
X40965Y345709D01*
X38636Y343798D01*
X36726Y341470D01*
X35306Y338814D01*
X34432Y335932D01*
X34284Y334435D01*
X48000D01*
Y348150D01*
D02*
G37*
G36*
Y331435D02*
X34284D01*
X34432Y329937D01*
X35306Y327055D01*
X36726Y324398D01*
X38636Y322070D01*
X40965Y320160D01*
X43621Y318740D01*
X46503Y317866D01*
X48000Y317718D01*
Y331435D01*
D02*
G37*
G36*
X64717D02*
X51000D01*
Y317718D01*
X52498Y317866D01*
X55380Y318740D01*
X58036Y320160D01*
X60364Y322070D01*
X62275Y324398D01*
X63695Y327055D01*
X64569Y329937D01*
X64717Y331435D01*
D02*
G37*
G36*
X129500Y243884D02*
X118045D01*
X118296Y241980D01*
X119610Y238808D01*
X121700Y236084D01*
X124424Y233994D01*
X127596Y232680D01*
X129500Y232429D01*
Y243884D01*
D02*
G37*
G36*
X143955D02*
X132500D01*
Y232429D01*
X134404Y232680D01*
X137577Y233994D01*
X140301Y236084D01*
X142391Y238808D01*
X143705Y241980D01*
X143955Y243884D01*
D02*
G37*
G36*
X51000Y223401D02*
Y209685D01*
X64717D01*
X64569Y211182D01*
X63695Y214064D01*
X62275Y216720D01*
X60364Y219048D01*
X58036Y220959D01*
X55380Y222379D01*
X52498Y223253D01*
X51000Y223401D01*
D02*
G37*
G36*
X48000Y223400D02*
X46503Y223253D01*
X43621Y222379D01*
X40965Y220959D01*
X38636Y219048D01*
X36726Y216720D01*
X35306Y214064D01*
X34432Y211182D01*
X34284Y209685D01*
X48000D01*
Y223400D01*
D02*
G37*
G36*
Y206684D02*
X34284D01*
X34432Y205187D01*
X35306Y202305D01*
X36726Y199648D01*
X38636Y197320D01*
X40965Y195410D01*
X43621Y193990D01*
X46503Y193116D01*
X48000Y192968D01*
Y206684D01*
D02*
G37*
G36*
X64717D02*
X51000D01*
Y192968D01*
X52498Y193116D01*
X55380Y193990D01*
X58036Y195410D01*
X60364Y197320D01*
X62275Y199648D01*
X63695Y202305D01*
X64569Y205187D01*
X64717Y206684D01*
D02*
G37*
%LPD*%
D11*
X450112Y739467D02*
X481136D01*
X842430Y567931D02*
X894720D01*
X837430Y572931D02*
X842430Y567931D01*
X876233Y562931D02*
X894720D01*
X874475Y560931D02*
Y561173D01*
X876233Y562931D01*
X841041Y342893D02*
X842069Y341865D01*
X837069Y346865D02*
Y346865D01*
Y346865D02*
X841041Y342893D01*
X609319Y570687D02*
Y620354D01*
Y570687D02*
X614239Y565768D01*
X660832Y645042D02*
X819120D01*
X660119Y645754D02*
X660832Y645042D01*
X661175Y646810D02*
Y732606D01*
X660119Y645754D02*
X661175Y646810D01*
X991251Y455546D02*
Y472471D01*
X991340Y472561D01*
X1063775Y331069D02*
Y347496D01*
Y331069D02*
X1064793Y330052D01*
X913778Y329771D02*
Y341865D01*
X913090Y567681D02*
X913778Y566993D01*
Y556814D02*
Y566993D01*
X1063775Y347496D02*
X1064340Y348061D01*
X1066840Y602561D02*
X1067077Y602324D01*
Y588441D02*
Y602324D01*
Y588441D02*
X1067314Y588204D01*
X993590Y734691D02*
X993795Y734486D01*
Y721205D02*
Y734486D01*
Y721205D02*
X994000Y721000D01*
X1066840Y602561D02*
Y632825D01*
X763886Y217831D02*
X789750D01*
X664318Y318068D02*
Y319702D01*
X652000Y305750D02*
X664318Y318068D01*
X763201Y217146D02*
X763886Y217831D01*
X789750D02*
X837250Y265331D01*
Y312046D01*
X1064340Y348061D02*
Y376623D01*
X894720Y567931D02*
X912840D01*
X842069Y341865D02*
X895470D01*
X612226Y781554D02*
X661175Y732606D01*
X612226Y781554D02*
Y821352D01*
X552752Y820728D02*
X611602D01*
X612226Y821352D01*
X577808Y739040D02*
X578500Y739732D01*
Y754823D01*
X481136Y739467D02*
X481500Y739832D01*
Y756750D01*
X818960Y627931D02*
X836760D01*
X818960Y644882D02*
X819120Y645042D01*
X818960Y627931D02*
Y644882D01*
X546467Y739040D02*
X577808D01*
X449613Y738967D02*
X450112Y739467D01*
X874399Y597931D02*
X894720D01*
X873750Y597281D02*
X874399Y597931D01*
X874370Y532931D02*
X894720D01*
X894979Y396865D02*
Y418445D01*
X894499Y417964D02*
X894979Y418445D01*
X874181Y417964D02*
X894499D01*
X874554Y366865D02*
X895470D01*
X874493Y366804D02*
X874554Y366865D01*
X874545Y331865D02*
X895470D01*
X874493Y331917D02*
X874545Y331865D01*
X874493Y301865D02*
X895470D01*
X874181Y622931D02*
X894720D01*
X873750Y622500D02*
X874181Y622931D01*
X818960Y602931D02*
X836719D01*
X837005Y603217D01*
X818960Y572931D02*
X837430D01*
X818960Y537931D02*
X837069D01*
X819710Y401865D02*
X837069D01*
X819710Y376865D02*
X837069D01*
X819710Y346865D02*
X837069D01*
X819710Y311865D02*
X837069D01*
X837250Y312046D01*
X912840Y567931D02*
X913090Y567681D01*
X801090Y537931D02*
X818960D01*
X800590Y537431D02*
X801090Y537931D01*
X801090Y572931D02*
X818960D01*
X800590Y572431D02*
X801090Y572931D01*
Y602931D02*
X818960D01*
X800590Y602431D02*
X801090Y602931D01*
X894720Y622931D02*
Y627931D01*
Y592931D02*
Y597931D01*
Y557931D02*
Y562931D01*
Y527931D02*
Y532931D01*
X895470Y301865D02*
Y306865D01*
Y331865D02*
Y336865D01*
Y366865D02*
Y371865D01*
X894979Y396865D02*
X895470D01*
X895031Y418496D02*
Y435214D01*
X894979Y418445D02*
X895031Y418496D01*
X819710Y401865D02*
Y419115D01*
X801297Y376865D02*
X819710D01*
X801273Y376840D02*
X801297Y376865D01*
X801528Y311865D02*
X819710D01*
X801528Y311865D02*
X801528Y311865D01*
X801278Y346615D02*
X801528Y346865D01*
X819710D01*
X913778Y341865D02*
X913778Y341865D01*
X991340Y472561D02*
Y498496D01*
X993590Y734691D02*
Y760061D01*
X1064340Y376623D02*
X1064648Y376931D01*
X991206Y498630D02*
X991340Y498496D01*
X993590Y760061D02*
X993590Y760061D01*
X1066840Y632826D02*
X1066840Y632825D01*
D13*
X560461Y327232D02*
X594537D01*
X474145Y378922D02*
X508770D01*
X560461Y327232D01*
X474145Y391622D02*
X502380D01*
X562771Y331232D02*
X592881D01*
X502380Y391622D02*
X562771Y331232D01*
X474246Y404222D02*
X495883D01*
X564873Y335232D02*
X587177D01*
X495883Y404222D02*
X564873Y335232D01*
X567287Y339334D02*
X584208D01*
X474145Y417022D02*
X489599D01*
X567287Y339334D01*
X594537Y327232D02*
X629171Y361865D01*
X592881Y331232D02*
X644475Y382826D01*
X587177Y335232D02*
X618749Y366804D01*
X584208Y339334D02*
X615213Y370339D01*
X569835Y343532D02*
X581335D01*
X611678Y373875D01*
X516904Y396463D02*
X569835Y343532D01*
X516904Y396463D02*
Y396464D01*
X483645Y429722D02*
X516904Y396464D01*
X474145Y429722D02*
X483645D01*
X474145Y404322D02*
X474246Y404222D01*
X1000686Y632531D02*
X1001217Y633061D01*
X1000686Y615734D02*
Y632531D01*
X1116204Y413810D02*
X1148482Y381532D01*
X1059165Y413810D02*
X1116204D01*
X1048648Y403293D02*
X1059165Y413810D01*
X1090869Y666223D02*
X1140477D01*
X1166761Y639938D01*
X1083090Y658444D02*
X1090869Y666223D01*
X1062729Y670222D02*
X1145921D01*
X1050816Y658310D02*
X1062729Y670222D01*
X1145921D02*
X1181813Y634331D01*
X1083090Y649576D02*
Y658444D01*
X1181897Y594938D02*
X1182316D01*
X1166761Y610075D02*
X1181897Y594938D01*
X1166761Y610075D02*
Y639938D01*
X1181813Y621017D02*
Y634331D01*
Y621017D02*
X1182404Y620426D01*
X1050816Y649733D02*
Y658310D01*
X1182316Y594938D02*
X1182404Y595026D01*
X1194001Y359718D02*
X1207198Y346521D01*
X1166761Y359718D02*
X1194001D01*
X1156482Y369997D02*
X1166761Y359718D01*
X1156482Y369997D02*
Y386994D01*
X1144090Y344478D02*
Y379160D01*
X1152482Y358612D02*
Y383542D01*
X1057663Y478362D02*
Y498431D01*
X1113643Y409607D02*
X1144090Y379160D01*
X1089210Y409607D02*
X1113643D01*
X1057663Y478362D02*
X1125504Y410520D01*
X1148482Y349087D02*
Y381532D01*
X1125504Y410520D02*
X1152482Y383542D01*
X1073913Y469564D02*
Y498431D01*
Y469564D02*
X1156482Y386994D01*
X1164573Y346521D02*
X1181798D01*
X1152482Y358612D02*
X1164573Y346521D01*
X1048648Y393431D02*
Y403293D01*
X1167448Y321121D02*
X1181798D01*
X1144090Y344478D02*
X1167448Y321121D01*
X1148482Y349087D02*
X1164573Y332996D01*
X1080850Y393330D02*
Y401247D01*
X1089210Y409607D01*
X1195323Y332996D02*
X1207198Y321121D01*
X1164573Y332996D02*
X1195323D01*
X657340Y193191D02*
Y206691D01*
X651340Y212691D02*
Y218191D01*
Y212691D02*
X657340Y206691D01*
X573494Y162191D02*
X581058Y169756D01*
X517349Y162191D02*
X573494D01*
X581058Y169756D02*
X588155D01*
X588340Y169941D01*
X545179Y171191D02*
X546430Y169941D01*
X565340D01*
X572110D02*
X578380Y176211D01*
X595195D01*
X595215Y176191D01*
X635340D01*
X565340Y169941D02*
X572110D01*
X588340D02*
X595110D01*
X596360Y171191D01*
X635340D01*
X602077Y120750D02*
X602340Y121013D01*
X590250Y120750D02*
X602077D01*
X674340Y166191D02*
X682340D01*
X697840Y181691D01*
X674340Y161191D02*
X697340D01*
X697840Y161691D01*
X660939Y139654D02*
X666652Y133941D01*
X652365Y139654D02*
X660939D01*
X656927Y143654D02*
X667590D01*
X652340Y148241D02*
X656927Y143654D01*
X647340Y144679D02*
X652365Y139654D01*
X652340Y148241D02*
Y154191D01*
X647340Y144679D02*
Y154191D01*
X683090Y125878D02*
X701049D01*
X666652D02*
X683090D01*
X666340Y126191D02*
X666652Y126503D01*
Y133941D01*
X666340Y126191D02*
X666652Y125878D01*
X638559Y361865D02*
X643497Y366804D01*
Y366804D01*
X629171Y361865D02*
X638559D01*
X654104Y377410D02*
X654104D01*
X644475Y382826D02*
X648688D01*
X654104Y377410D01*
D62*
X545179Y188441D02*
D03*
X517349Y179941D02*
D03*
X545179Y171191D02*
D03*
X517349Y162191D02*
D03*
X545179Y153691D02*
D03*
D63*
X308000Y692134D02*
D03*
Y617134D02*
D03*
X308500Y580884D02*
D03*
Y505884D02*
D03*
X308750Y467884D02*
D03*
Y392884D02*
D03*
X308500Y355884D02*
D03*
Y280884D02*
D03*
X308750Y245384D02*
D03*
Y170384D02*
D03*
D66*
X990190Y157996D02*
D03*
X1040990D02*
D03*
X869394Y158496D02*
D03*
X920194D02*
D03*
D67*
X1015590Y55866D02*
D03*
X894794Y56366D02*
D03*
D68*
X1004770Y204164D02*
D03*
X989770D02*
D03*
Y188593D02*
D03*
X1004770D02*
D03*
X1041340Y204366D02*
D03*
X1056340D02*
D03*
Y188366D02*
D03*
X1041340D02*
D03*
X519182Y655078D02*
D03*
X534182D02*
D03*
X571998Y654689D02*
D03*
X556998D02*
D03*
X619590Y137170D02*
D03*
X604590D02*
D03*
X619590Y152941D02*
D03*
X604590D02*
D03*
X650340Y125441D02*
D03*
X635340D02*
D03*
X446326Y656298D02*
D03*
X461326D02*
D03*
X480141Y656364D02*
D03*
X495141D02*
D03*
X855274Y807112D02*
D03*
X840274D02*
D03*
X646604Y670179D02*
D03*
X661604D02*
D03*
X747811Y199286D02*
D03*
X762811D02*
D03*
X905199Y188593D02*
D03*
X920199D02*
D03*
X920541Y204164D02*
D03*
X905541D02*
D03*
X854394Y188866D02*
D03*
X869394D02*
D03*
X869294Y205116D02*
D03*
X854294D02*
D03*
X809023Y182904D02*
D03*
X794023D02*
D03*
X794311Y199286D02*
D03*
X809311D02*
D03*
X762811Y182786D02*
D03*
X747811D02*
D03*
X861541Y710112D02*
D03*
X876541D02*
D03*
X910011Y471024D02*
D03*
X895011D02*
D03*
X804710Y419115D02*
D03*
X819710D02*
D03*
X786273Y376840D02*
D03*
X801273D02*
D03*
X786278Y346615D02*
D03*
X801278D02*
D03*
X786528Y311865D02*
D03*
X801528D02*
D03*
X928778Y341865D02*
D03*
X913778D02*
D03*
X834120Y645042D02*
D03*
X819120D02*
D03*
X785590Y602431D02*
D03*
X800590D02*
D03*
X785590Y572431D02*
D03*
X800590D02*
D03*
X785590Y537431D02*
D03*
X800590D02*
D03*
X928090Y567681D02*
D03*
X913090D02*
D03*
X909980Y418445D02*
D03*
X894979D02*
D03*
X821530Y471973D02*
D03*
X836530D02*
D03*
D69*
X983182Y376730D02*
D03*
X1048648Y393431D02*
D03*
X1080850Y393330D02*
D03*
X666340Y109191D02*
D03*
Y126191D02*
D03*
X683090Y125941D02*
D03*
Y108941D02*
D03*
X1090121Y515433D02*
D03*
Y498433D02*
D03*
X1041545Y515523D02*
D03*
Y498523D02*
D03*
X1073913Y498431D02*
D03*
Y515431D02*
D03*
X1057663Y498431D02*
D03*
Y515431D02*
D03*
X1034316Y632733D02*
D03*
Y649733D02*
D03*
X1099125Y632673D02*
D03*
Y649673D02*
D03*
X1050816Y649733D02*
D03*
Y632733D02*
D03*
X1083090Y649576D02*
D03*
Y632575D02*
D03*
X1017717Y650061D02*
D03*
Y633061D02*
D03*
X968717Y650061D02*
D03*
Y633061D02*
D03*
X1001217D02*
D03*
Y650061D02*
D03*
X984967Y633061D02*
D03*
Y650061D02*
D03*
X961312Y759810D02*
D03*
Y776811D02*
D03*
X1026217Y759561D02*
D03*
Y776561D02*
D03*
X977455Y776961D02*
D03*
Y759961D02*
D03*
X1009717Y776811D02*
D03*
Y759811D02*
D03*
X556654Y574384D02*
D03*
Y591384D02*
D03*
X534670Y574431D02*
D03*
Y591431D02*
D03*
X480141Y574836D02*
D03*
Y591836D02*
D03*
X461326Y574836D02*
D03*
Y591836D02*
D03*
X651340Y218191D02*
D03*
X667590D02*
D03*
X651340Y235191D02*
D03*
X667590D02*
D03*
X1024873Y498649D02*
D03*
Y515649D02*
D03*
X974926Y498206D02*
D03*
Y515206D02*
D03*
X1007623Y515399D02*
D03*
Y498399D02*
D03*
X958640Y515130D02*
D03*
Y498130D02*
D03*
X983182Y393730D02*
D03*
X999406Y393522D02*
D03*
Y376522D02*
D03*
X966808Y376599D02*
D03*
Y393599D02*
D03*
X1015656Y376522D02*
D03*
Y393522D02*
D03*
X1080850Y376330D02*
D03*
X1048648Y376431D02*
D03*
X1097350Y393330D02*
D03*
Y376330D02*
D03*
X1032398Y393431D02*
D03*
Y376431D02*
D03*
X1055840Y261931D02*
D03*
Y244931D02*
D03*
X1072090Y261931D02*
D03*
Y244931D02*
D03*
X1039590Y244931D02*
D03*
Y261931D02*
D03*
X1088340Y244931D02*
D03*
Y261931D02*
D03*
D70*
X556528Y638954D02*
D03*
X573528D02*
D03*
X619340Y121013D02*
D03*
X602340D02*
D03*
X605993Y296170D02*
D03*
X588993D02*
D03*
X803931Y746706D02*
D03*
X786931D02*
D03*
X838860Y730464D02*
D03*
X821860D02*
D03*
X461539Y639811D02*
D03*
X444539D02*
D03*
X517446Y638942D02*
D03*
X534446D02*
D03*
X497308Y639811D02*
D03*
X480308D02*
D03*
X769160Y783362D02*
D03*
X752160D02*
D03*
D71*
X671782Y395088D02*
D03*
X668246Y391552D02*
D03*
X533896Y476405D02*
D03*
X537431Y479941D02*
D03*
X540967Y483476D02*
D03*
X544502Y487012D02*
D03*
X548038Y490547D02*
D03*
X551573Y494083D02*
D03*
X555109Y497618D02*
D03*
X558645Y501154D02*
D03*
X562180Y504689D02*
D03*
X565716Y508225D02*
D03*
X569251Y511760D02*
D03*
X572787Y515296D02*
D03*
X576322Y518832D02*
D03*
X579858Y522367D02*
D03*
X583393Y525903D02*
D03*
X586929Y529438D02*
D03*
X590464Y532974D02*
D03*
X594000Y536509D02*
D03*
X597535Y540045D02*
D03*
X601071Y543580D02*
D03*
X604607Y547116D02*
D03*
X608142Y550651D02*
D03*
X611678Y554187D02*
D03*
X615213Y557723D02*
D03*
X618749Y561258D02*
D03*
X728350Y451656D02*
D03*
X724815Y448121D02*
D03*
X721279Y444585D02*
D03*
X717744Y441050D02*
D03*
X714208Y437514D02*
D03*
X710673Y433979D02*
D03*
X707137Y430443D02*
D03*
X703601Y426908D02*
D03*
X700066Y423372D02*
D03*
X696530Y419837D02*
D03*
X692995Y416301D02*
D03*
X689459Y412766D02*
D03*
X685924Y409230D02*
D03*
X682388Y405695D02*
D03*
X678853Y402159D02*
D03*
X675317Y398624D02*
D03*
X664711Y388017D02*
D03*
X661175Y384481D02*
D03*
X657639Y380946D02*
D03*
X654104Y377410D02*
D03*
X650568Y373875D02*
D03*
X647033Y370339D02*
D03*
X643497Y366804D02*
D03*
D72*
X657340Y193191D02*
D03*
X642340D02*
D03*
X647340D02*
D03*
X652340D02*
D03*
X662340D02*
D03*
X667340D02*
D03*
Y154191D02*
D03*
X662340D02*
D03*
X657340D02*
D03*
X652340D02*
D03*
X647340D02*
D03*
X642340D02*
D03*
D73*
X635340Y176191D02*
D03*
X674340Y186191D02*
D03*
Y181191D02*
D03*
Y176191D02*
D03*
Y171191D02*
D03*
Y166191D02*
D03*
Y161191D02*
D03*
X635340D02*
D03*
Y166191D02*
D03*
Y171191D02*
D03*
Y181191D02*
D03*
Y186191D02*
D03*
D74*
X366050Y280884D02*
D03*
X337450D02*
D03*
X366050Y172376D02*
D03*
X337450D02*
D03*
X366050Y391945D02*
D03*
X337450D02*
D03*
Y506273D02*
D03*
X366050D02*
D03*
X367617Y616952D02*
D03*
X339017D02*
D03*
D75*
X654840Y173691D02*
D03*
X1193371Y167931D02*
D03*
X49500Y157384D02*
D03*
Y282134D02*
D03*
X49750Y406084D02*
D03*
Y529776D02*
D03*
Y655084D02*
D03*
D76*
X650090Y109441D02*
D03*
Y94441D02*
D03*
X476033Y279325D02*
D03*
Y264325D02*
D03*
X1066840Y647826D02*
D03*
Y632826D02*
D03*
X993590Y775061D02*
D03*
Y760061D02*
D03*
X612226Y836352D02*
D03*
Y821352D02*
D03*
X817672Y450234D02*
D03*
Y435234D02*
D03*
X801884Y450253D02*
D03*
Y435253D02*
D03*
X752035Y830043D02*
D03*
Y845043D02*
D03*
X767785Y830043D02*
D03*
Y845043D02*
D03*
X783785Y830043D02*
D03*
Y845043D02*
D03*
X991206Y498630D02*
D03*
Y513630D02*
D03*
X1064648Y376931D02*
D03*
Y391931D02*
D03*
X915090Y736459D02*
D03*
Y751459D02*
D03*
X899352Y736498D02*
D03*
Y751498D02*
D03*
X1249521Y432652D02*
D03*
Y417652D02*
D03*
Y448152D02*
D03*
Y463152D02*
D03*
D77*
X565340Y150741D02*
D03*
Y169941D02*
D03*
X588340D02*
D03*
D78*
Y152991D02*
D03*
D79*
X619340Y103948D02*
D03*
X701049Y125878D02*
D03*
X697840Y161691D02*
D03*
Y181691D02*
D03*
X266000Y825500D02*
D03*
X262750Y46933D02*
D03*
X1234144Y843523D02*
D03*
X990182Y222681D02*
D03*
X763201Y217146D02*
D03*
X626160Y325803D02*
D03*
X933055Y736498D02*
D03*
X883831Y768000D02*
D03*
X869500Y222681D02*
D03*
D80*
X497173Y234496D02*
D03*
Y279095D02*
D03*
X588173Y234496D02*
D03*
Y279095D02*
D03*
D81*
X546467Y709040D02*
D03*
Y739040D02*
D03*
X481136Y739467D02*
D03*
Y709467D02*
D03*
X449613Y708967D02*
D03*
Y738967D02*
D03*
X577845Y709004D02*
D03*
Y739004D02*
D03*
D82*
X714208Y490547D02*
D03*
X707137Y497618D02*
D03*
X692995Y511760D02*
D03*
X696530Y508225D02*
D03*
X700066Y504689D02*
D03*
X703601Y501154D02*
D03*
X710673Y494083D02*
D03*
X643497Y561258D02*
D03*
X647033Y557723D02*
D03*
X650568Y554187D02*
D03*
X654104Y550651D02*
D03*
X657639Y547116D02*
D03*
X661175Y543580D02*
D03*
X664711Y540045D02*
D03*
X668246Y536509D02*
D03*
X671782Y532974D02*
D03*
X675317Y529438D02*
D03*
X678853Y525903D02*
D03*
X682388Y522367D02*
D03*
X685924Y518832D02*
D03*
X689459Y515296D02*
D03*
X717744Y487012D02*
D03*
X721279Y483476D02*
D03*
X724815Y479941D02*
D03*
X728350Y476405D02*
D03*
X618749Y366804D02*
D03*
X615213Y370339D02*
D03*
X611678Y373875D02*
D03*
X608142Y377410D02*
D03*
X604607Y380946D02*
D03*
X601071Y384481D02*
D03*
X597535Y388017D02*
D03*
X594000Y391552D02*
D03*
X590464Y395088D02*
D03*
X586929Y398624D02*
D03*
X583393Y402159D02*
D03*
X579858Y405695D02*
D03*
X576322Y409230D02*
D03*
X572787Y412766D02*
D03*
X569251Y416301D02*
D03*
X565716Y419837D02*
D03*
X562180Y423372D02*
D03*
X558645Y426908D02*
D03*
X555109Y430443D02*
D03*
X551573Y433979D02*
D03*
X548038Y437514D02*
D03*
X544502Y441050D02*
D03*
X540967Y444585D02*
D03*
X537431Y448121D02*
D03*
X533896Y451656D02*
D03*
D83*
X895031Y435214D02*
D03*
Y454214D02*
D03*
X922531D02*
D03*
Y444714D02*
D03*
Y435214D02*
D03*
D84*
X839774Y782351D02*
D03*
X796774D02*
D03*
X795117Y709119D02*
D03*
X752117D02*
D03*
D85*
X1086340Y543801D02*
D03*
X1079840D02*
D03*
X1073340D02*
D03*
X1066840D02*
D03*
X1060340D02*
D03*
X1053840D02*
D03*
X1047340D02*
D03*
Y602561D02*
D03*
X1053840D02*
D03*
X1060340D02*
D03*
X1066840D02*
D03*
X1073340D02*
D03*
X1079840D02*
D03*
X1086340D02*
D03*
X1013090Y675931D02*
D03*
X1006590D02*
D03*
X1000090D02*
D03*
X993590D02*
D03*
X987090D02*
D03*
X980590D02*
D03*
X974090D02*
D03*
Y734691D02*
D03*
X980590D02*
D03*
X987090D02*
D03*
X993590D02*
D03*
X1000090D02*
D03*
X1006590D02*
D03*
X1013090D02*
D03*
X1083840Y348061D02*
D03*
X1077340D02*
D03*
X1070840D02*
D03*
X1064340D02*
D03*
X1057840D02*
D03*
X1051340D02*
D03*
X1044840D02*
D03*
Y289301D02*
D03*
X1051340D02*
D03*
X1057840D02*
D03*
X1064340D02*
D03*
X1070840D02*
D03*
X1077340D02*
D03*
X1083840D02*
D03*
X1010840Y472561D02*
D03*
X1004340D02*
D03*
X997840D02*
D03*
X991340D02*
D03*
X984840D02*
D03*
X978340D02*
D03*
X971840D02*
D03*
Y413801D02*
D03*
X978340D02*
D03*
X984840D02*
D03*
X991340D02*
D03*
X997840D02*
D03*
X1004340D02*
D03*
X1010840D02*
D03*
D86*
X820774Y759128D02*
D03*
Y752628D02*
D03*
Y746128D02*
D03*
X839774D02*
D03*
Y759128D02*
D03*
D87*
X1134340Y159976D02*
D03*
Y116976D02*
D03*
D88*
X732410Y784112D02*
D03*
Y807112D02*
D03*
Y830112D02*
D03*
D89*
X669410Y807112D02*
D03*
D90*
X818960Y627931D02*
D03*
Y622931D02*
D03*
Y617931D02*
D03*
Y612931D02*
D03*
Y607931D02*
D03*
Y602931D02*
D03*
Y597931D02*
D03*
Y592931D02*
D03*
Y587931D02*
D03*
Y582931D02*
D03*
Y577931D02*
D03*
Y572931D02*
D03*
Y567931D02*
D03*
Y562931D02*
D03*
Y557931D02*
D03*
Y552931D02*
D03*
Y547931D02*
D03*
Y542931D02*
D03*
Y537931D02*
D03*
Y532931D02*
D03*
Y527931D02*
D03*
Y522931D02*
D03*
Y517931D02*
D03*
Y512931D02*
D03*
X894720D02*
D03*
Y517931D02*
D03*
Y522931D02*
D03*
Y527931D02*
D03*
Y532931D02*
D03*
Y537931D02*
D03*
Y542931D02*
D03*
Y547931D02*
D03*
Y552931D02*
D03*
Y557931D02*
D03*
Y562931D02*
D03*
Y567931D02*
D03*
Y572931D02*
D03*
Y577931D02*
D03*
Y582931D02*
D03*
Y587931D02*
D03*
Y592931D02*
D03*
Y597931D02*
D03*
Y602931D02*
D03*
Y607931D02*
D03*
Y612931D02*
D03*
Y617931D02*
D03*
Y622931D02*
D03*
Y627931D02*
D03*
X819710Y401865D02*
D03*
Y396865D02*
D03*
Y391865D02*
D03*
Y386865D02*
D03*
Y381865D02*
D03*
Y376865D02*
D03*
Y371865D02*
D03*
Y366865D02*
D03*
Y361865D02*
D03*
Y356865D02*
D03*
Y351865D02*
D03*
Y346865D02*
D03*
Y341865D02*
D03*
Y336865D02*
D03*
Y331865D02*
D03*
Y326865D02*
D03*
Y321865D02*
D03*
Y316865D02*
D03*
Y311865D02*
D03*
Y306865D02*
D03*
Y301865D02*
D03*
Y296865D02*
D03*
Y291865D02*
D03*
Y286865D02*
D03*
X895470D02*
D03*
Y291865D02*
D03*
Y296865D02*
D03*
Y301865D02*
D03*
Y306865D02*
D03*
Y311865D02*
D03*
Y316865D02*
D03*
Y321865D02*
D03*
Y326865D02*
D03*
Y331865D02*
D03*
Y336865D02*
D03*
Y341865D02*
D03*
Y346865D02*
D03*
Y351865D02*
D03*
Y356865D02*
D03*
Y361865D02*
D03*
Y366865D02*
D03*
Y371865D02*
D03*
Y376865D02*
D03*
Y381865D02*
D03*
Y386865D02*
D03*
Y391865D02*
D03*
Y396865D02*
D03*
Y401865D02*
D03*
D91*
X474145Y378922D02*
D03*
Y391622D02*
D03*
Y404322D02*
D03*
Y417022D02*
D03*
Y429722D02*
D03*
Y442422D02*
D03*
Y455122D02*
D03*
Y467822D02*
D03*
X420145Y378922D02*
D03*
Y391622D02*
D03*
Y404322D02*
D03*
Y417022D02*
D03*
Y429722D02*
D03*
Y442422D02*
D03*
Y455122D02*
D03*
Y467822D02*
D03*
D92*
X786061Y85886D02*
D03*
D93*
X763201Y157686D02*
D03*
X808921D02*
D03*
D94*
X509974Y476100D02*
D03*
X497953Y488121D02*
D03*
X485918Y499515D02*
D03*
X473897Y511536D02*
D03*
D95*
X641691Y342329D02*
D03*
X664318Y319702D02*
D03*
D96*
X752606Y664256D02*
D03*
Y681256D02*
D03*
D97*
X522181Y488576D02*
D03*
X511575Y499183D02*
D03*
X673404Y351834D02*
D03*
X662798Y362441D02*
D03*
X740651Y417321D02*
D03*
X730045Y427927D02*
D03*
X751553Y428447D02*
D03*
X740947Y439053D02*
D03*
D98*
X666707Y584234D02*
D03*
X656100Y573628D02*
D03*
X527457Y409952D02*
D03*
X538063Y420559D02*
D03*
X559284Y377541D02*
D03*
X569891Y388148D02*
D03*
X548284Y388418D02*
D03*
X558891Y399024D02*
D03*
X762591Y490322D02*
D03*
X751985Y479715D02*
D03*
X751410Y501104D02*
D03*
X740803Y490497D02*
D03*
X580978Y355680D02*
D03*
X591585Y366287D02*
D03*
X570368Y366468D02*
D03*
X580975Y377075D02*
D03*
D99*
X855841Y445113D02*
D03*
X836841Y435613D02*
D03*
Y454613D02*
D03*
X880416Y736349D02*
D03*
X861416Y726850D02*
D03*
Y745850D02*
D03*
D100*
X703601Y426908D02*
X740013Y390497D01*
X764228D02*
X776730Y402999D01*
X740013Y390497D02*
X764228D01*
X657250Y263889D02*
X712770Y319410D01*
X668246Y391552D02*
X712770Y347028D01*
Y319410D02*
Y347028D01*
X671782Y395088D02*
X717744Y349126D01*
X661750Y262025D02*
X717744Y318019D01*
Y349126D01*
X657250Y256910D02*
Y263889D01*
X661750Y256840D02*
Y262025D01*
X719563Y470495D02*
Y474428D01*
Y470495D02*
X736786Y453272D01*
X719563Y474428D02*
X724815Y479680D01*
Y479941D01*
X979996Y567161D02*
X1041150D01*
X1053840Y554471D01*
X925766Y512931D02*
X979996Y567161D01*
X1010840Y413801D02*
Y431889D01*
X1004770Y437959D02*
X1010840Y431889D01*
X998216Y442944D02*
X1004340D01*
X998158Y443003D02*
X998216Y442944D01*
X1004340D02*
X1010840Y449444D01*
Y472561D01*
X940998Y705612D02*
X1007873D01*
X1013090Y675931D02*
Y700395D01*
X1007873Y705612D02*
X1013090Y700395D01*
X1006590Y734691D02*
X1013090D01*
Y715829D02*
Y723582D01*
X1007374Y710112D02*
X1013090Y715829D01*
Y723582D02*
Y734691D01*
X649473Y451495D02*
X677661Y479683D01*
X649473Y389112D02*
Y451495D01*
Y389112D02*
X657639Y380946D01*
X802244Y435613D02*
X836841D01*
X801631Y435000D02*
X801884Y435253D01*
X788750Y435000D02*
X801631D01*
X776730Y402999D02*
Y500087D01*
X794574Y517931D02*
X818960D01*
X776730Y500087D02*
X794574Y517931D01*
X801884Y435253D02*
X802244Y435613D01*
X941513Y307865D02*
X1038320D01*
X1044840Y289301D02*
Y301345D01*
X1038320Y307865D02*
X1044840Y301345D01*
Y329705D02*
Y348061D01*
X1037000Y321865D02*
X1044840Y329705D01*
Y348061D02*
X1051340D01*
X895470Y316865D02*
X1074090D01*
X1083840Y326615D02*
Y348061D01*
X1074090Y316865D02*
X1083840Y326615D01*
X939649Y312365D02*
X1075154D01*
X1083840Y303679D01*
Y289301D02*
Y303679D01*
X1077340Y348061D02*
X1083840D01*
X895470Y321865D02*
X1037000D01*
X920513Y286865D02*
X941513Y307865D01*
X919149Y291865D02*
X939649Y312365D01*
X1044671Y581261D02*
X1053840Y590431D01*
X941071Y547931D02*
X974402Y581261D01*
X1053840Y590431D02*
Y602561D01*
X974402Y581261D02*
X1044671D01*
X894720Y547931D02*
X941071D01*
X1079840Y602561D02*
X1086340D01*
Y597436D02*
Y602561D01*
X1079631Y576762D02*
X1086340Y583471D01*
Y597436D01*
X1079840Y543801D02*
X1086340D01*
X1075167Y571661D02*
X1079396D01*
X1086340Y543801D02*
Y564717D01*
X1079396Y571661D02*
X1086340Y564717D01*
X977529Y571661D02*
X1075167D01*
X976266Y576762D02*
X1079631D01*
X1050816Y626983D02*
X1060340Y617459D01*
Y602561D02*
Y617459D01*
X819750Y276250D02*
Y286825D01*
X819710Y286865D02*
X819750Y286825D01*
X1024111Y518929D02*
Y527746D01*
X1022852Y517670D02*
X1024111Y518929D01*
X1022852Y517670D02*
X1024873Y515649D01*
X1051471Y794328D02*
X1207804Y637994D01*
Y620426D02*
Y637994D01*
X1013682Y794328D02*
X1051471D01*
X988010Y799464D02*
X1052698D01*
X1117471Y734691D02*
X1205030D01*
X1052698Y799464D02*
X1117471Y734691D01*
X1009717Y790362D02*
X1013682Y794328D01*
X977455Y788909D02*
X988010Y799464D01*
X977455Y776961D02*
Y788909D01*
X1032399Y376431D02*
X1048648D01*
X1070840Y360570D02*
X1080850Y370580D01*
X1070840Y348061D02*
Y360570D01*
X1048648Y370681D02*
X1057840Y361489D01*
Y348061D02*
Y361489D01*
X1048648Y370681D02*
Y376431D01*
X1009717Y777185D02*
X1009904Y776998D01*
X1009717Y777185D02*
Y790362D01*
Y776811D02*
X1009904Y776998D01*
X818960Y512931D02*
X819250D01*
X819500Y512681D01*
Y505750D02*
Y512681D01*
X661175Y384403D02*
Y384481D01*
Y384403D02*
X684750Y360828D01*
Y360750D02*
Y360828D01*
X651340Y235191D02*
Y251000D01*
X667590Y235191D02*
Y251000D01*
X651340D02*
X657250Y256910D01*
X661750Y256840D02*
X667590Y251000D01*
X650090Y109441D02*
Y135919D01*
X649650Y109000D02*
X650090Y109441D01*
X639750Y109000D02*
X649650D01*
X1044840Y289301D02*
X1051340D01*
X1077340D02*
X1083840D01*
X966938Y393730D02*
X983182D01*
X966808Y393599D02*
X966938Y393730D01*
X999406Y393522D02*
X1015655D01*
X1015656Y393522D01*
X983182Y393730D02*
Y399479D01*
X984840Y401137D01*
Y413801D01*
X999406Y393522D02*
Y399272D01*
X997840Y400838D02*
X999406Y399272D01*
X997840Y400838D02*
Y413801D01*
X958716Y498206D02*
X974926D01*
X958640Y498130D02*
X958716Y498206D01*
X1007873Y498649D02*
X1024873D01*
X1007623Y498399D02*
X1007873Y498649D01*
X974926Y492456D02*
Y498206D01*
Y492456D02*
X984840Y482541D01*
Y472561D02*
Y482541D01*
X1007623Y492649D02*
Y498399D01*
X997840Y482866D02*
X1007623Y492649D01*
X997840Y472561D02*
Y482866D01*
X961462Y759961D02*
X977455D01*
X961312Y759810D02*
X961462Y759961D01*
X1025967Y759811D02*
X1026217Y759561D01*
X1009717Y759811D02*
X1025967D01*
X977455Y754211D02*
Y759961D01*
Y754211D02*
X987090Y744576D01*
Y734691D02*
Y744576D01*
X1009717Y754061D02*
Y759811D01*
X1000090Y744434D02*
X1009717Y754061D01*
X1000090Y734691D02*
Y744434D01*
X984967Y650061D02*
X984967Y650061D01*
X968717Y650061D02*
X984967D01*
X1001217D02*
X1017717D01*
X984967Y650061D02*
Y655811D01*
X987090Y657934D01*
Y675931D01*
X1001217Y650061D02*
Y655811D01*
X1000090Y656937D02*
X1001217Y655811D01*
X1000090Y656937D02*
Y675931D01*
X1050816Y632733D02*
X1050816Y632733D01*
X1034316Y632733D02*
X1050816D01*
X1099028Y632575D02*
X1099125Y632673D01*
X1083090Y632575D02*
X1099028D01*
X1050816Y626983D02*
Y632733D01*
X1041638Y515431D02*
X1057663D01*
X1041545Y515523D02*
X1041638Y515431D01*
X1090119D02*
X1090121Y515433D01*
X1073913Y515431D02*
X1090119D01*
X1057663D02*
Y521181D01*
X1060340Y523858D01*
Y543801D01*
X1032398Y376431D02*
X1032399Y376431D01*
X1097350Y376330D02*
X1097350Y376330D01*
X1080850Y376330D02*
X1097350D01*
X1080850Y370580D02*
Y376330D01*
X1039590Y261931D02*
X1055840D01*
X1039590Y261931D02*
X1039590Y261931D01*
X1072090D02*
X1088340D01*
X1055840D02*
Y267681D01*
X1057840Y269681D01*
Y289301D01*
X1072090Y261931D02*
Y267681D01*
X1070840Y268931D02*
X1072090Y267681D01*
X1070840Y268931D02*
Y289301D01*
X476033Y279325D02*
X496943D01*
X497173Y279095D01*
X588173D02*
X588993Y279915D01*
Y306865D01*
X642340Y143669D02*
X650090Y135919D01*
X642340Y143669D02*
Y154191D01*
X550430Y150741D02*
X565340D01*
X547479Y153691D02*
X550430Y150741D01*
X545179Y153691D02*
X547479D01*
X619340Y121013D02*
Y152691D01*
Y103948D02*
Y121013D01*
Y152691D02*
X619590Y152941D01*
X635340Y156311D02*
Y161191D01*
X631970Y152941D02*
X635340Y156311D01*
X619590Y152941D02*
X631970D01*
X635340Y161191D02*
Y166191D01*
X650340Y109191D02*
X666340D01*
X650090Y109441D02*
X650340Y109191D01*
X820604Y758958D02*
X820774Y759128D01*
X804679Y758958D02*
X820604D01*
X804510Y758789D02*
X804679Y758958D01*
X769350Y718840D02*
Y796201D01*
X758439Y807112D02*
X769350Y796201D01*
X732410Y807112D02*
X758439D01*
X795117Y709119D02*
Y780695D01*
X769350Y718840D02*
X779071Y709119D01*
X795117D01*
X875743Y745850D02*
X883831Y753938D01*
X861416Y745850D02*
X875743D01*
X861277Y745989D02*
X861416Y745850D01*
X839913Y745989D02*
X861277D01*
X839774Y746128D02*
X839913Y745989D01*
X838860Y730464D02*
Y745378D01*
X839610Y746128D01*
X839774D01*
X883831Y753938D02*
Y768000D01*
X861541Y710112D02*
Y726725D01*
X861416Y726850D02*
X861541Y726725D01*
X796111Y710112D02*
X861541D01*
X795117Y709119D02*
X796111Y710112D01*
X821860Y730464D02*
Y745378D01*
X821110Y746128D02*
X821860Y745378D01*
X820774Y746128D02*
X821110D01*
X803931Y746706D02*
X804510Y746128D01*
X820774D01*
X795117Y780695D02*
X796774Y782351D01*
X752606Y681256D02*
Y706366D01*
X752117Y709119D02*
X752160Y709076D01*
Y783362D01*
Y706812D02*
Y709076D01*
Y706812D02*
X752606Y706366D01*
X707867Y708506D02*
X751505D01*
X752117Y709119D01*
X732410Y784112D02*
X751410D01*
X752160Y783362D01*
X579858Y405695D02*
X580026D01*
X589332Y415000D01*
X589500D01*
X1004340Y413801D02*
X1010840D01*
X1004340Y472561D02*
X1010840D01*
X946412Y437959D02*
X1004770D01*
X945091Y443003D02*
X998158D01*
X971840Y413801D02*
X978340D01*
X948044Y433227D02*
X968957D01*
X978340Y423843D01*
Y413801D02*
Y423843D01*
X964878Y448121D02*
X978340Y461582D01*
X942451Y448121D02*
X964878D01*
X978340Y461582D02*
Y472561D01*
X971840D02*
X978340D01*
X945571Y397083D02*
Y430754D01*
X948044Y433227D01*
X926074Y377586D02*
X945571Y397083D01*
X926074Y368133D02*
Y377586D01*
X909806Y351865D02*
X926074Y368133D01*
X895470Y351865D02*
X909806D01*
X941071Y398947D02*
Y432618D01*
X946412Y437959D01*
X921574Y379450D02*
X941071Y398947D01*
X921574Y369997D02*
Y379450D01*
X908442Y356865D02*
X921574Y369997D01*
X895470Y356865D02*
X908442D01*
X936068Y433979D02*
X945091Y443003D01*
X936068Y400308D02*
Y433979D01*
X917625Y381865D02*
X936068Y400308D01*
X895470Y381865D02*
X917625D01*
X931568Y437238D02*
X942451Y448121D01*
X931568Y402172D02*
Y437238D01*
X916261Y386865D02*
X931568Y402172D01*
X895470Y386865D02*
X916261D01*
X1006590Y675931D02*
X1013090D01*
X975717Y701112D02*
X980590Y696239D01*
Y675931D02*
Y696239D01*
X944038Y701112D02*
X975717D01*
X976041Y715669D02*
X980590Y720218D01*
X938327Y715669D02*
X976041D01*
X980590Y720218D02*
Y734691D01*
X939134Y710112D02*
X1007374D01*
X974090Y675931D02*
X980590D01*
X974090Y734691D02*
X980590D01*
X928062Y685136D02*
X944038Y701112D01*
X928062Y597281D02*
Y685136D01*
X908712Y577931D02*
X928062Y597281D01*
X894720Y577931D02*
X908712D01*
X922531Y687145D02*
X940998Y705612D01*
X922531Y598114D02*
Y687145D01*
X907348Y582931D02*
X922531Y598114D01*
X894720Y582931D02*
X907348D01*
X918031Y689009D02*
X939134Y710112D01*
X918031Y618753D02*
Y689009D01*
X907209Y607931D02*
X918031Y618753D01*
X894720Y607931D02*
X907209D01*
X913531Y690873D02*
X938327Y715669D01*
X913531Y620617D02*
Y690873D01*
X905845Y612931D02*
X913531Y620617D01*
X894720Y612931D02*
X905845D01*
X1047340Y543801D02*
X1053840D01*
X1047340Y602561D02*
X1053840D01*
Y543801D02*
Y554471D01*
X894720Y512931D02*
X925766D01*
X923799Y517931D02*
X977529Y571661D01*
X894720Y517931D02*
X923799D01*
X942435Y542931D02*
X976266Y576762D01*
X894720Y542931D02*
X942435D01*
X895470Y291865D02*
X919149D01*
X895470Y286865D02*
X920513D01*
D101*
X1220286Y708945D02*
X1241121Y688111D01*
X1226750Y569626D02*
X1241121Y583997D01*
Y688111D01*
X1207804Y569626D02*
X1226750D01*
X1205376Y708945D02*
X1220286D01*
X1205030Y709291D02*
X1205376Y708945D01*
X1041340Y124090D02*
Y173356D01*
X1041250Y124000D02*
X1041340Y124090D01*
X308000Y617134D02*
X338835D01*
X339017Y616952D01*
X839774Y782351D02*
X858227D01*
X420145Y467822D02*
Y479911D01*
X393769Y506287D02*
X420145Y479911D01*
X337450Y506273D02*
X337473Y506250D01*
X352250D01*
X732445Y830078D02*
X783751D01*
X783785Y830043D02*
X831869D01*
X840274Y821639D01*
Y807112D02*
Y821639D01*
X839774Y782351D02*
X840274Y782851D01*
Y807112D01*
X732410Y830112D02*
X732445Y830078D01*
X783751D02*
X783785Y830043D01*
X839774Y759128D02*
Y782351D01*
X335458Y170384D02*
X337450Y172376D01*
X308750Y170384D02*
X335458D01*
X308500Y280884D02*
X337450D01*
X336511Y392884D02*
X337450Y391945D01*
X308750Y392884D02*
X336511D01*
X337062Y505884D02*
X337450Y506273D01*
X308500Y505884D02*
X337062D01*
D102*
X1041165Y158171D02*
Y204191D01*
X1040990Y157996D02*
X1041165Y158171D01*
Y204191D02*
X1041340Y204366D01*
D103*
X1042410Y159976D02*
X1134340D01*
D104*
X1193138Y117053D02*
X1193216Y116976D01*
X1134340D02*
X1134418Y117053D01*
X1193138D01*
D105*
X1193216Y116976D02*
X1193371Y117131D01*
D106*
X636107Y543900D02*
X728350Y451656D01*
X636107Y553868D02*
X643497Y561258D01*
X636107Y543900D02*
Y553868D01*
X740947Y439053D02*
Y439060D01*
Y439053D02*
Y439053D01*
X739061Y438116D02*
X740947D01*
X720500Y419555D02*
X739061Y438116D01*
X728350Y451656D02*
X740947Y439060D01*
X740803Y490497D02*
X751585Y479715D01*
X626160Y325803D02*
X654654Y354297D01*
X604607Y380946D02*
X604966D01*
X615453Y391433D01*
X616480D01*
X570183Y388439D02*
X591585Y367037D01*
X761061Y346468D02*
X775665Y331865D01*
X819710D01*
X748686Y346468D02*
X761061D01*
X759641Y341468D02*
X779244Y321865D01*
X746615Y341468D02*
X759641D01*
X779244Y321865D02*
X819710D01*
X770832Y377586D02*
X780110Y386865D01*
X696530Y419837D02*
X738781Y377586D01*
X770832D01*
X700066Y423372D02*
X739587Y383851D01*
X770676D02*
X783690Y396865D01*
X739587Y383851D02*
X770676D01*
X480141Y639811D02*
Y656364D01*
X679569Y576117D02*
Y598036D01*
X660119Y617486D02*
Y620354D01*
Y617486D02*
X679569Y598036D01*
X655867Y573628D02*
X656100D01*
X590766Y367105D02*
X591585Y366287D01*
X538063Y420559D02*
X559266Y399356D01*
X558891Y398981D02*
X569807Y388064D01*
X533896Y476405D02*
X534187D01*
X751585Y479715D02*
X751985D01*
X758208Y473492D01*
Y456315D02*
Y473492D01*
X740947Y439053D02*
X758208Y456315D01*
X720500Y419555D02*
X720500D01*
X654654Y354297D02*
X662798Y362441D01*
X517446Y441176D02*
Y468628D01*
Y441176D02*
X538063Y420559D01*
Y420559D02*
Y420559D01*
X509974Y476100D02*
X517446Y468628D01*
X509974Y476100D02*
X509974D01*
X985250Y614855D02*
Y632777D01*
Y614855D02*
X985712Y614393D01*
X998720Y375837D02*
X999406Y376522D01*
X998720Y331371D02*
Y375837D01*
X983218Y330482D02*
Y376694D01*
X983182Y376730D02*
X983218Y376694D01*
X984967Y633061D02*
X985250Y632777D01*
X1073340Y617056D02*
X1083090Y626806D01*
X1073340Y602561D02*
Y617056D01*
X1207198Y244198D02*
Y270321D01*
X1180831Y217831D02*
X1207198Y244198D01*
X1068158Y217831D02*
X1180831D01*
X1055840Y230149D02*
Y244931D01*
Y230149D02*
X1068158Y217831D01*
X1181798Y249298D02*
Y270321D01*
X1159006Y226506D02*
X1181798Y249298D01*
X1077340Y226506D02*
X1159006D01*
X1072090Y231756D02*
Y244931D01*
Y231756D02*
X1077340Y226506D01*
X974468Y515664D02*
X974926Y515206D01*
X974468Y515664D02*
Y527250D01*
X614239Y565768D02*
X618749Y561258D01*
X654104Y550651D02*
X654104D01*
X679569Y576117D01*
X556654Y591384D02*
Y664235D01*
X577845Y685425D02*
Y709004D01*
X556654Y664235D02*
X577845Y685425D01*
X534670Y591431D02*
Y673591D01*
X546467Y685388D02*
Y709040D01*
X534670Y673591D02*
X546467Y685388D01*
X480141Y656364D02*
Y708473D01*
Y591836D02*
Y639811D01*
Y708473D02*
X481136Y709467D01*
X461326Y591836D02*
Y656298D01*
X449613Y683274D02*
Y708967D01*
X461326Y656298D02*
Y671560D01*
X449613Y683274D02*
X461326Y671560D01*
X424855Y760255D02*
X485328Y820728D01*
X424855Y718216D02*
X434104Y708967D01*
X424855Y718216D02*
Y760255D01*
X485328Y820728D02*
X501952D01*
X434104Y708967D02*
X449613D01*
X552752Y795328D02*
X570002D01*
X601071Y713426D02*
Y764259D01*
X570002Y795328D02*
X601071Y764259D01*
X517446Y719014D02*
Y784278D01*
X527352Y794184D02*
Y795328D01*
X517446Y784278D02*
X527352Y794184D01*
X499474Y709467D02*
X509529Y719522D01*
X481136Y709467D02*
X499474D01*
X509529Y719522D02*
Y784112D01*
X501952Y791690D02*
X509529Y784112D01*
X501952Y791690D02*
Y795328D01*
X517446Y719014D02*
X527420Y709040D01*
Y709040D02*
Y709040D01*
Y709040D02*
X546467D01*
X577845Y709004D02*
X596648D01*
X601071Y713426D01*
X556654Y531429D02*
Y574384D01*
X534670Y546342D02*
Y574431D01*
Y546342D02*
X569251Y511760D01*
X505524Y532974D02*
X534155D01*
X480141Y558356D02*
Y574836D01*
Y558356D02*
X505524Y532974D01*
X493065Y526958D02*
X533099D01*
X461326Y558697D02*
Y574836D01*
Y558697D02*
X493065Y526958D01*
X605993Y296170D02*
X618356D01*
X626160Y303973D02*
Y325803D01*
X618356Y296170D02*
X626160Y303973D01*
X662002Y362441D02*
X662798D01*
X650568Y373875D02*
X662002Y362441D01*
X728350Y476405D02*
X740803Y488858D01*
Y490497D01*
X667590Y212421D02*
Y218191D01*
X662340Y207171D02*
X667590Y212421D01*
X662340Y193191D02*
Y207171D01*
X1083090Y626806D02*
Y632575D01*
X1073913Y515431D02*
Y521201D01*
X1073340Y521773D02*
X1073913Y521201D01*
X1073340Y521773D02*
Y543801D01*
X591585Y367037D02*
Y367924D01*
X538153Y420559D02*
X551573Y433979D01*
X538063Y420559D02*
X538153D01*
X558891Y398981D02*
Y399024D01*
X591585Y367924D02*
X604607Y380946D01*
X608142Y377410D01*
X485918Y499515D02*
X497312Y488121D01*
X485918Y499515D02*
X485918D01*
X505235Y518832D01*
X533896D01*
X555109Y497618D02*
X555109D01*
X533896Y518832D02*
X555109Y497618D01*
X497312Y488121D02*
X497953D01*
X509974Y476100D02*
X522181Y488308D01*
Y488576D01*
X533896Y476405D02*
Y476697D01*
X528234Y482358D02*
X533896Y476697D01*
X528234Y482358D02*
Y482523D01*
X522181Y488576D02*
X528234Y482523D01*
X643497Y561258D02*
X655867Y573628D01*
X534155Y532974D02*
X557061Y510067D01*
X533099Y526958D02*
X553526Y506532D01*
Y506273D02*
Y506532D01*
Y506273D02*
X558645Y501154D01*
X557061Y509808D02*
Y510067D01*
Y509808D02*
X562180Y504689D01*
X556654Y531429D02*
X572787Y515296D01*
X779147Y301865D02*
X819710D01*
X782076Y291865D02*
X819710D01*
X750757Y351468D02*
X766731D01*
X772128Y356865D01*
X752828Y356468D02*
X764207D01*
X774604Y366865D01*
X780110Y386865D02*
X819710D01*
X783690Y396865D02*
X819710D01*
X772128Y356865D02*
X819710D01*
X774604Y366865D02*
X819710D01*
X675317Y398624D02*
X782076Y291865D01*
X678853Y402159D02*
X779147Y301865D01*
X682388Y405695D02*
X746615Y341468D01*
X685924Y409230D02*
X748686Y346468D01*
X689459Y412766D02*
X750757Y351468D01*
X692995Y416301D02*
X752828Y356468D01*
X703601Y501154D02*
X774108Y571661D01*
X778151Y582884D02*
X781919D01*
X781966Y582931D01*
X774108Y578841D02*
X778151Y582884D01*
X774108Y571661D02*
Y578841D01*
X769004Y581261D02*
X780673Y592931D01*
X818960D01*
X700066Y504689D02*
X769004Y573627D01*
X696530Y508225D02*
X763543Y575237D01*
Y598322D01*
X769004Y573627D02*
Y581261D01*
X763543Y598322D02*
X778151Y612931D01*
X818960D01*
X692995Y511760D02*
X758961Y577726D01*
Y584097D01*
X759003D02*
Y607303D01*
X774630Y622931D02*
X818960D01*
X759003Y607303D02*
X774630Y622931D01*
X781966Y582931D02*
X818960D01*
X767449Y557931D02*
X818960D01*
X707137Y497618D02*
X767449Y557931D01*
X764520Y547931D02*
X818960D01*
X710673Y494083D02*
X764520Y547931D01*
X751591Y527931D02*
X818960D01*
X714208Y490547D02*
X751591Y527931D01*
D107*
X344319Y692134D02*
X367617Y668836D01*
Y616952D02*
Y668836D01*
X377438Y456991D02*
Y577114D01*
X367617Y586934D02*
Y616952D01*
Y586934D02*
X377438Y577114D01*
X836530Y454923D02*
Y471973D01*
Y454923D02*
X836841Y454613D01*
X895021Y454224D02*
X895031Y454214D01*
X894832Y454413D02*
X895021Y454224D01*
X836841Y454613D02*
X837040Y454413D01*
X894832D01*
X763201Y157686D02*
Y217146D01*
X1163740Y448121D02*
X1181798D01*
X1132000Y479861D02*
Y596500D01*
Y479861D02*
X1163740Y448121D01*
X1181813Y448136D02*
X1249505D01*
X1249521Y448152D01*
X1181798Y448121D02*
X1181813Y448136D01*
X1249521Y432652D02*
Y448152D01*
X880491Y736424D02*
X932980D01*
X933055Y736498D02*
X933304Y736249D01*
X946251D01*
X946500Y736000D01*
X871532Y222541D02*
X894700D01*
X894765Y453948D02*
X895031Y454214D01*
X894765Y444626D02*
Y453948D01*
X894499Y444360D02*
X894765Y444626D01*
X895031Y454214D02*
X922531D01*
X895011Y471024D02*
X895021Y471014D01*
Y454224D02*
Y471014D01*
X880416Y736349D02*
X880491Y736424D01*
X932980D02*
X933055Y736498D01*
X396819Y184530D02*
Y367519D01*
X407973Y378672D02*
X419895D01*
X396819Y367519D02*
X407973Y378672D01*
X377438Y280884D02*
X387621Y291068D01*
Y378317D02*
X400927Y391622D01*
X387621Y291068D02*
Y378317D01*
X384666Y172376D02*
X396819Y184530D01*
X419895Y378672D02*
X420145Y378922D01*
X308500Y355884D02*
X343627D01*
X366050Y280884D02*
Y333461D01*
X343627Y355884D02*
X366050Y333461D01*
Y280884D02*
X377438D01*
X308000Y692134D02*
X344319D01*
X377438Y456991D02*
X404706Y429722D01*
X366050Y172376D02*
X384666D01*
X335315Y245384D02*
X366050Y214650D01*
Y172376D02*
Y214650D01*
X308750Y245384D02*
X335315D01*
X366050Y506273D02*
Y542314D01*
X328750Y579614D02*
X366050Y542314D01*
X308500Y580884D02*
X309771Y579614D01*
X328750D01*
X308866Y468000D02*
X321664D01*
X366050Y391945D02*
Y423614D01*
X321664Y468000D02*
X366050Y423614D01*
X308750Y467884D02*
X308866Y468000D01*
X390504Y417022D02*
X420145D01*
X366050Y441477D02*
Y506273D01*
Y441477D02*
X390504Y417022D01*
X376184Y391945D02*
X388561Y404322D01*
X366050Y391945D02*
X376184D01*
X388561Y404322D02*
X420145D01*
X404706Y429722D02*
X420145D01*
X400927Y391622D02*
X420145D01*
D108*
X920694Y157996D02*
X990190D01*
X920368Y158670D02*
Y203990D01*
X870533Y221542D02*
X871532Y222541D01*
X869447Y222628D02*
X870533Y221542D01*
X869447Y158549D02*
Y222628D01*
X809311Y158076D02*
Y199286D01*
X808921Y157686D02*
X868584D01*
X869394Y158496D01*
X990186Y158000D02*
Y222677D01*
X808921Y157686D02*
X809311Y158076D01*
X869394Y158496D02*
X869447Y158549D01*
X990186Y158000D02*
X990190Y157996D01*
X990182Y222681D02*
X990186Y222677D01*
D109*
X669410Y807112D02*
X732410D01*
D110*
X1126000Y825000D02*
D03*
X1123265Y48500D02*
D03*
D111*
X530679Y208531D02*
D03*
X530429Y133941D02*
D03*
D112*
X552752Y820728D02*
D03*
D113*
Y795328D02*
D03*
X527352Y820728D02*
D03*
Y795328D02*
D03*
X501952Y820728D02*
D03*
Y795328D02*
D03*
X1181798Y448121D02*
D03*
X1207198D02*
D03*
X1181798Y422721D02*
D03*
X1207198D02*
D03*
X1181798Y397321D02*
D03*
X1207198D02*
D03*
X1181798Y371921D02*
D03*
X1207198D02*
D03*
X1181798Y346521D02*
D03*
X1207198D02*
D03*
X1181798Y321121D02*
D03*
X1207198D02*
D03*
X1181798Y295721D02*
D03*
X1207198D02*
D03*
X1181798Y270321D02*
D03*
X1182404Y620426D02*
D03*
X1207804D02*
D03*
X1182404Y595026D02*
D03*
X1207804D02*
D03*
X1182404Y569626D02*
D03*
D114*
X1207198Y270321D02*
D03*
X1207804Y569626D02*
D03*
D115*
X1193371Y117131D02*
D03*
X49500Y208184D02*
D03*
Y332934D02*
D03*
X49750Y456884D02*
D03*
Y580576D02*
D03*
Y705884D02*
D03*
D116*
X707867Y708506D02*
D03*
Y683106D02*
D03*
Y657706D02*
D03*
D117*
X206000Y693134D02*
D03*
X130250Y692134D02*
D03*
X206500Y581884D02*
D03*
X130750Y580884D02*
D03*
X206750Y468884D02*
D03*
X131000Y467884D02*
D03*
X206500Y356884D02*
D03*
X130750Y355884D02*
D03*
X206750Y246384D02*
D03*
X131000Y245384D02*
D03*
D118*
X660119Y645754D02*
D03*
X660119Y620354D02*
D03*
X634719Y645754D02*
D03*
Y620354D02*
D03*
X609319Y645754D02*
D03*
D119*
Y620354D02*
D03*
D120*
X1205030Y709291D02*
D03*
D121*
Y734691D02*
D03*
Y760091D02*
D03*
D122*
X789506Y411862D02*
D03*
X874475Y560931D02*
D03*
X955442Y157996D02*
D03*
X746911Y461980D02*
D03*
X736786Y453272D02*
D03*
X639775Y521213D02*
D03*
X616480Y391433D02*
D03*
X1026750Y540091D02*
D03*
X312806Y198460D02*
D03*
X312362Y225102D02*
D03*
X311695Y307023D02*
D03*
X310363Y332111D02*
D03*
X312362Y424467D02*
D03*
X312806Y446669D02*
D03*
X311030Y651585D02*
D03*
X312806Y671788D02*
D03*
X775642Y513714D02*
D03*
X762410Y442700D02*
D03*
X769092Y321838D02*
D03*
X771806Y346924D02*
D03*
X756370Y365673D02*
D03*
X848514Y519393D02*
D03*
X846968Y588143D02*
D03*
X844946Y553768D02*
D03*
X769855Y537366D02*
D03*
X772304Y594660D02*
D03*
X635657Y590850D02*
D03*
X649473Y597609D02*
D03*
X1251750Y790091D02*
D03*
X1226750Y740091D02*
D03*
X1251750Y690091D02*
D03*
Y590091D02*
D03*
Y490091D02*
D03*
Y390091D02*
D03*
X1226750Y340091D02*
D03*
X1251750Y290091D02*
D03*
Y190091D02*
D03*
X1226750Y140091D02*
D03*
X1251750Y90091D02*
D03*
X1226750Y40091D02*
D03*
X1176750Y840091D02*
D03*
X1201750Y790091D02*
D03*
X1176750Y540091D02*
D03*
X1201750Y490091D02*
D03*
Y190091D02*
D03*
X1176750Y140091D02*
D03*
X1201750Y90091D02*
D03*
X1176750Y40091D02*
D03*
X1151750Y790091D02*
D03*
Y490091D02*
D03*
X1126750Y440091D02*
D03*
Y340091D02*
D03*
Y240091D02*
D03*
X1151750Y190091D02*
D03*
Y90091D02*
D03*
X1076750Y840091D02*
D03*
X1101750Y790091D02*
D03*
X1076750Y740091D02*
D03*
X1101750Y190091D02*
D03*
X1076750Y140091D02*
D03*
X1101750Y90091D02*
D03*
X1026750Y840091D02*
D03*
Y440091D02*
D03*
Y140091D02*
D03*
X976750Y840091D02*
D03*
Y540091D02*
D03*
Y240091D02*
D03*
X926750Y840091D02*
D03*
X951750Y790091D02*
D03*
Y690091D02*
D03*
Y590091D02*
D03*
Y290091D02*
D03*
X926750Y240091D02*
D03*
X951750Y190091D02*
D03*
X876750Y840091D02*
D03*
X901750Y790091D02*
D03*
Y690091D02*
D03*
X876750Y640091D02*
D03*
X901750Y490091D02*
D03*
X876750Y240091D02*
D03*
X826750D02*
D03*
Y140091D02*
D03*
Y40091D02*
D03*
X801750Y490091D02*
D03*
X776750Y240091D02*
D03*
Y40091D02*
D03*
X726750Y740091D02*
D03*
Y140091D02*
D03*
Y40091D02*
D03*
X676750Y840091D02*
D03*
X701750Y790091D02*
D03*
X676750Y740091D02*
D03*
X701750Y590091D02*
D03*
X676750Y440091D02*
D03*
X701750Y290091D02*
D03*
Y90091D02*
D03*
X676750Y40091D02*
D03*
X626750Y840091D02*
D03*
X651750Y790091D02*
D03*
X626750Y740091D02*
D03*
X651750Y490091D02*
D03*
X626750Y240091D02*
D03*
Y40091D02*
D03*
X576750Y840091D02*
D03*
X601750Y790091D02*
D03*
Y690091D02*
D03*
X576750Y540091D02*
D03*
X601750Y490091D02*
D03*
X576750Y440091D02*
D03*
X601750Y190091D02*
D03*
Y90091D02*
D03*
X576750Y40091D02*
D03*
X526750Y840091D02*
D03*
X551750Y290091D02*
D03*
X526750Y240091D02*
D03*
X551750Y90091D02*
D03*
X526750Y40091D02*
D03*
X476750Y840091D02*
D03*
X501750Y690091D02*
D03*
Y590091D02*
D03*
X476750Y340091D02*
D03*
Y240091D02*
D03*
X501750Y190091D02*
D03*
X476750Y140091D02*
D03*
X501750Y90091D02*
D03*
X476750Y40091D02*
D03*
X426750Y840091D02*
D03*
Y640091D02*
D03*
Y540091D02*
D03*
X451750Y490091D02*
D03*
Y390091D02*
D03*
X426750Y340091D02*
D03*
X451750Y290091D02*
D03*
X426750Y240091D02*
D03*
X451750Y190091D02*
D03*
X426750Y140091D02*
D03*
X451750Y90091D02*
D03*
X426750Y40091D02*
D03*
X376750Y840091D02*
D03*
X401750Y790091D02*
D03*
X376750Y740091D02*
D03*
X401750Y690091D02*
D03*
Y590091D02*
D03*
X376750Y240091D02*
D03*
Y140091D02*
D03*
X401750Y90091D02*
D03*
X376750Y40091D02*
D03*
X326750Y840091D02*
D03*
X351750Y790091D02*
D03*
X326750Y740091D02*
D03*
Y640091D02*
D03*
X351750Y590091D02*
D03*
Y490091D02*
D03*
Y190091D02*
D03*
X326750Y140091D02*
D03*
Y40091D02*
D03*
X858227Y782351D02*
D03*
X677661Y479683D02*
D03*
X788750Y435000D02*
D03*
X720500Y419555D02*
D03*
X654654Y354297D02*
D03*
X991251Y455546D02*
D03*
X985712Y614393D02*
D03*
X1000686Y615734D02*
D03*
X1064793Y330052D02*
D03*
X998720Y331371D02*
D03*
X983218Y330482D02*
D03*
X913778Y329771D02*
D03*
Y556814D02*
D03*
X1067314Y588204D02*
D03*
X994000Y721000D02*
D03*
X779250Y217953D02*
D03*
X652000Y305750D02*
D03*
X819750Y276250D02*
D03*
X1132000Y596500D02*
D03*
X1024111Y527746D02*
D03*
X974468Y527250D02*
D03*
X946500Y736000D02*
D03*
X894700Y222541D02*
D03*
X894499Y444360D02*
D03*
X578500Y754823D02*
D03*
X481500Y756750D02*
D03*
X873750Y597281D02*
D03*
X874370Y532931D02*
D03*
X874181Y417964D02*
D03*
X874493Y366804D02*
D03*
Y331917D02*
D03*
Y301865D02*
D03*
X873750Y622500D02*
D03*
X837005Y603217D02*
D03*
X837496Y572865D02*
D03*
X837069Y537931D02*
D03*
Y401865D02*
D03*
Y376865D02*
D03*
Y346865D02*
D03*
X837250Y312046D02*
D03*
X836760Y627931D02*
D03*
X819500Y505750D02*
D03*
X684750Y360750D02*
D03*
X393769Y506287D02*
D03*
X352250Y506250D02*
D03*
X1041250Y124000D02*
D03*
X590250Y120750D02*
D03*
X639750Y109000D02*
D03*
X588993Y306865D02*
D03*
X667590Y143654D02*
D03*
X804510Y758789D02*
D03*
X589500Y415000D02*
D03*
M02*
