M48
;Layer_Color=9474304
;FILE_FORMAT=4:4
METRIC,LZ
;TYPE=PLATED
T01F00S00C0.3000
T02F00S00C0.6500
T03F00S00C0.7400
T05F00S00C0.9000
T06F00S00C1.1000
T07F00S00C1.1500
T08F00S00C1.4000
T09F00S00C1.4500
T10F00S00C1.7000
T11F00S00C4.0000
%
T01
X0117675Y00040091
X0122675
X0125175Y00090091
X0120175
X0115175
X0117675Y00140091
X0122675
X0125175Y00190091
X0120175
X0115175
X0110175
X0107675Y00140091
X0102675
X0104125Y00124
X0110175Y00090091
X00955442Y00157996
X0095175Y00190091
X0082675Y00140091
Y00040091
X0077675
X0072675
Y00140091
X0066759Y00143654
X0063975Y00109
X0060175Y00090091
X0059025Y0012075
X0055175Y00090091
X0050175
X0045175
X0040175
X0042675Y00140091
X0047675
X0050175Y00190091
X0045175
X0035175
X0037675Y00140091
X0032675
Y00040091
X0037675
X0042675
X0047675
X0052675
X0057675
X0062675
X0067675
X0070175Y00090091
X0060175Y00190091
X00312806Y0019846
X00312362Y00225102
X00311695Y00307023
X00310363Y00332111
X00312362Y00424467
X00312806Y00446669
X0035175Y00490091
X0035225Y0050625
X00393769Y00506287
X0042675Y00540091
X0045175Y00490091
Y00390091
X0047675Y00340091
X0042675
X0045175Y00290091
X0047675Y00240091
X0052675
X0055175Y00290091
X00588993Y00306865
X00652Y0030575
X00654654Y00354297
X0068475Y0036075
X0067675Y00440091
X00677661Y00479683
X0065175Y00490091
X00639775Y00521213
X0060175Y00490091
X0057675Y00540091
Y00440091
X005895Y00415
X0061648Y00391433
X0062675Y00240091
X0070175Y00290091
Y00590091
X00649473Y00597609
X00635657Y0059085
X0050175Y00590091
X0040175
X0035175
X0037675Y00240091
X0042675
X0077675
X0077925Y00217953
X0082675Y00240091
X0081975Y0027625
X0083725Y00312046
X00837069Y00346865
Y00376865
Y00401865
X00874181Y00417964
X00894499Y0044436
X0090175Y00490091
X0087437Y00532931
X00874475Y00560931
X00844946Y00553768
X00837069Y00537931
X00848514Y00519393
X008195Y0050575
X0080175Y00490091
X00775642Y00513714
X00769855Y00537366
X00772304Y0059466
X00837005Y00603217
X00846968Y00588143
X00837496Y00572865
X0087375Y00597281
X00913778Y00556814
X0095175Y00590091
X0097675Y00540091
X00974468Y0052725
X01024111Y00527746
X0102675Y00540091
X01067314Y00588204
X0102675Y00440091
X00991251Y00455546
X0099872Y00331371
X00983218Y00330482
X00913778Y00329771
X00874493Y00331917
Y00301865
X0087675Y00240091
X008947Y00222541
X0092675Y00240091
X0097675
X0095175Y00290091
X01064793Y00330052
X00874493Y00366804
X0075637Y00365673
X00771806Y00346924
X00769092Y00321838
X00789506Y00411862
X0078875Y00435
X0076241Y004427
X00746911Y0046198
X00736786Y00453272
X007205Y00419555
X0112675Y00440091
X0115175Y00490091
X0120175
X0125175
Y00590091
X0117675Y00540091
X01132Y005965
X0112675Y00340091
X0122675
X0125175Y00390091
Y00290091
X0112675Y00240091
X0125175Y00690091
X0122675Y00740091
X0125175Y00790091
X0120175
X0115175
X0117675Y00840091
X0107675
X0102675
X0097675
X0092675
X0087675
X0090175Y00790091
X0095175
X009465Y00736
X0095175Y00690091
X0090175
X0087675Y00640091
X0087375Y006225
X0083676Y00627931
X00985712Y00614393
X01000686Y00615734
X00994Y00721
X0107675Y00740091
X0110175Y00790091
X00858227Y00782351
X0080451Y00758789
X0072675Y00740091
X0067675
X0062675
X005785Y00754823
X0060175Y00790091
X0065175
X0070175
X0067675Y00840091
X0062675
X0057675
X0052675
X0047675
X0042675
X0037675
X0032675
X0035175Y00790091
X0040175
X0037675Y00740091
X0032675
Y00640091
X0042675
X0040175Y00690091
X0050175
X004815Y0075675
X0060175Y00690091
X00312806Y00671788
X0031103Y00651585
T02
X00517349Y00162191
Y00179941
X00545179Y00188441
Y00171191
Y00153691
T03
X00707867Y00657706
Y00683106
Y00708506
T05
X00609319Y00620354
X00634719
Y00645754
X00660119
X00660119Y00620354
X00609319Y00645754
T06
X0030875Y00170384
Y00245384
X003085Y00280884
Y00355884
X0030875Y00392884
Y00467884
X003085Y00505884
Y00580884
X00308Y00617134
Y00692134
T07
X01181798Y00270321
Y00295721
Y00321121
Y00346521
Y00371921
Y00397321
Y00422721
Y00448121
X01207198
Y00422721
Y00397321
Y00371921
Y00346521
Y00321121
Y00295721
Y00270321
X01207804Y00569626
Y00595026
X01182404
Y00569626
Y00620426
X01207804
X00552752Y00795328
Y00820728
X00527352
Y00795328
X00501952
Y00820728
T08
X00131Y00245384
X0020675Y00246384
X002065Y00356884
X0013075Y00355884
X00131Y00467884
X0020675Y00468884
X002065Y00581884
X0013075Y00580884
X0013025Y00692134
X00206Y00693134
T09
X0120503Y00709291
Y00734691
Y00760091
T10
X01193371Y00117131
Y00167931
X000495Y00157384
Y00208184
Y00282134
Y00332934
X0004975Y00406084
Y00456884
Y00529776
Y00580576
Y00655084
Y00705884
T11
X01123265Y000485
X01126Y00825
M30
