M48
;Layer_Color=9474304
;FILE_FORMAT=4:4
METRIC,LZ
T12F00S00C1.0000
%
G90
G05
T12
G00X0127Y-00004921
M15
G01X01270763Y-00004982
G01X0127285Y-0000417
G01X01274372Y-00002527
G01X01275038Y-00000035
G01X01275038Y00869965
G01X01274536Y00872147
G01X01273132Y00873892
G01X01271107Y00874849
G01X01270012Y00874838
G01X01270012Y00874946
G01X00000781Y00874946
G01X00000655Y00874995
G01X00000086Y00874946
G01X00000011Y00874946
G01X00000011Y0087494
G01X-00001577Y00874804
G01X-00003501Y00873658
G01X-00004732Y00871787
G01X-00005046Y00870044
G01X-00005Y0
G01X-00004498Y-00002183
G01X-00003094Y-00003928
G01X0Y-00005
G01X0127Y-00005
G01X0127Y-00004921
M16
M17
M30
