G04*
G04 #@! TF.GenerationSoftware,Altium Limited,Altium Designer,25.2.1 (25)*
G04*
G04 Layer_Physical_Order=2*
G04 Layer_Color=16711680*
%FSLAX44Y44*%
%MOMM*%
G71*
G04*
G04 #@! TF.SameCoordinates,A71CF6F4-CF6F-4F02-8CC4-27F24B5748F8*
G04*
G04*
G04 #@! TF.FilePolarity,Positive*
G04*
G01*
G75*
%ADD11C,0.3000*%
%ADD13C,0.2000*%
%ADD62C,1.1000*%
%ADD63C,1.6500*%
%ADD75R,2.5500X2.5500*%
%ADD100C,0.2500*%
%ADD101C,0.6000*%
%ADD106C,0.2540*%
%ADD107C,0.5000*%
%ADD110C,6.0000*%
G04:AMPARAMS|DCode=111|XSize=1.6mm|YSize=3.9mm|CornerRadius=0.4mm|HoleSize=0mm|Usage=FLASHONLY|Rotation=90.000|XOffset=0mm|YOffset=0mm|HoleType=Round|Shape=RoundedRectangle|*
%AMROUNDEDRECTD111*
21,1,1.6000,3.1000,0,0,90.0*
21,1,0.8000,3.9000,0,0,90.0*
1,1,0.8000,1.5500,0.4000*
1,1,0.8000,1.5500,-0.4000*
1,1,0.8000,-1.5500,-0.4000*
1,1,0.8000,-1.5500,0.4000*
%
%ADD111ROUNDEDRECTD111*%
%ADD112R,1.7250X1.7250*%
%ADD113C,1.7250*%
%ADD114R,1.7250X1.7250*%
%ADD115C,2.5500*%
%ADD116C,1.2400*%
%ADD117C,2.1000*%
%ADD118C,1.5000*%
%ADD119R,1.5000X1.5000*%
%ADD120R,2.1750X2.1750*%
%ADD121C,2.1750*%
%ADD122C,0.7000*%
G36*
X217671Y734431D02*
X217715Y701374D01*
X216446Y700942D01*
X215301Y702434D01*
X212577Y704525D01*
X209405Y705839D01*
X207501Y706089D01*
Y693134D01*
Y680179D01*
X209405Y680430D01*
X212577Y681744D01*
X215301Y683834D01*
X216467Y685354D01*
X217738Y684924D01*
X217825Y620459D01*
X216928Y619560D01*
X5250Y619560D01*
X5250Y667431D01*
X34460D01*
Y656584D01*
X49750D01*
X65040D01*
Y667431D01*
X158305Y667431D01*
Y734431D01*
X217671Y734431D01*
D02*
G37*
G36*
X1267488Y2549D02*
X299142D01*
X298244Y3447D01*
X298246Y117362D01*
X298339Y117912D01*
X298340Y117939D01*
X298345Y117966D01*
X298589Y122429D01*
X298837Y126884D01*
X298835Y126911D01*
X298837Y126938D01*
X298786Y164456D01*
X300055Y164879D01*
X301440Y163074D01*
X303581Y161431D01*
X303652Y161402D01*
Y134750D01*
X304040Y132799D01*
X305145Y131145D01*
X372895Y63395D01*
X374549Y62290D01*
X376500Y61902D01*
X1005000D01*
X1006951Y62290D01*
X1008605Y63395D01*
X1044855Y99645D01*
X1045960Y101299D01*
X1046348Y103250D01*
Y121730D01*
X1046431Y121854D01*
X1046858Y124000D01*
X1046431Y126146D01*
X1045215Y127965D01*
X1043396Y129181D01*
X1041250Y129608D01*
X1039104Y129181D01*
X1037285Y127965D01*
X1036069Y126146D01*
X1035642Y124000D01*
X1036069Y121854D01*
X1036152Y121730D01*
Y105362D01*
X1002888Y72098D01*
X378612D01*
X313848Y136861D01*
Y161402D01*
X313920Y161431D01*
X316061Y163074D01*
X317704Y165215D01*
X318736Y167709D01*
X319089Y170384D01*
X318736Y173060D01*
X318707Y173131D01*
X334855Y189279D01*
X335960Y190933D01*
X336348Y192884D01*
Y258135D01*
X335960Y260086D01*
X334855Y261740D01*
X318457Y278137D01*
X318486Y278209D01*
X318839Y280884D01*
X318486Y283560D01*
X318130Y284421D01*
X334855Y301145D01*
X335960Y302799D01*
X336348Y304750D01*
Y370385D01*
X335960Y372336D01*
X334855Y373989D01*
X318707Y390137D01*
X318736Y390209D01*
X319089Y392884D01*
X318736Y395560D01*
X318707Y395631D01*
X334855Y411779D01*
X335960Y413433D01*
X336348Y415384D01*
Y483135D01*
X335960Y485086D01*
X334855Y486740D01*
X318457Y503137D01*
X318486Y503209D01*
X318839Y505884D01*
X318519Y508310D01*
X334855Y524645D01*
X335960Y526299D01*
X336348Y528250D01*
Y594589D01*
X335960Y596540D01*
X334855Y598194D01*
X318057Y614992D01*
X318339Y617134D01*
X317987Y619810D01*
X316954Y622304D01*
X315311Y624445D01*
X313170Y626088D01*
X310676Y627121D01*
X308000Y627473D01*
X305325Y627121D01*
X302831Y626088D01*
X300690Y624445D01*
X299523Y622923D01*
X298253Y623354D01*
X298253Y685913D01*
X299523Y686344D01*
X300690Y684824D01*
X302831Y683181D01*
X305325Y682148D01*
X308000Y681796D01*
X310676Y682148D01*
X313170Y683181D01*
X315311Y684824D01*
X316954Y686965D01*
X317987Y689458D01*
X318339Y692134D01*
X317987Y694810D01*
X316954Y697303D01*
X315311Y699445D01*
X313170Y701088D01*
X310676Y702121D01*
X308000Y702473D01*
X305325Y702121D01*
X302831Y701088D01*
X300690Y699445D01*
X299524Y697925D01*
X298254Y698356D01*
X298256Y867397D01*
X1267488D01*
Y2549D01*
D02*
G37*
G36*
X217844Y597431D02*
X217854Y590485D01*
X216651Y590076D01*
X215801Y591185D01*
X213077Y593275D01*
X209904Y594589D01*
X208000Y594839D01*
Y581884D01*
Y568929D01*
X209904Y569180D01*
X213077Y570494D01*
X215801Y572584D01*
X216674Y573722D01*
X217877Y573315D01*
X217981Y496475D01*
X217083Y495576D01*
X5437Y495576D01*
X5437Y543447D01*
X34460D01*
Y531276D01*
X49750D01*
X65040D01*
Y543447D01*
X158461D01*
X158461Y597431D01*
X217844Y597431D01*
D02*
G37*
G36*
X299547Y500715D02*
X301190Y498574D01*
X303331Y496931D01*
X305825Y495898D01*
X308500Y495546D01*
X311176Y495898D01*
X311247Y495928D01*
X326152Y481023D01*
Y417496D01*
X311497Y402841D01*
X311426Y402870D01*
X308750Y403223D01*
X306075Y402870D01*
X303581Y401838D01*
X301440Y400195D01*
X299797Y398054D01*
X299520Y397384D01*
X298250Y397636D01*
X298251Y463130D01*
X299520Y463383D01*
X299797Y462715D01*
X301440Y460574D01*
X303581Y458931D01*
X306075Y457898D01*
X308750Y457546D01*
X311426Y457898D01*
X313920Y458931D01*
X316061Y460574D01*
X317704Y462715D01*
X318736Y465209D01*
X319089Y467884D01*
X318736Y470560D01*
X317704Y473054D01*
X316061Y475195D01*
X313920Y476838D01*
X311426Y477870D01*
X308750Y478223D01*
X306075Y477870D01*
X303581Y476838D01*
X301440Y475195D01*
X299797Y473054D01*
X299521Y472386D01*
X298251Y472639D01*
X298251Y500525D01*
X299521Y500778D01*
X299547Y500715D01*
D02*
G37*
G36*
X200853Y481931D02*
X201106Y480661D01*
X200174Y480275D01*
X197450Y478185D01*
X195360Y475461D01*
X194046Y472288D01*
X193795Y470385D01*
X206751D01*
Y468885D01*
X208251D01*
Y455929D01*
X210154Y456180D01*
X213327Y457494D01*
X216051Y459584D01*
X216200Y459778D01*
X217402Y459371D01*
X217511Y379079D01*
X216614Y378181D01*
X5250Y378181D01*
X5250Y425181D01*
X165000Y425181D01*
X165000Y481931D01*
X200853Y481931D01*
D02*
G37*
G36*
X299797Y387715D02*
X301440Y385574D01*
X303581Y383931D01*
X306075Y382898D01*
X308750Y382546D01*
X311426Y382898D01*
X311497Y382928D01*
X326152Y368273D01*
Y306862D01*
X310279Y290989D01*
X308500Y291223D01*
X305825Y290870D01*
X303331Y289838D01*
X301876Y288721D01*
X300605Y289347D01*
X300527Y347482D01*
X301796Y348109D01*
X303331Y346931D01*
X305825Y345898D01*
X308500Y345546D01*
X311176Y345898D01*
X313670Y346931D01*
X315811Y348574D01*
X317454Y350715D01*
X318486Y353209D01*
X318839Y355884D01*
X318486Y358560D01*
X317454Y361054D01*
X315811Y363195D01*
X313670Y364838D01*
X311176Y365871D01*
X308500Y366223D01*
X305825Y365871D01*
X303331Y364838D01*
X301190Y363195D01*
X301143Y363134D01*
X299798Y363467D01*
X299349Y366084D01*
X298755Y369909D01*
X298591Y370511D01*
X298486Y371127D01*
X298249Y371943D01*
X298249Y388133D01*
X299520Y388385D01*
X299797Y387715D01*
D02*
G37*
G36*
X196025Y366739D02*
X196651Y365469D01*
X195110Y363461D01*
X193796Y360289D01*
X193545Y358384D01*
X206500D01*
Y356884D01*
X208001D01*
Y343929D01*
X209904Y344180D01*
X213077Y345494D01*
X215801Y347584D01*
X217891Y350308D01*
X219205Y353480D01*
X220393Y353191D01*
X220517Y261686D01*
X219619Y260788D01*
X5250Y260788D01*
X5250Y305931D01*
X161015Y305931D01*
X161015Y366739D01*
X196025Y366739D01*
D02*
G37*
G36*
X303331Y271931D02*
X305825Y270898D01*
X308500Y270546D01*
X311176Y270898D01*
X311247Y270928D01*
X326152Y256023D01*
Y194996D01*
X311497Y180341D01*
X311426Y180371D01*
X308750Y180723D01*
X306075Y180371D01*
X303581Y179338D01*
X301440Y177695D01*
X300040Y175871D01*
X298770Y176253D01*
X298685Y238376D01*
X298666Y238723D01*
X298682Y239071D01*
X298674Y239183D01*
X298872Y239350D01*
X300599Y239170D01*
X301440Y238074D01*
X303581Y236431D01*
X306075Y235398D01*
X308750Y235046D01*
X311426Y235398D01*
X313920Y236431D01*
X316061Y238074D01*
X317704Y240215D01*
X318736Y242709D01*
X319089Y245384D01*
X318736Y248060D01*
X317704Y250554D01*
X316061Y252695D01*
X313920Y254338D01*
X311426Y255371D01*
X308750Y255723D01*
X306075Y255371D01*
X303581Y254338D01*
X301440Y252695D01*
X301397Y252639D01*
X300972Y252702D01*
X300168Y253123D01*
X300396Y257283D01*
X300643Y261740D01*
X300641Y261768D01*
X300643Y261795D01*
X300628Y272404D01*
X301898Y273031D01*
X303331Y271931D01*
D02*
G37*
G36*
X195820Y255431D02*
X196381Y254292D01*
X195360Y252961D01*
X194046Y249788D01*
X193795Y247885D01*
X206749D01*
Y246385D01*
X208249D01*
Y233429D01*
X210154Y233680D01*
X213327Y234994D01*
X216051Y237084D01*
X217289Y238698D01*
X218559Y238267D01*
X218711Y126829D01*
X217813Y125931D01*
X5250Y125931D01*
X5250Y179681D01*
X159171Y179681D01*
X159171Y255431D01*
X195820Y255431D01*
D02*
G37*
%LPC*%
G36*
X204501Y706089D02*
X202596Y705839D01*
X199424Y704525D01*
X196700Y702434D01*
X194610Y699711D01*
X193296Y696538D01*
X193045Y694634D01*
X204501D01*
Y706089D01*
D02*
G37*
G36*
Y691634D02*
X193045D01*
X193296Y689730D01*
X194610Y686558D01*
X196700Y683834D01*
X199424Y681744D01*
X202596Y680430D01*
X204501Y680179D01*
Y691634D01*
D02*
G37*
G36*
X65040Y653584D02*
X51250D01*
Y639794D01*
X65040D01*
Y653584D01*
D02*
G37*
G36*
X48250D02*
X34460D01*
Y639794D01*
X48250D01*
Y653584D01*
D02*
G37*
G36*
X1128000Y857483D02*
Y827000D01*
X1158483D01*
X1158239Y830106D01*
X1157043Y835087D01*
X1155083Y839818D01*
X1152407Y844186D01*
X1149080Y848080D01*
X1145186Y851407D01*
X1140818Y854083D01*
X1136087Y856043D01*
X1131106Y857239D01*
X1128000Y857483D01*
D02*
G37*
G36*
X1124000D02*
X1120894Y857239D01*
X1115913Y856043D01*
X1111181Y854083D01*
X1106814Y851407D01*
X1102920Y848080D01*
X1099593Y844186D01*
X1096917Y839818D01*
X1094957Y835087D01*
X1093761Y830106D01*
X1093517Y827000D01*
X1124000D01*
Y857483D01*
D02*
G37*
G36*
X528852Y831792D02*
Y822228D01*
X538415D01*
X538229Y823643D01*
X537104Y826359D01*
X535315Y828691D01*
X532982Y830481D01*
X530266Y831606D01*
X528852Y831792D01*
D02*
G37*
G36*
X525852D02*
X524437Y831606D01*
X521721Y830481D01*
X519389Y828691D01*
X517599Y826359D01*
X516474Y823643D01*
X516288Y822228D01*
X525852D01*
Y831792D01*
D02*
G37*
G36*
X501952Y831445D02*
X499178Y831079D01*
X496593Y830009D01*
X494374Y828306D01*
X492671Y826086D01*
X491600Y823502D01*
X491235Y820728D01*
X491600Y817954D01*
X492671Y815370D01*
X494374Y813150D01*
X496593Y811447D01*
X499178Y810376D01*
X501952Y810011D01*
X504725Y810376D01*
X507310Y811447D01*
X509529Y813150D01*
X511232Y815370D01*
X512303Y817954D01*
X512668Y820728D01*
X512303Y823502D01*
X511232Y826086D01*
X509529Y828306D01*
X507310Y830009D01*
X504725Y831079D01*
X501952Y831445D01*
D02*
G37*
G36*
X538415Y819228D02*
X528852D01*
Y809664D01*
X530266Y809850D01*
X532982Y810975D01*
X535315Y812765D01*
X537104Y815097D01*
X538229Y817813D01*
X538415Y819228D01*
D02*
G37*
G36*
X525852D02*
X516288D01*
X516474Y817813D01*
X517599Y815097D01*
X519389Y812765D01*
X521721Y810975D01*
X524437Y809850D01*
X525852Y809664D01*
Y819228D01*
D02*
G37*
G36*
X1158483Y823000D02*
X1128000D01*
Y792517D01*
X1131106Y792761D01*
X1136087Y793957D01*
X1140818Y795917D01*
X1145186Y798593D01*
X1149080Y801920D01*
X1152407Y805814D01*
X1155083Y810182D01*
X1157043Y814913D01*
X1158239Y819894D01*
X1158483Y823000D01*
D02*
G37*
G36*
X1124000D02*
X1093517D01*
X1093761Y819894D01*
X1094957Y814913D01*
X1096917Y810182D01*
X1099593Y805814D01*
X1102920Y801920D01*
X1106814Y798593D01*
X1111181Y795917D01*
X1115913Y793957D01*
X1120894Y792761D01*
X1124000Y792517D01*
Y823000D01*
D02*
G37*
G36*
X552752Y806045D02*
X549978Y805679D01*
X547393Y804609D01*
X545174Y802906D01*
X543471Y800686D01*
X542400Y798102D01*
X542035Y795328D01*
X542400Y792554D01*
X543471Y789970D01*
X545174Y787750D01*
X547393Y786047D01*
X549978Y784976D01*
X552752Y784611D01*
X555525Y784976D01*
X558110Y786047D01*
X560329Y787750D01*
X562033Y789970D01*
X563103Y792554D01*
X563468Y795328D01*
X563103Y798102D01*
X562033Y800686D01*
X560329Y802906D01*
X558110Y804609D01*
X555525Y805679D01*
X552752Y806045D01*
D02*
G37*
G36*
X527352D02*
X524578Y805679D01*
X521993Y804609D01*
X519774Y802906D01*
X518071Y800686D01*
X517000Y798102D01*
X516635Y795328D01*
X517000Y792554D01*
X518071Y789970D01*
X519774Y787750D01*
X521993Y786047D01*
X524578Y784976D01*
X527352Y784611D01*
X530125Y784976D01*
X532710Y786047D01*
X534929Y787750D01*
X536632Y789970D01*
X537703Y792554D01*
X538068Y795328D01*
X537703Y798102D01*
X536632Y800686D01*
X534929Y802906D01*
X532710Y804609D01*
X530125Y805679D01*
X527352Y806045D01*
D02*
G37*
G36*
X501952D02*
X499178Y805679D01*
X496593Y804609D01*
X494374Y802906D01*
X492671Y800686D01*
X491600Y798102D01*
X491235Y795328D01*
X491600Y792554D01*
X492671Y789970D01*
X494374Y787750D01*
X496593Y786047D01*
X499178Y784976D01*
X501952Y784611D01*
X504725Y784976D01*
X507310Y786047D01*
X509529Y787750D01*
X511232Y789970D01*
X512303Y792554D01*
X512668Y795328D01*
X512303Y798102D01*
X511232Y800686D01*
X509529Y802906D01*
X507310Y804609D01*
X504725Y805679D01*
X501952Y806045D01*
D02*
G37*
G36*
X1206530Y773424D02*
Y761591D01*
X1218363D01*
X1218100Y763593D01*
X1216748Y766856D01*
X1214598Y769659D01*
X1211795Y771809D01*
X1208532Y773160D01*
X1206530Y773424D01*
D02*
G37*
G36*
X1203530Y773424D02*
X1201528Y773160D01*
X1198265Y771809D01*
X1195462Y769659D01*
X1193312Y766856D01*
X1191960Y763593D01*
X1191697Y761591D01*
X1203530D01*
Y773424D01*
D02*
G37*
G36*
X563377Y831353D02*
X542127D01*
Y810103D01*
X563377D01*
Y816045D01*
X564647Y816572D01*
X574931Y806287D01*
Y760319D01*
X485730D01*
X485465Y760715D01*
X483646Y761931D01*
X481500Y762358D01*
X479354Y761931D01*
X477535Y760715D01*
X476319Y758896D01*
X475892Y756750D01*
X476319Y754604D01*
X477535Y752785D01*
X479354Y751569D01*
X481500Y751142D01*
X483646Y751569D01*
X485465Y752785D01*
X485730Y753181D01*
X573219D01*
X573319Y752677D01*
X574535Y750858D01*
X576354Y749642D01*
X578500Y749215D01*
X580646Y749642D01*
X582465Y750858D01*
X583681Y752677D01*
X584108Y754823D01*
X583681Y756969D01*
X582465Y758789D01*
X582069Y759054D01*
Y807765D01*
X581797Y809130D01*
X581023Y810288D01*
X568031Y823281D01*
X566873Y824054D01*
X565507Y824326D01*
X565359Y824296D01*
X563377D01*
Y831353D01*
D02*
G37*
G36*
X707867Y716777D02*
X705726Y716495D01*
X703731Y715669D01*
X702018Y714355D01*
X700704Y712642D01*
X699878Y710647D01*
X699596Y708506D01*
X699878Y706366D01*
X700704Y704371D01*
X702018Y702658D01*
X703731Y701344D01*
X705726Y700517D01*
X707867Y700236D01*
X710007Y700517D01*
X712002Y701344D01*
X713715Y702658D01*
X715029Y704371D01*
X715855Y706366D01*
X716137Y708506D01*
X715855Y710647D01*
X715029Y712642D01*
X713715Y714355D01*
X712002Y715669D01*
X710007Y716495D01*
X707867Y716777D01*
D02*
G37*
G36*
X1218363Y758591D02*
X1205030D01*
X1191697D01*
X1191960Y756589D01*
X1193312Y753325D01*
X1195462Y750523D01*
X1198265Y748373D01*
X1199808Y747734D01*
Y746463D01*
X1198537Y745937D01*
X1195847Y743873D01*
X1193784Y741184D01*
X1192486Y738052D01*
X1192044Y734691D01*
X1192486Y731330D01*
X1193784Y728198D01*
X1195847Y725508D01*
X1198537Y723445D01*
X1198617Y723411D01*
X1198369Y722166D01*
X1192155D01*
Y696416D01*
X1217905D01*
Y722166D01*
X1211691D01*
X1211443Y723411D01*
X1211523Y723445D01*
X1214212Y725508D01*
X1216276Y728198D01*
X1217574Y731330D01*
X1218016Y734691D01*
X1217574Y738052D01*
X1216276Y741184D01*
X1214212Y743873D01*
X1211523Y745937D01*
X1210252Y746463D01*
Y747734D01*
X1211795Y748373D01*
X1214598Y750523D01*
X1216748Y753325D01*
X1218100Y756589D01*
X1218363Y758591D01*
D02*
G37*
G36*
X709366Y691724D02*
Y684606D01*
X716484D01*
X716382Y685388D01*
X715501Y687514D01*
X714100Y689340D01*
X712274Y690741D01*
X710148Y691621D01*
X709366Y691724D01*
D02*
G37*
G36*
X706366Y691724D02*
X705585Y691621D01*
X703459Y690741D01*
X701633Y689340D01*
X700232Y687514D01*
X699352Y685388D01*
X699249Y684606D01*
X706366D01*
Y691724D01*
D02*
G37*
G36*
Y681606D02*
X699249D01*
X699352Y680825D01*
X700232Y678699D01*
X701633Y676873D01*
X703459Y675472D01*
X705585Y674591D01*
X706366Y674489D01*
Y681606D01*
D02*
G37*
G36*
X716484D02*
X709366D01*
Y674488D01*
X710148Y674591D01*
X712274Y675472D01*
X714100Y676873D01*
X715501Y678699D01*
X716382Y680825D01*
X716484Y681606D01*
D02*
G37*
G36*
X709366Y666324D02*
Y659206D01*
X716484D01*
X716382Y659988D01*
X715501Y662114D01*
X714100Y663940D01*
X712274Y665341D01*
X710148Y666221D01*
X709366Y666324D01*
D02*
G37*
G36*
X706366Y666324D02*
X705585Y666221D01*
X703459Y665341D01*
X701633Y663940D01*
X700232Y662114D01*
X699352Y659988D01*
X699249Y659206D01*
X706366D01*
Y666324D01*
D02*
G37*
G36*
Y656206D02*
X699249D01*
X699352Y655425D01*
X700232Y653299D01*
X701633Y651473D01*
X703459Y650072D01*
X705585Y649191D01*
X706366Y649089D01*
Y656206D01*
D02*
G37*
G36*
X716484D02*
X709366D01*
Y649088D01*
X710148Y649191D01*
X712274Y650072D01*
X714100Y651473D01*
X715501Y653299D01*
X716382Y655425D01*
X716484Y656206D01*
D02*
G37*
G36*
X610819Y655683D02*
Y647254D01*
X619248D01*
X619101Y648375D01*
X618089Y650817D01*
X616480Y652915D01*
X614383Y654524D01*
X611940Y655536D01*
X610819Y655683D01*
D02*
G37*
G36*
X607819D02*
X606698Y655536D01*
X604256Y654524D01*
X602159Y652915D01*
X600549Y650817D01*
X599538Y648375D01*
X599390Y647254D01*
X607819D01*
Y655683D01*
D02*
G37*
G36*
X660119Y655336D02*
X657639Y655010D01*
X655328Y654052D01*
X653344Y652530D01*
X651821Y650545D01*
X650864Y648234D01*
X650537Y645754D01*
X650864Y643274D01*
X651821Y640963D01*
X653344Y638979D01*
X655328Y637456D01*
X657639Y636498D01*
X660119Y636172D01*
X662599Y636498D01*
X664910Y637456D01*
X666895Y638979D01*
X668418Y640963D01*
X669375Y643274D01*
X669701Y645754D01*
X669375Y648234D01*
X668418Y650545D01*
X666895Y652530D01*
X664910Y654052D01*
X662599Y655010D01*
X660119Y655336D01*
D02*
G37*
G36*
X634719D02*
X632239Y655010D01*
X629928Y654052D01*
X627944Y652530D01*
X626421Y650545D01*
X625464Y648234D01*
X625137Y645754D01*
X625464Y643274D01*
X626076Y641797D01*
X620157Y635878D01*
X619439Y634803D01*
X619186Y633535D01*
Y630972D01*
X618819Y629854D01*
X617916Y629854D01*
X599819D01*
Y610854D01*
X617916D01*
X618819Y610854D01*
X619186Y609736D01*
Y449373D01*
X590269Y420455D01*
X589500Y420608D01*
X587354Y420181D01*
X585535Y418965D01*
X584319Y417146D01*
X583892Y415000D01*
X584319Y412854D01*
X585535Y411035D01*
X585933Y410769D01*
Y311435D01*
X585027Y310830D01*
X583812Y309011D01*
X583385Y306865D01*
X583812Y304719D01*
X585027Y302900D01*
X586847Y301684D01*
X588993Y301257D01*
X591138Y301684D01*
X592958Y302900D01*
X594173Y304719D01*
X594600Y306865D01*
X594173Y309011D01*
X592958Y310830D01*
X592560Y311096D01*
Y410430D01*
X593465Y411035D01*
X594681Y412854D01*
X595108Y415000D01*
X594955Y415769D01*
X624843Y445657D01*
X625561Y446732D01*
X625814Y448000D01*
Y613381D01*
X627084Y613812D01*
X627559Y613193D01*
X629656Y611584D01*
X632098Y610572D01*
X633219Y610425D01*
Y620354D01*
Y630283D01*
X632098Y630136D01*
X629656Y629124D01*
X627559Y627515D01*
X627084Y626895D01*
X625814Y627327D01*
Y632162D01*
X630762Y637110D01*
X632239Y636498D01*
X634719Y636172D01*
X637199Y636498D01*
X639510Y637456D01*
X641495Y638979D01*
X643018Y640963D01*
X643975Y643274D01*
X644301Y645754D01*
X643975Y648234D01*
X643018Y650545D01*
X641495Y652530D01*
X639510Y654052D01*
X637199Y655010D01*
X634719Y655336D01*
D02*
G37*
G36*
X619248Y644254D02*
X610819D01*
Y635825D01*
X611940Y635972D01*
X614383Y636984D01*
X616480Y638593D01*
X618089Y640691D01*
X619101Y643133D01*
X619248Y644254D01*
D02*
G37*
G36*
X607819D02*
X599390D01*
X599538Y643133D01*
X600549Y640691D01*
X602159Y638593D01*
X604256Y636984D01*
X606698Y635972D01*
X607819Y635825D01*
Y644254D01*
D02*
G37*
G36*
X636219Y630283D02*
Y621854D01*
X644648D01*
X644501Y622975D01*
X643489Y625417D01*
X641880Y627515D01*
X639783Y629124D01*
X637340Y630136D01*
X636219Y630283D01*
D02*
G37*
G36*
X660119Y629936D02*
X657639Y629609D01*
X655328Y628652D01*
X653344Y627130D01*
X651821Y625145D01*
X650864Y622834D01*
X650537Y620354D01*
X650864Y617874D01*
X651821Y615563D01*
X653344Y613579D01*
X655328Y612056D01*
X657639Y611099D01*
X660119Y610772D01*
X662599Y611099D01*
X664910Y612056D01*
X666895Y613579D01*
X668418Y615563D01*
X669375Y617874D01*
X669701Y620354D01*
X669375Y622834D01*
X668418Y625145D01*
X666895Y627130D01*
X664910Y628652D01*
X662599Y629609D01*
X660119Y629936D01*
D02*
G37*
G36*
X644648Y618854D02*
X636219D01*
Y610425D01*
X637340Y610572D01*
X639783Y611584D01*
X641880Y613193D01*
X643489Y615291D01*
X644501Y617733D01*
X644648Y618854D01*
D02*
G37*
G36*
X1207804Y631143D02*
X1205030Y630778D01*
X1202445Y629707D01*
X1200226Y628004D01*
X1198523Y625784D01*
X1197452Y623200D01*
X1197087Y620426D01*
X1197452Y617652D01*
X1198523Y615068D01*
X1200226Y612848D01*
X1202445Y611145D01*
X1205030Y610075D01*
X1207804Y609709D01*
X1210577Y610075D01*
X1213162Y611145D01*
X1215381Y612848D01*
X1217085Y615068D01*
X1218155Y617652D01*
X1218520Y620426D01*
X1218155Y623200D01*
X1217085Y625784D01*
X1215381Y628004D01*
X1213162Y629707D01*
X1210577Y630778D01*
X1207804Y631143D01*
D02*
G37*
G36*
X1182404D02*
X1179630Y630778D01*
X1177045Y629707D01*
X1174826Y628004D01*
X1173123Y625784D01*
X1172052Y623200D01*
X1171687Y620426D01*
X1172052Y617652D01*
X1173123Y615068D01*
X1174826Y612848D01*
X1177045Y611145D01*
X1179630Y610075D01*
X1182404Y609709D01*
X1185177Y610075D01*
X1187762Y611145D01*
X1189982Y612848D01*
X1191685Y615068D01*
X1192755Y617652D01*
X1193120Y620426D01*
X1192755Y623200D01*
X1191685Y625784D01*
X1189982Y628004D01*
X1187762Y629707D01*
X1185177Y630778D01*
X1182404Y631143D01*
D02*
G37*
G36*
X946500Y741608D02*
X944354Y741181D01*
X942535Y739965D01*
X941319Y738146D01*
X940892Y736000D01*
X941319Y733854D01*
X942535Y732035D01*
X944354Y730819D01*
X946500Y730392D01*
X948646Y730819D01*
X949533Y731412D01*
X1040099D01*
X1127412Y644100D01*
Y599533D01*
X1126819Y598646D01*
X1126392Y596500D01*
X1126819Y594354D01*
X1128035Y592535D01*
X1129854Y591319D01*
X1132000Y590892D01*
X1134146Y591319D01*
X1135965Y592535D01*
X1137181Y594354D01*
X1137608Y596500D01*
X1137181Y598646D01*
X1136588Y599533D01*
Y646000D01*
X1136239Y647756D01*
X1135244Y649244D01*
X1045244Y739244D01*
X1043756Y740239D01*
X1042000Y740588D01*
X949533D01*
X948646Y741181D01*
X946500Y741608D01*
D02*
G37*
G36*
X994000Y726608D02*
X991854Y726181D01*
X990035Y724965D01*
X989770Y724569D01*
X967500D01*
X966134Y724297D01*
X964977Y723523D01*
X911254Y669801D01*
X910481Y668643D01*
X910209Y667278D01*
Y561044D01*
X909812Y560779D01*
X908597Y558960D01*
X908170Y556814D01*
X908597Y554668D01*
X909812Y552849D01*
X910209Y552584D01*
Y504972D01*
X910481Y503607D01*
X911254Y502449D01*
X960681Y453023D01*
X961838Y452249D01*
X963204Y451977D01*
X987020D01*
X987285Y451581D01*
X989105Y450365D01*
X991251Y449938D01*
X993397Y450365D01*
X995216Y451581D01*
X995481Y451977D01*
X1025976D01*
X1061224Y416729D01*
Y334282D01*
X1060828Y334017D01*
X1060563Y333621D01*
X1019464D01*
X1011618Y341466D01*
X1010460Y342240D01*
X1009094Y342512D01*
X978168D01*
X978116Y342547D01*
X976750Y342819D01*
X968250D01*
X966884Y342547D01*
X965727Y341773D01*
X957293Y333340D01*
X918008D01*
X917743Y333736D01*
X915924Y334952D01*
X913778Y335379D01*
X911632Y334952D01*
X909812Y333736D01*
X908597Y331917D01*
X908170Y329771D01*
X908597Y327625D01*
X909812Y325806D01*
X911632Y324590D01*
X913778Y324163D01*
X915924Y324590D01*
X917743Y325806D01*
X918008Y326203D01*
X958771D01*
X960137Y326474D01*
X961294Y327248D01*
X969728Y335681D01*
X975639D01*
X975691Y335646D01*
X977057Y335374D01*
X978528D01*
X979023Y334104D01*
X978037Y332628D01*
X977610Y330482D01*
X978037Y328336D01*
X979252Y326517D01*
X979884Y326095D01*
Y312968D01*
X980137Y311693D01*
X980860Y310611D01*
X1010003Y281468D01*
X1011084Y280746D01*
X1012360Y280492D01*
X1175513D01*
X1175944Y279222D01*
X1174220Y277899D01*
X1172517Y275679D01*
X1171446Y273095D01*
X1171081Y270321D01*
X1171446Y267547D01*
X1172517Y264963D01*
X1174220Y262743D01*
X1176439Y261040D01*
X1179024Y259969D01*
X1181798Y259604D01*
X1184571Y259969D01*
X1187156Y261040D01*
X1189376Y262743D01*
X1191079Y264963D01*
X1192149Y267547D01*
X1192514Y270321D01*
X1192149Y273095D01*
X1191079Y275679D01*
X1189376Y277899D01*
X1187651Y279222D01*
X1188082Y280492D01*
X1196399D01*
X1196573Y280349D01*
Y259696D01*
X1217823D01*
Y280946D01*
X1200030D01*
X1199504Y282216D01*
X1203175Y285887D01*
X1204424Y285369D01*
X1207198Y285004D01*
X1209971Y285369D01*
X1212556Y286440D01*
X1214776Y288143D01*
X1216479Y290363D01*
X1217549Y292947D01*
X1217915Y295721D01*
X1217549Y298495D01*
X1216479Y301079D01*
X1214776Y303299D01*
X1212556Y305002D01*
X1209971Y306073D01*
X1207198Y306438D01*
X1204424Y306073D01*
X1201839Y305002D01*
X1199620Y303299D01*
X1197917Y301079D01*
X1196846Y298495D01*
X1196481Y295721D01*
X1196846Y292947D01*
X1197917Y290363D01*
X1198049Y290191D01*
X1195018Y287160D01*
X1190020D01*
X1189596Y288430D01*
X1191079Y290363D01*
X1192149Y292947D01*
X1192514Y295721D01*
X1192149Y298495D01*
X1191079Y301079D01*
X1189376Y303299D01*
X1187156Y305002D01*
X1184571Y306073D01*
X1181798Y306438D01*
X1179024Y306073D01*
X1176439Y305002D01*
X1174220Y303299D01*
X1172517Y301079D01*
X1171678Y299055D01*
X1020257D01*
X1002054Y317257D01*
Y326984D01*
X1002686Y327406D01*
X1003901Y329225D01*
X1004328Y331371D01*
X1003901Y333517D01*
X1003509Y334104D01*
X1004187Y335374D01*
X1007616D01*
X1015462Y327529D01*
X1016620Y326755D01*
X1017985Y326483D01*
X1060563D01*
X1060828Y326087D01*
X1062647Y324871D01*
X1064793Y324444D01*
X1066939Y324871D01*
X1068758Y326087D01*
X1069974Y327906D01*
X1070401Y330052D01*
X1069974Y332198D01*
X1068758Y334017D01*
X1068361Y334282D01*
Y418207D01*
X1068090Y419573D01*
X1067316Y420731D01*
X1029977Y458069D01*
X1028820Y458843D01*
X1027454Y459115D01*
X995481D01*
X995216Y459511D01*
X993397Y460727D01*
X991251Y461154D01*
X989105Y460727D01*
X987285Y459511D01*
X987020Y459115D01*
X964682D01*
X917346Y506450D01*
Y552584D01*
X917743Y552849D01*
X918959Y554668D01*
X919385Y556814D01*
X918959Y558960D01*
X917743Y560779D01*
X917346Y561044D01*
Y665800D01*
X968978Y717431D01*
X989770D01*
X990035Y717035D01*
X991854Y715819D01*
X994000Y715392D01*
X996146Y715819D01*
X997965Y717035D01*
X998230Y717431D01*
X1015938D01*
X1063746Y669623D01*
Y592434D01*
X1063349Y592169D01*
X1062133Y590350D01*
X1061706Y588204D01*
X1062133Y586058D01*
X1062250Y585883D01*
X1061652Y584763D01*
X1016260D01*
X1003745Y597278D01*
Y611163D01*
X1004652Y611769D01*
X1005867Y613588D01*
X1006294Y615734D01*
X1005867Y617880D01*
X1004652Y619700D01*
X1002832Y620915D01*
X1000686Y621342D01*
X998540Y620915D01*
X996721Y619700D01*
X995506Y617880D01*
X995079Y615734D01*
X995506Y613588D01*
X996721Y611769D01*
X997628Y611163D01*
Y596011D01*
X997628Y596011D01*
X997861Y594840D01*
X998524Y593848D01*
X1012831Y579541D01*
X1012831Y579541D01*
X1013823Y578878D01*
X1014993Y578645D01*
X1173923D01*
X1174277Y577375D01*
X1172651Y575257D01*
X1171526Y572541D01*
X1171340Y571126D01*
X1182403D01*
X1193468D01*
X1193281Y572541D01*
X1192156Y575257D01*
X1190531Y577375D01*
X1190884Y578645D01*
X1194481D01*
X1194482Y578645D01*
X1195652Y578878D01*
X1195909Y579049D01*
X1197179Y578371D01*
Y559001D01*
X1202706D01*
Y553196D01*
X1203094Y551245D01*
X1204199Y549592D01*
X1233652Y520138D01*
Y246486D01*
X1214805Y227639D01*
X899697D01*
Y442303D01*
X900107Y444360D01*
X899680Y446506D01*
X898464Y448325D01*
X896645Y449541D01*
X894499Y449968D01*
X892353Y449541D01*
X890534Y448325D01*
X889318Y446506D01*
X888891Y444360D01*
X889318Y442214D01*
X889501Y441940D01*
Y224598D01*
X889092Y222541D01*
X889519Y220395D01*
X890734Y218576D01*
X892554Y217360D01*
X894700Y216933D01*
X896846Y217360D01*
X896970Y217443D01*
X1216917D01*
X1218867Y217831D01*
X1220521Y218936D01*
X1242355Y240770D01*
X1243460Y242423D01*
X1243848Y244374D01*
Y522250D01*
X1243460Y524201D01*
X1242355Y525855D01*
X1212902Y555308D01*
Y559001D01*
X1218429D01*
Y580251D01*
X1199014D01*
X1198528Y581424D01*
X1202730Y585627D01*
X1205030Y584674D01*
X1207804Y584309D01*
X1210577Y584674D01*
X1213162Y585745D01*
X1215381Y587448D01*
X1217085Y589668D01*
X1218155Y592252D01*
X1218520Y595026D01*
X1218155Y597800D01*
X1217085Y600384D01*
X1215381Y602604D01*
X1213162Y604307D01*
X1210577Y605378D01*
X1207804Y605743D01*
X1205030Y605378D01*
X1202445Y604307D01*
X1200226Y602604D01*
X1198523Y600384D01*
X1197452Y597800D01*
X1197087Y595026D01*
X1197452Y592252D01*
X1198405Y589953D01*
X1193214Y584763D01*
X1188568D01*
X1188137Y586033D01*
X1189982Y587448D01*
X1191685Y589668D01*
X1192755Y592252D01*
X1193120Y595026D01*
X1192755Y597800D01*
X1191685Y600384D01*
X1189982Y602604D01*
X1187762Y604307D01*
X1185177Y605378D01*
X1182404Y605743D01*
X1179630Y605378D01*
X1177045Y604307D01*
X1174826Y602604D01*
X1173123Y600384D01*
X1172052Y597800D01*
X1171687Y595026D01*
X1172052Y592252D01*
X1173123Y589668D01*
X1174826Y587448D01*
X1176671Y586033D01*
X1176239Y584763D01*
X1072977D01*
X1072378Y585883D01*
X1072495Y586058D01*
X1072922Y588204D01*
X1072495Y590350D01*
X1071279Y592169D01*
X1070883Y592434D01*
Y671102D01*
X1070611Y672467D01*
X1069837Y673625D01*
X1019939Y723523D01*
X1018781Y724297D01*
X1017416Y724569D01*
X998230D01*
X997965Y724965D01*
X996146Y726181D01*
X994000Y726608D01*
D02*
G37*
G36*
X1180903Y568126D02*
X1171340D01*
X1171526Y566711D01*
X1172651Y563995D01*
X1174441Y561663D01*
X1176773Y559874D01*
X1179489Y558749D01*
X1180903Y558562D01*
Y568126D01*
D02*
G37*
G36*
X1193467D02*
X1183903D01*
Y558562D01*
X1185318Y558749D01*
X1188034Y559874D01*
X1190367Y561663D01*
X1192156Y563995D01*
X1193281Y566711D01*
X1193467Y568126D01*
D02*
G37*
G36*
X393769Y511895D02*
X391623Y511468D01*
X391443Y511348D01*
X354520D01*
X354396Y511431D01*
X352250Y511858D01*
X350104Y511431D01*
X348285Y510215D01*
X347069Y508396D01*
X346642Y506250D01*
X347069Y504104D01*
X348285Y502285D01*
X350104Y501069D01*
X352250Y500642D01*
X354396Y501069D01*
X354520Y501152D01*
X391554D01*
X391623Y501106D01*
X393769Y500679D01*
X395915Y501106D01*
X397734Y502322D01*
X398950Y504141D01*
X399376Y506287D01*
X398950Y508433D01*
X397734Y510252D01*
X395915Y511468D01*
X393769Y511895D01*
D02*
G37*
G36*
X804510Y764396D02*
X802364Y763969D01*
X800544Y762754D01*
X799329Y760935D01*
X798902Y758789D01*
X799329Y756643D01*
X800544Y754823D01*
X801196Y754388D01*
Y556382D01*
X736127Y491314D01*
X685978D01*
X684710Y491061D01*
X683635Y490343D01*
X678429Y485137D01*
X677661Y485290D01*
X675515Y484864D01*
X673696Y483648D01*
X672480Y481829D01*
X672053Y479683D01*
X672480Y477537D01*
X673696Y475717D01*
X675515Y474502D01*
X677661Y474075D01*
X679807Y474502D01*
X681626Y475717D01*
X682842Y477537D01*
X683269Y479683D01*
X683116Y480451D01*
X687351Y484686D01*
X737500D01*
X738768Y484939D01*
X739843Y485657D01*
X806853Y552666D01*
X807571Y553741D01*
X807823Y555009D01*
Y754388D01*
X808475Y754823D01*
X809690Y756643D01*
X810117Y758789D01*
X809690Y760935D01*
X808475Y762754D01*
X806656Y763969D01*
X804510Y764396D01*
D02*
G37*
G36*
X1207198Y458838D02*
X1204424Y458473D01*
X1201839Y457402D01*
X1199620Y455699D01*
X1197917Y453479D01*
X1196846Y450895D01*
X1196481Y448121D01*
X1196846Y445347D01*
X1197917Y442763D01*
X1199620Y440543D01*
X1201839Y438840D01*
X1204424Y437769D01*
X1207198Y437404D01*
X1209971Y437769D01*
X1212556Y438840D01*
X1214776Y440543D01*
X1216479Y442763D01*
X1217549Y445347D01*
X1217915Y448121D01*
X1217549Y450895D01*
X1216479Y453479D01*
X1214776Y455699D01*
X1212556Y457402D01*
X1209971Y458473D01*
X1207198Y458838D01*
D02*
G37*
G36*
X1181798D02*
X1179024Y458473D01*
X1176439Y457402D01*
X1174220Y455699D01*
X1172517Y453479D01*
X1171446Y450895D01*
X1171081Y448121D01*
X1171446Y445347D01*
X1172517Y442763D01*
X1174220Y440543D01*
X1176439Y438840D01*
X1179024Y437769D01*
X1181798Y437404D01*
X1184571Y437769D01*
X1187156Y438840D01*
X1189376Y440543D01*
X1191079Y442763D01*
X1192149Y445347D01*
X1192514Y448121D01*
X1192149Y450895D01*
X1191079Y453479D01*
X1189376Y455699D01*
X1187156Y457402D01*
X1184571Y458473D01*
X1181798Y458838D01*
D02*
G37*
G36*
X736786Y458880D02*
X734640Y458453D01*
X732821Y457237D01*
X731605Y455418D01*
X731178Y453272D01*
X731605Y451126D01*
X732821Y449307D01*
X734640Y448091D01*
X736786Y447664D01*
X737555Y447817D01*
X752715Y432657D01*
X753790Y431939D01*
X755058Y431686D01*
X784349D01*
X784785Y431035D01*
X786604Y429819D01*
X788750Y429392D01*
X790896Y429819D01*
X792715Y431035D01*
X793931Y432854D01*
X794358Y435000D01*
X793931Y437146D01*
X792715Y438965D01*
X790896Y440181D01*
X788750Y440608D01*
X786604Y440181D01*
X784785Y438965D01*
X784349Y438314D01*
X756431D01*
X742241Y452504D01*
X742394Y453272D01*
X741967Y455418D01*
X740751Y457237D01*
X738932Y458453D01*
X736786Y458880D01*
D02*
G37*
G36*
X1208698Y433785D02*
Y424221D01*
X1218262D01*
X1218075Y425636D01*
X1216950Y428352D01*
X1215161Y430684D01*
X1212828Y432473D01*
X1210112Y433599D01*
X1208698Y433785D01*
D02*
G37*
G36*
X1183298D02*
Y424221D01*
X1192862D01*
X1192675Y425636D01*
X1191550Y428352D01*
X1189761Y430684D01*
X1187428Y432473D01*
X1184712Y433599D01*
X1183298Y433785D01*
D02*
G37*
G36*
X1205698Y433785D02*
X1204283Y433599D01*
X1201567Y432473D01*
X1199235Y430684D01*
X1197445Y428352D01*
X1196320Y425636D01*
X1196134Y424221D01*
X1205698D01*
Y433785D01*
D02*
G37*
G36*
X1180298D02*
X1178883Y433599D01*
X1176167Y432473D01*
X1173835Y430684D01*
X1172045Y428352D01*
X1170920Y425636D01*
X1170734Y424221D01*
X1180298D01*
Y433785D01*
D02*
G37*
G36*
X720500Y425163D02*
X718354Y424736D01*
X716535Y423521D01*
X715319Y421701D01*
X714892Y419555D01*
X714943Y419301D01*
X655398Y359757D01*
X654654Y359905D01*
X653476Y359670D01*
X622026Y391121D01*
X622088Y391433D01*
X621661Y393579D01*
X620445Y395398D01*
X618626Y396614D01*
X616480Y397041D01*
X614334Y396614D01*
X612515Y395398D01*
X611299Y393579D01*
X610872Y391433D01*
X611299Y389287D01*
X612515Y387468D01*
X614334Y386252D01*
X616480Y385825D01*
X617657Y386059D01*
X649108Y354609D01*
X649046Y354297D01*
X649473Y352151D01*
X650688Y350332D01*
X652508Y349116D01*
X654654Y348689D01*
X656800Y349116D01*
X658619Y350332D01*
X659835Y352151D01*
X660262Y354297D01*
X660113Y355041D01*
X719265Y414193D01*
X720500Y413948D01*
X722646Y414374D01*
X724465Y415590D01*
X725681Y417409D01*
X726107Y419555D01*
X725681Y421701D01*
X724465Y423521D01*
X722646Y424736D01*
X720500Y425163D01*
D02*
G37*
G36*
X1205698Y421221D02*
X1196134D01*
X1196320Y419806D01*
X1197445Y417090D01*
X1199235Y414758D01*
X1201567Y412968D01*
X1204283Y411843D01*
X1205698Y411657D01*
Y421221D01*
D02*
G37*
G36*
X1180298D02*
X1170734D01*
X1170920Y419806D01*
X1172045Y417090D01*
X1173835Y414758D01*
X1176167Y412968D01*
X1178883Y411843D01*
X1180298Y411657D01*
Y421221D01*
D02*
G37*
G36*
X1218262D02*
X1208698D01*
Y411657D01*
X1210112Y411843D01*
X1212828Y412968D01*
X1215161Y414758D01*
X1216950Y417090D01*
X1218075Y419806D01*
X1218262Y421221D01*
D02*
G37*
G36*
X1192862D02*
X1183298D01*
Y411657D01*
X1184712Y411843D01*
X1187428Y412968D01*
X1189761Y414758D01*
X1191550Y417090D01*
X1192675Y419806D01*
X1192862Y421221D01*
D02*
G37*
G36*
X1208698Y408385D02*
Y398821D01*
X1218262D01*
X1218075Y400236D01*
X1216950Y402952D01*
X1215161Y405284D01*
X1212828Y407074D01*
X1210112Y408199D01*
X1208698Y408385D01*
D02*
G37*
G36*
X1205698Y408385D02*
X1204283Y408199D01*
X1201567Y407074D01*
X1199235Y405284D01*
X1197445Y402952D01*
X1196320Y400236D01*
X1196134Y398821D01*
X1205698D01*
Y408385D01*
D02*
G37*
G36*
X985712Y620001D02*
X983566Y619574D01*
X981746Y618358D01*
X980531Y616539D01*
X980104Y614393D01*
X980531Y612247D01*
X981746Y610428D01*
X982377Y610006D01*
Y590142D01*
X982631Y588866D01*
X983354Y587784D01*
X1000996Y570143D01*
X1002077Y569420D01*
X1003353Y569166D01*
X1049119D01*
X1141719Y476566D01*
Y416704D01*
X1141973Y415428D01*
X1142696Y414346D01*
X1162079Y394963D01*
X1163160Y394241D01*
X1164436Y393987D01*
X1171678D01*
X1172517Y391963D01*
X1174000Y390030D01*
X1173577Y388760D01*
X1143427D01*
X1027425Y504761D01*
Y523346D01*
X1028077Y523781D01*
X1029292Y525600D01*
X1029719Y527746D01*
X1029292Y529892D01*
X1028077Y531712D01*
X1026257Y532927D01*
X1024111Y533354D01*
X1021965Y532927D01*
X1020146Y531712D01*
X1018931Y529892D01*
X1018504Y527746D01*
X1018931Y525600D01*
X1020146Y523781D01*
X1020798Y523346D01*
Y503963D01*
X1019528Y503437D01*
X993357Y529608D01*
X992276Y530330D01*
X991000Y530584D01*
X978855D01*
X978433Y531215D01*
X976614Y532431D01*
X974468Y532858D01*
X972322Y532431D01*
X970502Y531215D01*
X969287Y529396D01*
X968860Y527250D01*
X969287Y525104D01*
X970502Y523285D01*
X972322Y522069D01*
X974468Y521642D01*
X976614Y522069D01*
X978433Y523285D01*
X978855Y523916D01*
X989619D01*
X1143971Y369563D01*
X1145053Y368841D01*
X1146329Y368587D01*
X1171678D01*
X1172517Y366563D01*
X1174220Y364343D01*
X1176439Y362640D01*
X1179024Y361569D01*
X1181798Y361204D01*
X1184571Y361569D01*
X1187156Y362640D01*
X1189376Y364343D01*
X1191079Y366563D01*
X1192149Y369147D01*
X1192514Y371921D01*
X1192149Y374695D01*
X1191079Y377279D01*
X1189376Y379499D01*
X1187599Y380862D01*
X1188030Y382132D01*
X1192300D01*
X1197693Y376739D01*
X1196846Y374695D01*
X1196481Y371921D01*
X1196846Y369147D01*
X1197917Y366563D01*
X1199620Y364343D01*
X1201839Y362640D01*
X1204424Y361569D01*
X1207198Y361204D01*
X1209971Y361569D01*
X1212556Y362640D01*
X1214776Y364343D01*
X1216479Y366563D01*
X1217549Y369147D01*
X1217915Y371921D01*
X1217549Y374695D01*
X1216479Y377279D01*
X1214776Y379499D01*
X1212556Y381202D01*
X1209971Y382272D01*
X1207198Y382638D01*
X1204424Y382272D01*
X1202379Y381426D01*
X1196016Y387789D01*
X1194941Y388507D01*
X1193673Y388760D01*
X1190019D01*
X1189595Y390030D01*
X1191079Y391963D01*
X1192149Y394547D01*
X1192514Y397321D01*
X1192149Y400095D01*
X1191079Y402679D01*
X1189376Y404899D01*
X1187156Y406602D01*
X1184571Y407673D01*
X1181798Y408038D01*
X1179024Y407673D01*
X1176439Y406602D01*
X1174220Y404899D01*
X1172517Y402679D01*
X1171678Y400655D01*
X1165817D01*
X1148387Y418085D01*
Y477947D01*
X1148133Y479223D01*
X1147411Y480304D01*
X1052858Y574857D01*
X1051776Y575580D01*
X1050500Y575834D01*
X1004734D01*
X989045Y591523D01*
Y610006D01*
X989677Y610428D01*
X990892Y612247D01*
X991319Y614393D01*
X990892Y616539D01*
X989677Y618358D01*
X987858Y619574D01*
X985712Y620001D01*
D02*
G37*
G36*
X1205698Y395821D02*
X1196134D01*
X1196320Y394406D01*
X1197445Y391690D01*
X1199235Y389358D01*
X1201567Y387568D01*
X1204283Y386443D01*
X1205698Y386257D01*
Y395821D01*
D02*
G37*
G36*
X1218262D02*
X1208698D01*
Y386257D01*
X1210112Y386443D01*
X1212828Y387568D01*
X1215161Y389358D01*
X1216950Y391690D01*
X1218075Y394406D01*
X1218262Y395821D01*
D02*
G37*
G36*
X1207198Y357238D02*
X1204424Y356872D01*
X1201839Y355802D01*
X1199620Y354099D01*
X1197917Y351879D01*
X1196846Y349295D01*
X1196481Y346521D01*
X1196846Y343747D01*
X1197917Y341163D01*
X1199620Y338943D01*
X1201839Y337240D01*
X1204424Y336169D01*
X1207198Y335804D01*
X1209971Y336169D01*
X1212556Y337240D01*
X1214776Y338943D01*
X1216479Y341163D01*
X1217549Y343747D01*
X1217915Y346521D01*
X1217549Y349295D01*
X1216479Y351879D01*
X1214776Y354099D01*
X1212556Y355802D01*
X1209971Y356872D01*
X1207198Y357238D01*
D02*
G37*
G36*
X1181798D02*
X1179024Y356872D01*
X1176439Y355802D01*
X1174220Y354099D01*
X1172517Y351879D01*
X1171446Y349295D01*
X1171081Y346521D01*
X1171446Y343747D01*
X1172517Y341163D01*
X1174220Y338943D01*
X1176439Y337240D01*
X1179024Y336169D01*
X1181798Y335804D01*
X1184571Y336169D01*
X1187156Y337240D01*
X1189376Y338943D01*
X1191079Y341163D01*
X1192149Y343747D01*
X1192514Y346521D01*
X1192149Y349295D01*
X1191079Y351879D01*
X1189376Y354099D01*
X1187156Y355802D01*
X1184571Y356872D01*
X1181798Y357238D01*
D02*
G37*
G36*
X1207198Y331838D02*
X1204424Y331473D01*
X1201839Y330402D01*
X1199620Y328699D01*
X1197917Y326479D01*
X1196846Y323895D01*
X1196481Y321121D01*
X1196846Y318347D01*
X1197917Y315763D01*
X1199620Y313543D01*
X1201839Y311840D01*
X1204424Y310769D01*
X1207198Y310404D01*
X1209971Y310769D01*
X1212556Y311840D01*
X1214776Y313543D01*
X1216479Y315763D01*
X1217549Y318347D01*
X1217915Y321121D01*
X1217549Y323895D01*
X1216479Y326479D01*
X1214776Y328699D01*
X1212556Y330402D01*
X1209971Y331473D01*
X1207198Y331838D01*
D02*
G37*
G36*
X1181798D02*
X1179024Y331473D01*
X1176439Y330402D01*
X1174220Y328699D01*
X1172517Y326479D01*
X1171446Y323895D01*
X1171081Y321121D01*
X1171446Y318347D01*
X1172517Y315763D01*
X1174220Y313543D01*
X1176439Y311840D01*
X1179024Y310769D01*
X1181798Y310404D01*
X1184571Y310769D01*
X1187156Y311840D01*
X1189376Y313543D01*
X1191079Y315763D01*
X1192149Y318347D01*
X1192514Y321121D01*
X1192149Y323895D01*
X1191079Y326479D01*
X1189376Y328699D01*
X1187156Y330402D01*
X1184571Y331473D01*
X1181798Y331838D01*
D02*
G37*
G36*
X836760Y633539D02*
X834614Y633112D01*
X832795Y631896D01*
X831579Y630077D01*
X831152Y627931D01*
X831579Y625785D01*
X832795Y623965D01*
X833437Y623537D01*
Y607448D01*
X833040Y607182D01*
X831824Y605363D01*
X831397Y603217D01*
X831824Y601071D01*
X833040Y599252D01*
X833437Y598987D01*
Y576690D01*
X832315Y575011D01*
X831888Y572865D01*
X832315Y570719D01*
X833437Y569040D01*
Y542118D01*
X833104Y541896D01*
X831888Y540077D01*
X831461Y537931D01*
X831888Y535785D01*
X833104Y533965D01*
X833437Y533743D01*
Y406053D01*
X833104Y405830D01*
X831888Y404011D01*
X831461Y401865D01*
X831888Y399719D01*
X833104Y397900D01*
X833437Y397677D01*
Y381053D01*
X833104Y380830D01*
X831888Y379011D01*
X831461Y376865D01*
X831888Y374719D01*
X833104Y372900D01*
X833437Y372677D01*
Y351053D01*
X833104Y350830D01*
X831888Y349011D01*
X831461Y346865D01*
X831888Y344719D01*
X833104Y342900D01*
X833437Y342677D01*
Y316112D01*
X833285Y316011D01*
X832069Y314192D01*
X831642Y312046D01*
X832069Y309900D01*
X833285Y308081D01*
X835104Y306865D01*
X837250Y306438D01*
X839396Y306865D01*
X841215Y308081D01*
X842431Y309900D01*
X842858Y312046D01*
X842431Y314192D01*
X841215Y316011D01*
X840574Y316440D01*
Y342592D01*
X841034Y342900D01*
X842250Y344719D01*
X842677Y346865D01*
X842250Y349011D01*
X841034Y350830D01*
X840574Y351138D01*
Y372592D01*
X841034Y372900D01*
X842250Y374719D01*
X842677Y376865D01*
X842250Y379011D01*
X841034Y380830D01*
X840574Y381138D01*
Y397592D01*
X841034Y397900D01*
X842250Y399719D01*
X842677Y401865D01*
X842250Y404011D01*
X841034Y405830D01*
X840574Y406138D01*
Y533658D01*
X841034Y533965D01*
X842250Y535785D01*
X842677Y537931D01*
X842250Y540077D01*
X841034Y541896D01*
X840574Y542204D01*
Y568307D01*
X841461Y568900D01*
X842677Y570719D01*
X843103Y572865D01*
X842677Y575011D01*
X841461Y576830D01*
X840574Y577423D01*
Y598987D01*
X840970Y599252D01*
X842186Y601071D01*
X842613Y603217D01*
X842186Y605363D01*
X840970Y607182D01*
X840574Y607448D01*
Y623864D01*
X840725Y623965D01*
X841941Y625785D01*
X842368Y627931D01*
X841941Y630077D01*
X840725Y631896D01*
X838906Y633112D01*
X836760Y633539D01*
D02*
G37*
G36*
X873750Y628108D02*
X871604Y627681D01*
X869785Y626465D01*
X868569Y624646D01*
X868142Y622500D01*
X868569Y620354D01*
X869785Y618535D01*
X870553Y618022D01*
Y601760D01*
X869785Y601247D01*
X868569Y599427D01*
X868142Y597281D01*
X868569Y595135D01*
X869785Y593316D01*
X870553Y592803D01*
Y564925D01*
X870510Y564896D01*
X869294Y563077D01*
X868867Y560931D01*
X869294Y558785D01*
X870510Y556965D01*
X870854Y556735D01*
Y537196D01*
X870405Y536896D01*
X869189Y535077D01*
X868762Y532931D01*
X869189Y530785D01*
X870405Y528965D01*
X870553Y528867D01*
Y422155D01*
X870216Y421929D01*
X869000Y420110D01*
X868573Y417964D01*
X869000Y415818D01*
X870216Y413999D01*
X870553Y413773D01*
Y370786D01*
X870527Y370769D01*
X869312Y368950D01*
X868885Y366804D01*
X869312Y364658D01*
X870527Y362838D01*
X870553Y362821D01*
Y335899D01*
X870527Y335882D01*
X869312Y334063D01*
X868885Y331917D01*
X869312Y329771D01*
X870527Y327952D01*
X870553Y327935D01*
Y305847D01*
X870527Y305830D01*
X869312Y304011D01*
X868885Y301865D01*
X869312Y299719D01*
X870527Y297900D01*
X872347Y296684D01*
X874493Y296257D01*
X876639Y296684D01*
X878458Y297900D01*
X879673Y299719D01*
X880100Y301865D01*
X879673Y304011D01*
X878458Y305830D01*
X877690Y306343D01*
Y327439D01*
X878458Y327952D01*
X879673Y329771D01*
X880100Y331917D01*
X879673Y334063D01*
X878458Y335882D01*
X877690Y336396D01*
Y362325D01*
X878458Y362838D01*
X879673Y364658D01*
X880100Y366804D01*
X879673Y368950D01*
X878458Y370769D01*
X877690Y371282D01*
Y413694D01*
X878146Y413999D01*
X879362Y415818D01*
X879789Y417964D01*
X879362Y420110D01*
X878146Y421929D01*
X877690Y422234D01*
Y528534D01*
X878335Y528965D01*
X879551Y530785D01*
X879978Y532931D01*
X879551Y535077D01*
X878335Y536896D01*
X877991Y537126D01*
Y556665D01*
X878440Y556965D01*
X879656Y558785D01*
X880083Y560931D01*
X879656Y563077D01*
X878440Y564896D01*
X877690Y565397D01*
Y593299D01*
X877715Y593316D01*
X878931Y595135D01*
X879358Y597281D01*
X878931Y599427D01*
X877715Y601247D01*
X877690Y601264D01*
Y618518D01*
X877715Y618535D01*
X878931Y620354D01*
X879358Y622500D01*
X878931Y624646D01*
X877715Y626465D01*
X875896Y627681D01*
X873750Y628108D01*
D02*
G37*
G36*
X819500Y511358D02*
X817354Y510931D01*
X815535Y509715D01*
X814319Y507896D01*
X813892Y505750D01*
X814319Y503604D01*
X815535Y501785D01*
X816311Y501266D01*
Y280567D01*
X815785Y280215D01*
X815349Y279564D01*
X770623D01*
X690205Y359981D01*
X690358Y360750D01*
X689931Y362896D01*
X688715Y364715D01*
X686896Y365931D01*
X684750Y366358D01*
X682604Y365931D01*
X680785Y364715D01*
X679569Y362896D01*
X679142Y360750D01*
X679569Y358604D01*
X680785Y356785D01*
X682604Y355569D01*
X684750Y355142D01*
X685519Y355295D01*
X766907Y273907D01*
X767982Y273189D01*
X769250Y272936D01*
X815349D01*
X815785Y272285D01*
X817604Y271069D01*
X819750Y270642D01*
X821896Y271069D01*
X823715Y272285D01*
X824931Y274104D01*
X825358Y276250D01*
X824931Y278396D01*
X823715Y280215D01*
X822939Y280734D01*
Y501433D01*
X823465Y501785D01*
X824681Y503604D01*
X825108Y505750D01*
X824681Y507896D01*
X823465Y509715D01*
X821646Y510931D01*
X819500Y511358D01*
D02*
G37*
G36*
X652000Y311358D02*
X649854Y310931D01*
X648035Y309715D01*
X646819Y307896D01*
X646392Y305750D01*
X646819Y303604D01*
X648035Y301785D01*
X649854Y300569D01*
X652000Y300142D01*
X652468Y300235D01*
X737274Y215429D01*
X738431Y214656D01*
X739797Y214384D01*
X775020D01*
X775285Y213988D01*
X777104Y212772D01*
X779250Y212345D01*
X781396Y212772D01*
X783215Y213988D01*
X784431Y215807D01*
X784858Y217953D01*
X784431Y220099D01*
X783215Y221918D01*
X781396Y223134D01*
X779250Y223561D01*
X777104Y223134D01*
X775285Y221918D01*
X775020Y221521D01*
X741275D01*
X657515Y305282D01*
X657608Y305750D01*
X657181Y307896D01*
X655965Y309715D01*
X654146Y310931D01*
X652000Y311358D01*
D02*
G37*
G36*
X546179Y219128D02*
X532179D01*
Y210031D01*
X552775D01*
Y212531D01*
X552551Y214238D01*
X551892Y215829D01*
X550844Y217195D01*
X549477Y218244D01*
X547886Y218903D01*
X546179Y219128D01*
D02*
G37*
G36*
X529179D02*
X515179D01*
X513472Y218903D01*
X511881Y218244D01*
X510515Y217195D01*
X509466Y215829D01*
X508807Y214238D01*
X508583Y212531D01*
Y210031D01*
X529179D01*
Y219128D01*
D02*
G37*
G36*
X552775Y207031D02*
X532179D01*
Y197935D01*
X546179D01*
X547886Y198160D01*
X549477Y198818D01*
X550844Y199867D01*
X551892Y201233D01*
X552551Y202824D01*
X552775Y204531D01*
Y207031D01*
D02*
G37*
G36*
X529179D02*
X508583D01*
Y204531D01*
X508807Y202824D01*
X509466Y201233D01*
X510515Y199867D01*
X511881Y198818D01*
X513472Y198160D01*
X515179Y197935D01*
X529179D01*
Y207031D01*
D02*
G37*
G36*
X546680Y196353D02*
Y189941D01*
X553091D01*
X553012Y190540D01*
X552202Y192496D01*
X550913Y194175D01*
X549234Y195464D01*
X547278Y196274D01*
X546680Y196353D01*
D02*
G37*
G36*
X543680Y196353D02*
X543080Y196274D01*
X541124Y195464D01*
X539445Y194175D01*
X538156Y192496D01*
X537346Y190540D01*
X537267Y189941D01*
X543680D01*
Y196353D01*
D02*
G37*
G36*
X553091Y186941D02*
X546680D01*
Y180529D01*
X547278Y180608D01*
X549234Y181418D01*
X550913Y182707D01*
X552202Y184387D01*
X553012Y186342D01*
X553091Y186941D01*
D02*
G37*
G36*
X543680D02*
X537267D01*
X537346Y186342D01*
X538156Y184387D01*
X539445Y182707D01*
X541124Y181418D01*
X543080Y180608D01*
X543680Y180529D01*
Y186941D01*
D02*
G37*
G36*
X517349Y187506D02*
X515391Y187248D01*
X513567Y186492D01*
X512000Y185290D01*
X510798Y183724D01*
X510042Y181899D01*
X509785Y179941D01*
X510042Y177983D01*
X510798Y176159D01*
X512000Y174592D01*
X513567Y173390D01*
X515391Y172634D01*
X517349Y172376D01*
X519307Y172634D01*
X521132Y173390D01*
X522698Y174592D01*
X523900Y176159D01*
X524656Y177983D01*
X524914Y179941D01*
X524656Y181899D01*
X523900Y183724D01*
X522698Y185290D01*
X521132Y186492D01*
X519307Y187248D01*
X517349Y187506D01*
D02*
G37*
G36*
X1208661Y183221D02*
X1194871D01*
Y169431D01*
X1208661D01*
Y183221D01*
D02*
G37*
G36*
X1191871D02*
X1178081D01*
Y169431D01*
X1191871D01*
Y183221D01*
D02*
G37*
G36*
X545179Y178756D02*
X543221Y178498D01*
X541397Y177742D01*
X539830Y176540D01*
X538628Y174974D01*
X537872Y173149D01*
X537615Y171191D01*
X537872Y169233D01*
X538628Y167409D01*
X539830Y165842D01*
X541397Y164640D01*
X543221Y163884D01*
X545179Y163626D01*
X547137Y163884D01*
X548961Y164640D01*
X550528Y165842D01*
X551730Y167409D01*
X552486Y169233D01*
X552744Y171191D01*
X552486Y173149D01*
X551730Y174974D01*
X550528Y176540D01*
X548961Y177742D01*
X547137Y178498D01*
X545179Y178756D01*
D02*
G37*
G36*
X517349Y169756D02*
X515391Y169498D01*
X513567Y168742D01*
X512000Y167540D01*
X510798Y165973D01*
X510042Y164149D01*
X509785Y162191D01*
X510042Y160233D01*
X510798Y158409D01*
X512000Y156842D01*
X513567Y155640D01*
X515391Y154884D01*
X517349Y154627D01*
X519307Y154884D01*
X521132Y155640D01*
X522698Y156842D01*
X523900Y158409D01*
X524656Y160233D01*
X524914Y162191D01*
X524656Y164149D01*
X523900Y165973D01*
X522698Y167540D01*
X521132Y168742D01*
X519307Y169498D01*
X517349Y169756D01*
D02*
G37*
G36*
X1208661Y166431D02*
X1194871D01*
Y152641D01*
X1208661D01*
Y166431D01*
D02*
G37*
G36*
X1191871D02*
X1178081D01*
Y152641D01*
X1191871D01*
Y166431D01*
D02*
G37*
G36*
X858227Y787959D02*
X856081Y787532D01*
X854262Y786316D01*
X853046Y784497D01*
X852620Y782351D01*
X853046Y780205D01*
X853129Y780081D01*
Y218273D01*
X853517Y216322D01*
X854622Y214668D01*
X914899Y154391D01*
X916553Y153286D01*
X918504Y152898D01*
X953172D01*
X953296Y152815D01*
X955442Y152388D01*
X957588Y152815D01*
X959407Y154031D01*
X960623Y155850D01*
X961050Y157996D01*
X960623Y160142D01*
X959407Y161961D01*
X957588Y163177D01*
X955442Y163603D01*
X953296Y163177D01*
X953172Y163094D01*
X920616D01*
X863325Y220384D01*
Y780081D01*
X863408Y780205D01*
X863835Y782351D01*
X863408Y784497D01*
X862193Y786316D01*
X860373Y787532D01*
X858227Y787959D01*
D02*
G37*
G36*
X545179Y161256D02*
X543221Y160998D01*
X541397Y160242D01*
X539830Y159040D01*
X538628Y157473D01*
X537872Y155649D01*
X537615Y153691D01*
X537872Y151733D01*
X538628Y149909D01*
X539830Y148342D01*
X541397Y147140D01*
X543221Y146384D01*
X545179Y146126D01*
X547137Y146384D01*
X547606Y146578D01*
X549105Y145079D01*
X548386Y144003D01*
X547636Y144313D01*
X545929Y144538D01*
X531929D01*
Y135441D01*
X552526D01*
Y137941D01*
X552301Y139648D01*
X551991Y140398D01*
X553067Y141117D01*
X587527Y106657D01*
X588602Y105939D01*
X589870Y105686D01*
X635349D01*
X635785Y105035D01*
X637604Y103819D01*
X639750Y103392D01*
X641896Y103819D01*
X643715Y105035D01*
X644931Y106854D01*
X645358Y109000D01*
X644931Y111146D01*
X643715Y112965D01*
X641896Y114181D01*
X639750Y114608D01*
X637604Y114181D01*
X635785Y112965D01*
X635349Y112314D01*
X591243D01*
X589575Y113982D01*
X590201Y115152D01*
X590250Y115142D01*
X592396Y115569D01*
X594215Y116785D01*
X594821Y117691D01*
X644686D01*
X644686Y117691D01*
X645857Y117924D01*
X646849Y118587D01*
X666521Y138259D01*
X667590Y138046D01*
X669736Y138473D01*
X671555Y139689D01*
X672771Y141508D01*
X673198Y143654D01*
X672771Y145800D01*
X671555Y147619D01*
X669736Y148835D01*
X667590Y149262D01*
X665444Y148835D01*
X663625Y147619D01*
X662409Y145800D01*
X661982Y143654D01*
X662195Y142585D01*
X643419Y123809D01*
X594821D01*
X594215Y124715D01*
X592396Y125931D01*
X590250Y126358D01*
X588104Y125931D01*
X586285Y124715D01*
X585069Y122896D01*
X584642Y120750D01*
X584652Y120701D01*
X583482Y120075D01*
X552292Y151265D01*
X552486Y151733D01*
X552744Y153691D01*
X552486Y155649D01*
X551730Y157473D01*
X550528Y159040D01*
X548961Y160242D01*
X547137Y160998D01*
X545179Y161256D01*
D02*
G37*
G36*
X528929Y144538D02*
X514929D01*
X513222Y144313D01*
X511631Y143654D01*
X510265Y142605D01*
X509216Y141239D01*
X508558Y139648D01*
X508333Y137941D01*
Y135441D01*
X528929D01*
Y144538D01*
D02*
G37*
G36*
X552526Y132441D02*
X531929D01*
Y123345D01*
X545929D01*
X547636Y123569D01*
X549227Y124228D01*
X550594Y125277D01*
X551642Y126643D01*
X552301Y128234D01*
X552526Y129941D01*
Y132441D01*
D02*
G37*
G36*
X528929D02*
X508333D01*
Y129941D01*
X508558Y128234D01*
X509216Y126643D01*
X510265Y125277D01*
X511631Y124228D01*
X513222Y123569D01*
X514929Y123345D01*
X528929D01*
Y132441D01*
D02*
G37*
G36*
X1193371Y131952D02*
X1190480Y131667D01*
X1187699Y130824D01*
X1185137Y129454D01*
X1182891Y127611D01*
X1181048Y125365D01*
X1179678Y122803D01*
X1178834Y120022D01*
X1178550Y117131D01*
X1178834Y114239D01*
X1179678Y111459D01*
X1181048Y108897D01*
X1182891Y106651D01*
X1185137Y104807D01*
X1187699Y103438D01*
X1190480Y102594D01*
X1193371Y102310D01*
X1196263Y102594D01*
X1199043Y103438D01*
X1201605Y104807D01*
X1203851Y106651D01*
X1205695Y108897D01*
X1207064Y111459D01*
X1207908Y114239D01*
X1208192Y117131D01*
X1207908Y120022D01*
X1207064Y122803D01*
X1205695Y125365D01*
X1203851Y127611D01*
X1201605Y129454D01*
X1199043Y130824D01*
X1196263Y131667D01*
X1193371Y131952D01*
D02*
G37*
G36*
X1125265Y80983D02*
Y50500D01*
X1155748D01*
X1155504Y53606D01*
X1154308Y58587D01*
X1152348Y63319D01*
X1149672Y67686D01*
X1146345Y71580D01*
X1142450Y74907D01*
X1138083Y77583D01*
X1133351Y79543D01*
X1128371Y80739D01*
X1125265Y80983D01*
D02*
G37*
G36*
X1121265D02*
X1118159Y80739D01*
X1113178Y79543D01*
X1108446Y77583D01*
X1104079Y74907D01*
X1100184Y71580D01*
X1096858Y67686D01*
X1094182Y63319D01*
X1092222Y58587D01*
X1091026Y53606D01*
X1090782Y50500D01*
X1121265D01*
Y80983D01*
D02*
G37*
G36*
X1155748Y46500D02*
X1125265D01*
Y16017D01*
X1128371Y16261D01*
X1133351Y17457D01*
X1138083Y19417D01*
X1142450Y22093D01*
X1146345Y25420D01*
X1149672Y29314D01*
X1152348Y33681D01*
X1154308Y38414D01*
X1155504Y43394D01*
X1155748Y46500D01*
D02*
G37*
G36*
X1121265D02*
X1090782D01*
X1091026Y43394D01*
X1092222Y38414D01*
X1094182Y33681D01*
X1096858Y29314D01*
X1100184Y25420D01*
X1104079Y22093D01*
X1108446Y19417D01*
X1113178Y17457D01*
X1118159Y16261D01*
X1121265Y16017D01*
Y46500D01*
D02*
G37*
G36*
X205000Y594839D02*
X203096Y594589D01*
X199924Y593275D01*
X197200Y591185D01*
X195110Y588461D01*
X193796Y585288D01*
X193545Y583385D01*
X205000D01*
Y594839D01*
D02*
G37*
G36*
Y580384D02*
X193545D01*
X193796Y578480D01*
X195110Y575308D01*
X197200Y572584D01*
X199924Y570494D01*
X203096Y569180D01*
X205000Y568929D01*
Y580384D01*
D02*
G37*
G36*
X65040Y528276D02*
X51250D01*
Y514486D01*
X65040D01*
Y528276D01*
D02*
G37*
G36*
X48250D02*
X34460D01*
Y514486D01*
X48250D01*
Y528276D01*
D02*
G37*
G36*
X205251Y467385D02*
X193795D01*
X194046Y465480D01*
X195360Y462308D01*
X197450Y459584D01*
X200174Y457494D01*
X203346Y456180D01*
X205251Y455929D01*
Y467385D01*
D02*
G37*
G36*
X65040Y421374D02*
X51250D01*
Y407584D01*
X65040D01*
Y421374D01*
D02*
G37*
G36*
X48250D02*
X34460D01*
Y407584D01*
X48250D01*
Y421374D01*
D02*
G37*
G36*
X65040Y404584D02*
X51250D01*
Y390794D01*
X65040D01*
Y404584D01*
D02*
G37*
G36*
X48250D02*
X34460D01*
Y390794D01*
X48250D01*
Y404584D01*
D02*
G37*
G36*
X205000Y355384D02*
X193545D01*
X193796Y353480D01*
X195110Y350308D01*
X197200Y347584D01*
X199924Y345494D01*
X203096Y344180D01*
X205000Y343929D01*
Y355384D01*
D02*
G37*
G36*
X64790Y297424D02*
X51000D01*
Y283635D01*
X64790D01*
Y297424D01*
D02*
G37*
G36*
X48000D02*
X34210D01*
Y283635D01*
X48000D01*
Y297424D01*
D02*
G37*
G36*
X64790Y280635D02*
X51000D01*
Y266844D01*
X64790D01*
Y280635D01*
D02*
G37*
G36*
X48000D02*
X34210D01*
Y266844D01*
X48000D01*
Y280635D01*
D02*
G37*
G36*
X205250Y244885D02*
X193795D01*
X194046Y242980D01*
X195360Y239808D01*
X197450Y237084D01*
X200174Y234994D01*
X203346Y233680D01*
X205250Y233429D01*
Y244885D01*
D02*
G37*
G36*
X64790Y172674D02*
X51000D01*
Y158884D01*
X64790D01*
Y172674D01*
D02*
G37*
G36*
X48000D02*
X34210D01*
Y158884D01*
X48000D01*
Y172674D01*
D02*
G37*
G36*
X64790Y155885D02*
X51000D01*
Y142094D01*
X64790D01*
Y155885D01*
D02*
G37*
G36*
X48000D02*
X34210D01*
Y142094D01*
X48000D01*
Y155885D01*
D02*
G37*
%LPD*%
D11*
X837005Y312291D02*
Y603217D01*
X874423Y560931D02*
Y562795D01*
Y533232D02*
Y560878D01*
X874475Y560931D01*
X874121Y597281D02*
Y622129D01*
Y562848D02*
Y597281D01*
Y331917D02*
Y366804D01*
Y532931D02*
X874423Y533232D01*
X874121Y302236D02*
Y331917D01*
Y417964D02*
Y532931D01*
Y366804D02*
Y417964D01*
X991251Y455546D02*
X1027454D01*
X1064793Y418207D01*
X913778Y504972D02*
X963204Y455546D01*
X991251D01*
X1067314Y588204D02*
Y671102D01*
X1017416Y721000D02*
X1067314Y671102D01*
X994000Y721000D02*
X1017416D01*
X913778Y556814D02*
Y667278D01*
X967500Y721000D02*
X994000D01*
X913778Y667278D02*
X967500Y721000D01*
X913778Y504972D02*
Y556814D01*
X1064793Y330052D02*
Y418207D01*
X977057Y338943D02*
X1009094D01*
X1017985Y330052D02*
X1064793D01*
X1009094Y338943D02*
X1017985Y330052D01*
X968250Y339250D02*
X976750D01*
X958771Y329771D02*
X968250Y339250D01*
X913778Y329771D02*
X958771D01*
X976750Y339250D02*
X977057Y338943D01*
X652000Y305750D02*
X739797Y217953D01*
X779250D01*
X565478Y820728D02*
X565507Y820757D01*
X578500Y754823D02*
Y807765D01*
X565507Y820757D02*
X578500Y807765D01*
X552752Y820728D02*
X565478D01*
X481500Y756750D02*
X575491D01*
X577418Y754823D01*
X578500D01*
X873750Y622500D02*
X874121Y622129D01*
Y302236D02*
X874493Y301865D01*
X837005Y603217D02*
Y627686D01*
X836760Y627931D02*
X837005Y627686D01*
Y312291D02*
X837250Y312046D01*
D13*
X1000686Y596011D02*
Y615734D01*
Y596011D02*
X1014993Y581704D01*
X1194482D01*
X1207804Y595026D01*
X590250Y120750D02*
X644686D01*
X667590Y143654D01*
D62*
X545179Y188441D02*
D03*
X517349Y179941D02*
D03*
X545179Y171191D02*
D03*
X517349Y162191D02*
D03*
X545179Y153691D02*
D03*
D63*
X308000Y692134D02*
D03*
Y617134D02*
D03*
X308500Y580884D02*
D03*
Y505884D02*
D03*
X308750Y467884D02*
D03*
Y392884D02*
D03*
X308500Y355884D02*
D03*
Y280884D02*
D03*
X308750Y245384D02*
D03*
Y170384D02*
D03*
D75*
X1193371Y167931D02*
D03*
X49500Y157384D02*
D03*
Y282134D02*
D03*
X49750Y406084D02*
D03*
Y529776D02*
D03*
Y655084D02*
D03*
D100*
X755058Y435000D02*
X788750D01*
X736786Y453272D02*
X755058Y435000D01*
X622500Y448000D02*
Y633535D01*
X589500Y415000D02*
X622500Y448000D01*
Y633535D02*
X634719Y645754D01*
X677661Y479683D02*
X685978Y488000D01*
X737500D01*
X804510Y555009D01*
Y758789D01*
X819625Y276375D02*
X819750Y276250D01*
X1024111Y503389D02*
Y527746D01*
Y503389D02*
X1142054Y385446D01*
X1193673D01*
X1207198Y371921D01*
X819625Y276375D02*
Y505625D01*
X819500Y505750D02*
X819625Y505625D01*
X684750Y360750D02*
X769250Y276250D01*
X819750D01*
X545179Y153691D02*
X589870Y109000D01*
X639750D01*
X588993Y306865D02*
X589246Y307119D01*
Y414746D01*
X589500Y415000D01*
D101*
X858227Y218273D02*
X918504Y157996D01*
X955442D01*
X858227Y218273D02*
Y782351D01*
X894599Y222642D02*
X894700Y222541D01*
X894599Y222642D02*
Y444259D01*
X894499Y444360D02*
X894599Y444259D01*
X1216917Y222541D02*
X1238750Y244374D01*
X894700Y222541D02*
X1216917D01*
X1207804Y553196D02*
X1238750Y522250D01*
Y244374D02*
Y522250D01*
X1207804Y553196D02*
Y569626D01*
X1203250Y707511D02*
X1205030Y709291D01*
X393732Y506250D02*
X393769Y506287D01*
X352250Y506250D02*
X393732D01*
X376500Y67000D02*
X1005000D01*
X1041250Y103250D02*
Y124000D01*
X1005000Y67000D02*
X1041250Y103250D01*
X308750Y134750D02*
X376500Y67000D01*
X308750Y134750D02*
Y170384D01*
X331250Y192884D01*
Y258135D01*
X308500Y280884D02*
X331250Y258135D01*
X308500Y282000D02*
X331250Y304750D01*
X308750Y392884D02*
X331250Y370385D01*
Y304750D02*
Y370385D01*
X308500Y280884D02*
Y282000D01*
X308750Y392884D02*
X331250Y415384D01*
X308500Y505884D02*
X331250Y483135D01*
Y415384D02*
Y483135D01*
Y528250D02*
Y594589D01*
X308500Y505884D02*
X308884D01*
X331250Y528250D01*
X308000Y617134D02*
X308704D01*
X331250Y594589D01*
D106*
X616480Y391433D02*
X616999D01*
X654135Y354297D01*
X654654D01*
X720412Y419467D02*
X720500Y419555D01*
X654654Y354297D02*
X719824Y419467D01*
X720412D01*
X654654Y354297D02*
X654654D01*
X985712Y590142D02*
Y614393D01*
X1145053Y416704D02*
X1164436Y397321D01*
X1003353Y572500D02*
X1050500D01*
X985712Y590142D02*
X1003353Y572500D01*
X1145053Y416704D02*
Y477947D01*
X1050500Y572500D02*
X1145053Y477947D01*
X1164436Y397321D02*
X1181798D01*
X998720Y315876D02*
X1018876Y295721D01*
X998720Y315876D02*
Y331371D01*
X983218Y312968D02*
X1012360Y283826D01*
X983218Y312968D02*
Y330482D01*
X1012360Y283826D02*
X1196399D01*
X1018876Y295721D02*
X1181798D01*
X1146329Y371921D02*
X1181798D01*
X991000Y527250D02*
X1146329Y371921D01*
X974468Y527250D02*
X991000D01*
X1207198Y294625D02*
Y295721D01*
X1196399Y283826D02*
X1207198Y294625D01*
D107*
X1042000Y736000D02*
X1132000Y646000D01*
Y596500D02*
Y646000D01*
X946500Y736000D02*
X1042000D01*
D110*
X1126000Y825000D02*
D03*
X1123265Y48500D02*
D03*
D111*
X530679Y208531D02*
D03*
X530429Y133941D02*
D03*
D112*
X552752Y820728D02*
D03*
D113*
Y795328D02*
D03*
X527352Y820728D02*
D03*
Y795328D02*
D03*
X501952Y820728D02*
D03*
Y795328D02*
D03*
X1181798Y448121D02*
D03*
X1207198D02*
D03*
X1181798Y422721D02*
D03*
X1207198D02*
D03*
X1181798Y397321D02*
D03*
X1207198D02*
D03*
X1181798Y371921D02*
D03*
X1207198D02*
D03*
X1181798Y346521D02*
D03*
X1207198D02*
D03*
X1181798Y321121D02*
D03*
X1207198D02*
D03*
X1181798Y295721D02*
D03*
X1207198D02*
D03*
X1181798Y270321D02*
D03*
X1182404Y620426D02*
D03*
X1207804D02*
D03*
X1182404Y595026D02*
D03*
X1207804D02*
D03*
X1182404Y569626D02*
D03*
D114*
X1207198Y270321D02*
D03*
X1207804Y569626D02*
D03*
D115*
X1193371Y117131D02*
D03*
X49500Y208184D02*
D03*
Y332934D02*
D03*
X49750Y456884D02*
D03*
Y580576D02*
D03*
Y705884D02*
D03*
D116*
X707867Y708506D02*
D03*
Y683106D02*
D03*
Y657706D02*
D03*
D117*
X206000Y693134D02*
D03*
X130250Y692134D02*
D03*
X206500Y581884D02*
D03*
X130750Y580884D02*
D03*
X206750Y468884D02*
D03*
X131000Y467884D02*
D03*
X206500Y356884D02*
D03*
X130750Y355884D02*
D03*
X206750Y246384D02*
D03*
X131000Y245384D02*
D03*
D118*
X660119Y645754D02*
D03*
X660119Y620354D02*
D03*
X634719Y645754D02*
D03*
Y620354D02*
D03*
X609319Y645754D02*
D03*
D119*
Y620354D02*
D03*
D120*
X1205030Y709291D02*
D03*
D121*
Y734691D02*
D03*
Y760091D02*
D03*
D122*
X789506Y411862D02*
D03*
X874475Y560931D02*
D03*
X955442Y157996D02*
D03*
X746911Y461980D02*
D03*
X736786Y453272D02*
D03*
X639775Y521213D02*
D03*
X616480Y391433D02*
D03*
X1026750Y540091D02*
D03*
X312806Y198460D02*
D03*
X312362Y225102D02*
D03*
X311695Y307023D02*
D03*
X310363Y332111D02*
D03*
X312362Y424467D02*
D03*
X312806Y446669D02*
D03*
X311030Y651585D02*
D03*
X312806Y671788D02*
D03*
X775642Y513714D02*
D03*
X762410Y442700D02*
D03*
X769092Y321838D02*
D03*
X771806Y346924D02*
D03*
X756370Y365673D02*
D03*
X848514Y519393D02*
D03*
X846968Y588143D02*
D03*
X844946Y553768D02*
D03*
X769855Y537366D02*
D03*
X772304Y594660D02*
D03*
X635657Y590850D02*
D03*
X649473Y597609D02*
D03*
X1251750Y790091D02*
D03*
X1226750Y740091D02*
D03*
X1251750Y690091D02*
D03*
Y590091D02*
D03*
Y490091D02*
D03*
Y390091D02*
D03*
X1226750Y340091D02*
D03*
X1251750Y290091D02*
D03*
Y190091D02*
D03*
X1226750Y140091D02*
D03*
X1251750Y90091D02*
D03*
X1226750Y40091D02*
D03*
X1176750Y840091D02*
D03*
X1201750Y790091D02*
D03*
X1176750Y540091D02*
D03*
X1201750Y490091D02*
D03*
Y190091D02*
D03*
X1176750Y140091D02*
D03*
X1201750Y90091D02*
D03*
X1176750Y40091D02*
D03*
X1151750Y790091D02*
D03*
Y490091D02*
D03*
X1126750Y440091D02*
D03*
Y340091D02*
D03*
Y240091D02*
D03*
X1151750Y190091D02*
D03*
Y90091D02*
D03*
X1076750Y840091D02*
D03*
X1101750Y790091D02*
D03*
X1076750Y740091D02*
D03*
X1101750Y190091D02*
D03*
X1076750Y140091D02*
D03*
X1101750Y90091D02*
D03*
X1026750Y840091D02*
D03*
Y440091D02*
D03*
Y140091D02*
D03*
X976750Y840091D02*
D03*
Y540091D02*
D03*
Y240091D02*
D03*
X926750Y840091D02*
D03*
X951750Y790091D02*
D03*
Y690091D02*
D03*
Y590091D02*
D03*
Y290091D02*
D03*
X926750Y240091D02*
D03*
X951750Y190091D02*
D03*
X876750Y840091D02*
D03*
X901750Y790091D02*
D03*
Y690091D02*
D03*
X876750Y640091D02*
D03*
X901750Y490091D02*
D03*
X876750Y240091D02*
D03*
X826750D02*
D03*
Y140091D02*
D03*
Y40091D02*
D03*
X801750Y490091D02*
D03*
X776750Y240091D02*
D03*
Y40091D02*
D03*
X726750Y740091D02*
D03*
Y140091D02*
D03*
Y40091D02*
D03*
X676750Y840091D02*
D03*
X701750Y790091D02*
D03*
X676750Y740091D02*
D03*
X701750Y590091D02*
D03*
X676750Y440091D02*
D03*
X701750Y290091D02*
D03*
Y90091D02*
D03*
X676750Y40091D02*
D03*
X626750Y840091D02*
D03*
X651750Y790091D02*
D03*
X626750Y740091D02*
D03*
X651750Y490091D02*
D03*
X626750Y240091D02*
D03*
Y40091D02*
D03*
X576750Y840091D02*
D03*
X601750Y790091D02*
D03*
Y690091D02*
D03*
X576750Y540091D02*
D03*
X601750Y490091D02*
D03*
X576750Y440091D02*
D03*
X601750Y190091D02*
D03*
Y90091D02*
D03*
X576750Y40091D02*
D03*
X526750Y840091D02*
D03*
X551750Y290091D02*
D03*
X526750Y240091D02*
D03*
X551750Y90091D02*
D03*
X526750Y40091D02*
D03*
X476750Y840091D02*
D03*
X501750Y690091D02*
D03*
Y590091D02*
D03*
X476750Y340091D02*
D03*
Y240091D02*
D03*
X501750Y190091D02*
D03*
X476750Y140091D02*
D03*
X501750Y90091D02*
D03*
X476750Y40091D02*
D03*
X426750Y840091D02*
D03*
Y640091D02*
D03*
Y540091D02*
D03*
X451750Y490091D02*
D03*
Y390091D02*
D03*
X426750Y340091D02*
D03*
X451750Y290091D02*
D03*
X426750Y240091D02*
D03*
X451750Y190091D02*
D03*
X426750Y140091D02*
D03*
X451750Y90091D02*
D03*
X426750Y40091D02*
D03*
X376750Y840091D02*
D03*
X401750Y790091D02*
D03*
X376750Y740091D02*
D03*
X401750Y690091D02*
D03*
Y590091D02*
D03*
X376750Y240091D02*
D03*
Y140091D02*
D03*
X401750Y90091D02*
D03*
X376750Y40091D02*
D03*
X326750Y840091D02*
D03*
X351750Y790091D02*
D03*
X326750Y740091D02*
D03*
Y640091D02*
D03*
X351750Y590091D02*
D03*
Y490091D02*
D03*
Y190091D02*
D03*
X326750Y140091D02*
D03*
Y40091D02*
D03*
X858227Y782351D02*
D03*
X677661Y479683D02*
D03*
X788750Y435000D02*
D03*
X720500Y419555D02*
D03*
X654654Y354297D02*
D03*
X991251Y455546D02*
D03*
X985712Y614393D02*
D03*
X1000686Y615734D02*
D03*
X1064793Y330052D02*
D03*
X998720Y331371D02*
D03*
X983218Y330482D02*
D03*
X913778Y329771D02*
D03*
Y556814D02*
D03*
X1067314Y588204D02*
D03*
X994000Y721000D02*
D03*
X779250Y217953D02*
D03*
X652000Y305750D02*
D03*
X819750Y276250D02*
D03*
X1132000Y596500D02*
D03*
X1024111Y527746D02*
D03*
X974468Y527250D02*
D03*
X946500Y736000D02*
D03*
X894700Y222541D02*
D03*
X894499Y444360D02*
D03*
X578500Y754823D02*
D03*
X481500Y756750D02*
D03*
X873750Y597281D02*
D03*
X874370Y532931D02*
D03*
X874181Y417964D02*
D03*
X874493Y366804D02*
D03*
Y331917D02*
D03*
Y301865D02*
D03*
X873750Y622500D02*
D03*
X837005Y603217D02*
D03*
X837496Y572865D02*
D03*
X837069Y537931D02*
D03*
Y401865D02*
D03*
Y376865D02*
D03*
Y346865D02*
D03*
X837250Y312046D02*
D03*
X836760Y627931D02*
D03*
X819500Y505750D02*
D03*
X684750Y360750D02*
D03*
X393769Y506287D02*
D03*
X352250Y506250D02*
D03*
X1041250Y124000D02*
D03*
X590250Y120750D02*
D03*
X639750Y109000D02*
D03*
X588993Y306865D02*
D03*
X667590Y143654D02*
D03*
X804510Y758789D02*
D03*
X589500Y415000D02*
D03*
M02*
